<svg width="411" height="364" viewBox="0 0 411 364" fill="none" xmlns="http://www.w3.org/2000/svg">
<g clip-path="url(#clip0_892_183663)">
<path d="M61.1287 36.2558L294.308 34.5593C295.711 34.5489 296.854 35.6842 296.854 37.0872V192.444C296.854 193.857 295.695 194.995 294.282 194.972L172.432 192.857C172.108 192.852 171.788 192.909 171.484 193.023L99.419 220.614C97.7796 221.243 96.0129 220.048 95.9895 218.292L95.644 194.53C95.6232 193.127 94.4645 192.01 93.0615 192.041L59.2139 192.794C57.7746 192.826 56.6003 191.654 56.6315 190.215C57.0394 171.392 59.4556 57.6639 58.619 38.9006C58.554 37.4691 59.692 36.2714 61.1261 36.261L61.1287 36.2558Z" fill="white" stroke="#010101" stroke-width="1.81865" stroke-miterlimit="10"/>
<path d="M351.483 148.536L215.084 147.544C214.24 147.539 213.554 148.219 213.554 149.064V239.913C213.554 240.762 214.25 241.446 215.1 241.433L286.37 240.196C286.565 240.193 286.757 240.227 286.939 240.297L329.056 256.423C330.043 256.8 331.103 256.083 331.119 255.026L331.319 241.217C331.332 240.373 332.028 239.702 332.873 239.72L352.6 240.16C353.465 240.178 354.172 239.474 354.153 238.608C353.912 227.481 352.506 161.204 352.989 150.124C353.026 149.264 352.343 148.547 351.483 148.541V148.536Z" fill="#67DC7A"/>
<path d="M168.533 240.892L83.5707 240.274C82.8744 240.269 82.3054 240.833 82.3054 241.529V297.917C82.3054 298.619 82.8796 299.185 83.5811 299.172L127.93 298.403C128.091 298.401 128.25 298.429 128.4 298.486L154.368 308.429C155.184 308.741 156.059 308.148 156.072 307.276L156.187 299.346C156.197 298.65 156.774 298.094 157.47 298.11L169.229 298.372C169.943 298.388 170.528 297.806 170.512 297.091C170.346 289.37 169.512 249.871 169.777 242.197C169.8 241.49 169.239 240.9 168.533 240.895V240.892Z" stroke="#5109C9" stroke-width="1.81865" stroke-miterlimit="10"/>
<path d="M104.807 277.273C108.152 277.273 110.863 274.562 110.863 271.217C110.863 267.872 108.152 265.161 104.807 265.161C101.462 265.161 98.751 267.872 98.751 271.217C98.751 274.562 101.462 277.273 104.807 277.273Z" fill="#5109C9"/>
<path d="M126.028 277.273C129.372 277.273 132.084 274.562 132.084 271.217C132.084 267.872 129.372 265.161 126.028 265.161C122.683 265.161 119.971 267.872 119.971 271.217C119.971 274.562 122.683 277.273 126.028 277.273Z" fill="#5109C9"/>
<path d="M144.166 277.273C147.511 277.273 150.222 274.562 150.222 271.217C150.222 267.872 147.511 265.161 144.166 265.161C140.821 265.161 138.11 267.872 138.11 271.217C138.11 274.562 140.821 277.273 144.166 277.273Z" fill="#5109C9"/>
<path d="M254.622 206.257C259.478 206.257 263.414 202.321 263.414 197.466C263.414 192.61 259.478 188.674 254.622 188.674C249.767 188.674 245.83 192.61 245.83 197.466C245.83 202.321 249.767 206.257 254.622 206.257Z" fill="#262626"/>
<path d="M283.188 206.257C288.044 206.257 291.98 202.321 291.98 197.466C291.98 192.61 288.044 188.674 283.188 188.674C278.333 188.674 274.396 192.61 274.396 197.466C274.396 202.321 278.333 206.257 283.188 206.257Z" fill="#262626"/>
<path d="M311.757 206.257C316.612 206.257 320.549 202.321 320.549 197.466C320.549 192.61 316.612 188.674 311.757 188.674C306.901 188.674 302.965 192.61 302.965 197.466C302.965 202.321 306.901 206.257 311.757 206.257Z" fill="#262626"/>
<path d="M201.801 66.4998C208.87 72.9949 212.408 81.6907 212.408 92.5869C212.408 104.761 208.639 113.777 201.104 119.63C193.567 125.486 183.365 128.412 170.497 128.412L169.974 144.933H156.236L155.539 117.456H160.582C172.061 117.456 181.045 115.718 187.537 112.239C194.03 108.76 197.277 102.213 197.277 92.5869C197.277 85.6293 195.191 80.124 191.016 76.0659C186.844 72.0077 181.219 69.9786 174.147 69.9786C167.075 69.9786 161.305 71.922 157.192 75.8035C153.076 79.6902 151.019 84.9928 151.019 91.7166H136.062C136.062 84.759 137.626 78.6457 140.756 73.3691C143.887 68.095 148.322 64.0082 154.061 61.1088C159.8 58.212 166.436 56.7596 173.973 56.7596C185.451 56.7596 194.726 60.0072 201.798 66.4998H201.801ZM155.368 177.453C153.282 175.366 152.237 172.818 152.237 169.801C152.237 166.785 153.282 164.236 155.368 162.15C157.454 160.064 160.003 159.019 163.019 159.019C166.036 159.019 168.382 160.064 170.411 162.15C172.437 164.236 173.453 166.788 173.453 169.801C173.453 172.815 172.437 175.366 170.411 177.453C168.382 179.539 165.916 180.583 163.019 180.583C160.122 180.583 157.454 179.539 155.368 177.453Z" fill="#5109C9"/>
</g>
<defs>
<clipPath id="clip0_892_183663">
<rect width="411" height="364" fill="white" transform="translate(0 0.00488281)"/>
</clipPath>
</defs>
</svg>
