<svg width="231" height="179" viewBox="0 0 231 179" fill="none" xmlns="http://www.w3.org/2000/svg">
<path d="M73.9857 111.17C70.8001 111.17 68.1748 113.786 68.1748 116.97V131.083C68.1748 134.269 70.8001 136.883 73.9857 136.883H151.278C154.464 136.883 157.078 134.267 157.078 131.083V116.97C157.078 113.785 154.462 111.17 151.278 111.17H73.9857ZM73.9857 114.794H151.278C152.516 114.794 153.454 115.732 153.454 116.97V131.083C153.454 132.321 152.516 133.259 151.278 133.259H73.9857C72.7474 133.259 71.7985 132.321 71.7985 131.083V116.97C71.7985 115.732 72.7474 114.794 73.9857 114.794Z" fill="white"/>
<path d="M86.9094 124.026C86.9094 125.735 85.524 127.119 83.8166 127.119C82.1093 127.119 80.7239 125.733 80.7239 124.026C80.7239 122.318 82.1093 120.933 83.8166 120.933C85.524 120.933 86.9094 122.318 86.9094 124.026Z" fill="white"/>
<path d="M83.8152 119.116C81.1265 119.116 78.916 121.337 78.916 124.026C78.916 126.715 81.1265 128.936 83.8152 128.936C86.5039 128.936 88.7252 126.715 88.7252 124.026C88.7252 121.337 86.5039 119.116 83.8152 119.116ZM83.8152 122.75C84.5427 122.75 85.1015 123.298 85.1015 124.026C85.1015 124.753 84.5443 125.301 83.8152 125.301C83.0861 125.301 82.5397 124.753 82.5397 124.026C82.5397 123.298 83.0877 122.75 83.8152 122.75Z" fill="white"/>
<path d="M128.559 123.986C127.559 123.986 126.748 124.797 126.747 125.798C126.747 126.798 127.558 127.609 128.559 127.611H133.722C134.722 127.611 135.533 126.8 135.534 125.798C135.534 124.798 134.723 123.987 133.722 123.986H128.559Z" fill="white"/>
<path d="M139.209 123.986C138.208 123.981 137.392 124.789 137.387 125.792V125.798C137.387 126.8 138.201 127.611 139.203 127.611H144.362C145.364 127.615 146.179 126.807 146.184 125.804V125.798C146.184 124.797 145.37 123.986 144.368 123.986H139.209Z" fill="white"/>
<path d="M73.9857 139.445C70.8001 139.445 68.1748 142.07 68.1748 145.256V159.357C68.1748 162.543 70.8001 165.168 73.9857 165.168H151.278C154.464 165.168 157.078 162.543 157.078 159.357V145.256C157.078 142.07 154.462 139.445 151.278 139.445H73.9857ZM73.9857 143.078H151.278C152.516 143.078 153.454 144.016 153.454 145.254V159.356C153.454 160.594 152.516 161.532 151.278 161.532H73.9857C72.7474 161.532 71.7985 160.594 71.7985 159.356V145.254C71.7985 144.016 72.7474 143.078 73.9857 143.078Z" fill="white"/>
<path d="M86.9099 152.306C86.9099 154.015 85.5245 155.399 83.8171 155.399C82.1098 155.399 80.7244 154.014 80.7244 152.306C80.7244 150.599 82.1098 149.214 83.8171 149.214C85.5245 149.214 86.9099 150.599 86.9099 152.306Z" fill="white"/>
<path d="M83.8152 147.401C81.1265 147.401 78.916 149.622 78.916 152.311C78.916 155 81.1265 157.21 83.8152 157.21C86.5039 157.21 88.7252 155 88.7252 152.311C88.7252 149.622 86.5039 147.401 83.8152 147.401ZM83.8152 151.025C84.5427 151.025 85.1015 151.582 85.1015 152.311C85.1015 153.04 84.5443 153.587 83.8152 153.587C83.0861 153.587 82.5397 153.039 82.5397 152.311C82.5397 151.584 83.0877 151.025 83.8152 151.025Z" fill="white"/>
<path d="M128.559 152.271C127.559 152.271 126.748 153.082 126.747 154.083C126.747 155.083 127.558 155.894 128.559 155.896H133.722C134.722 155.896 135.533 155.085 135.534 154.083C135.534 153.083 134.723 152.272 133.722 152.271H128.559Z" fill="white"/>
<path d="M139.209 152.271C138.208 152.266 137.392 153.074 137.387 154.077V154.083C137.387 155.085 138.201 155.896 139.203 155.896H144.362C145.364 155.901 146.179 155.093 146.184 154.09V154.083C146.184 153.082 145.37 152.271 144.368 152.271H139.209Z" fill="white"/>
<path d="M73.9857 82.8852C70.8001 82.8852 68.1748 85.5105 68.1748 88.6961V102.798C68.1748 105.983 70.8001 108.609 73.9857 108.609H151.278C154.464 108.609 157.078 105.983 157.078 102.798V88.6961C157.078 85.5105 154.462 82.8852 151.278 82.8852H73.9857ZM73.9857 86.5197H151.278C152.516 86.5197 153.454 87.4578 153.454 88.6961V102.798C153.454 104.036 152.516 104.974 151.278 104.974H73.9857C72.7474 104.974 71.7985 104.036 71.7985 102.798V88.6961C71.7985 87.4578 72.7474 86.5197 73.9857 86.5197Z" fill="white"/>
<path d="M86.9094 95.7469C86.9094 97.4558 85.524 98.8397 83.8166 98.8397C82.1093 98.8397 80.7239 97.4543 80.7239 95.7469C80.7239 94.0396 82.1093 92.6542 83.8166 92.6542C85.524 92.6542 86.9094 94.0396 86.9094 95.7469Z" fill="white"/>
<path d="M83.8152 90.8416C81.1265 90.8416 78.916 93.0628 78.916 95.7516C78.916 98.4403 81.1265 100.651 83.8152 100.651C86.5039 100.651 88.7252 98.4403 88.7252 95.7516C88.7252 93.0628 86.5039 90.8416 83.8152 90.8416ZM83.8152 94.4668C84.5427 94.4668 85.1015 95.024 85.1015 95.7531C85.1015 96.4822 84.5443 97.0286 83.8152 97.0286C83.0861 97.0286 82.5397 96.4806 82.5397 95.7531C82.5397 95.0256 83.0877 94.4668 83.8152 94.4668Z" fill="white"/>
<path d="M128.559 95.7113C127.559 95.7113 126.748 96.5224 126.747 97.5239C126.747 98.5239 127.558 99.335 128.559 99.3365H133.722C134.722 99.3365 135.533 98.5254 135.534 97.5239C135.534 96.524 134.723 95.7129 133.722 95.7113H128.559Z" fill="white"/>
<path d="M139.209 95.7113C138.208 95.7066 137.392 96.5146 137.387 97.5177V97.5239C137.387 98.5254 138.201 99.3365 139.203 99.3365H144.362C145.364 99.3411 146.179 98.5331 146.184 97.5301V97.5239C146.184 96.5224 145.37 95.7113 144.368 95.7113H139.209Z" fill="white"/>
<path d="M197.966 86.1993C196.87 86.1993 195.983 87.0894 195.985 88.1853V136.337C195.98 137.432 196.864 138.324 197.96 138.33H197.966C199.062 138.33 199.949 137.44 199.947 136.344V88.1931C199.952 87.0971 199.068 86.2055 197.972 86.1993H197.966Z" fill="white"/>
<path d="M32.9733 86.1993C31.8774 86.1993 30.9904 87.0894 30.992 88.1853V136.337C30.9873 137.432 31.8712 138.324 32.9671 138.33H32.9733C34.0692 138.33 34.9562 137.44 34.9546 136.344V88.1931C34.9593 87.0971 34.0754 86.2055 32.9795 86.1993H32.9733Z" fill="white"/>
<path d="M115.474 14.1389C114.994 14.1389 114.53 14.3107 114.168 14.6265L19.5634 97.2607C18.7383 97.9821 18.6532 99.2343 19.373 100.061C19.373 100.061 19.373 100.061 19.3745 100.062C20.0959 100.888 21.3481 100.973 22.1747 100.253C22.1747 100.253 22.1747 100.253 22.1763 100.251L116.77 17.6155C117.598 16.8988 117.688 15.645 116.971 14.8169C116.971 14.8169 116.971 14.8153 116.969 14.8138C116.592 14.3834 116.047 14.1373 115.474 14.1389Z" fill="white"/>
<path d="M115.487 14.1388C114.911 14.1342 114.362 14.3819 113.981 14.8137C113.259 15.6388 113.343 16.8926 114.167 17.6139C114.167 17.6139 114.167 17.6139 114.168 17.6155L208.762 100.25C209.587 100.971 210.841 100.887 211.562 100.064C211.562 100.064 211.562 100.064 211.563 100.062C212.285 99.2374 212.201 97.9836 211.378 97.2623C211.378 97.2623 211.378 97.2623 211.376 97.2607L116.77 14.6249C116.414 14.3153 115.958 14.1419 115.485 14.1373L115.487 14.1388Z" fill="white"/>
<path d="M115.474 40.0805C110.635 40.0805 106.671 44.0447 106.671 48.8835C106.671 53.7223 110.635 57.6866 115.474 57.6866C120.313 57.6866 124.277 53.7223 124.277 48.8835C124.277 44.0447 120.313 40.0805 115.474 40.0805ZM115.474 44.0556C118.168 44.0556 120.302 46.1902 120.302 48.8835C120.302 51.5769 118.168 53.7223 115.474 53.7223C112.781 53.7223 110.635 51.5769 110.635 48.8835C110.635 46.1902 112.781 44.0556 115.474 44.0556Z" fill="white"/>
</svg>
