<svg width="232" height="180" viewBox="0 0 232 180" fill="none" xmlns="http://www.w3.org/2000/svg">
<path d="M97.6846 20.0288C73.3221 20.0288 53.7416 40.2063 53.0312 65.1611C36.2475 66.4996 23.0083 80.3186 23.0083 97.533C23.0083 115.635 37.5518 130.272 55.5637 130.272H64.7235C65.7278 130.272 66.5424 129.457 66.544 128.451C66.544 127.447 65.7293 126.632 64.7235 126.631H55.5637C39.5184 126.631 26.6477 113.69 26.6477 97.533C26.6477 81.3758 39.0427 68.9341 54.6589 68.4553C55.6476 68.4273 56.4327 67.6143 56.428 66.6255C56.428 66.5727 56.428 66.5245 56.428 66.4732C56.428 42.7807 74.9141 23.6791 97.6862 23.6791C113.015 23.6806 127.081 32.4798 134.217 46.5958C134.666 47.4959 135.76 47.8612 136.661 47.4119C136.755 47.3653 136.846 47.3093 136.931 47.2456C141.631 43.7772 147.238 41.9195 152.995 41.9179C167.072 41.9179 178.935 52.8376 180.558 67.4168C180.646 68.205 181.235 68.8471 182.012 69.0025C195.278 71.6516 205.224 83.3346 205.224 97.5221C205.224 113.681 192.353 126.631 176.308 126.631H167.148C166.142 126.626 165.323 127.438 165.318 128.445V128.451C165.318 129.457 166.136 130.272 167.142 130.272H176.308C194.32 130.272 208.863 115.626 208.863 97.5237C208.863 82.052 198.18 69.2839 183.833 65.8529C181.493 50.1403 168.552 38.2692 152.995 38.2692C147.084 38.2692 141.413 40.2171 136.432 43.4445C128.457 29.1109 113.8 20.0319 97.6846 20.0288Z" fill="white"/>
<path d="M77.1266 105.199C73.9272 105.199 71.2905 107.826 71.2905 111.024V125.198C71.2905 128.397 73.9272 131.023 77.1266 131.023H154.754C157.953 131.023 160.579 128.395 160.579 125.198V111.024C160.579 107.825 157.951 105.199 154.754 105.199H77.1266ZM77.1266 108.838H154.754C155.997 108.838 156.939 109.78 156.939 111.024V125.198C156.939 126.441 155.997 127.383 154.754 127.383H77.1266C75.8829 127.383 74.9299 126.441 74.9299 125.198V111.024C74.9299 109.78 75.8829 108.838 77.1266 108.838Z" fill="white"/>
<path d="M90.1078 118.112C90.1078 119.828 88.7164 121.218 87.0016 121.218C85.2869 121.218 83.8955 119.826 83.8955 118.112C83.8955 116.397 85.2869 115.005 87.0016 115.005C88.7164 115.005 90.1078 116.397 90.1078 118.112Z" fill="white"/>
<path d="M86.9987 113.18C84.2984 113.18 82.0784 115.411 82.0784 118.112C82.0784 120.812 84.2984 123.043 86.9987 123.043C89.6991 123.043 91.93 120.812 91.93 118.112C91.93 115.411 89.6991 113.18 86.9987 113.18ZM86.9987 116.829C87.7294 116.829 88.2906 117.379 88.2906 118.11C88.2906 118.841 87.731 119.391 86.9987 119.391C86.2665 119.391 85.7177 118.841 85.7177 118.11C85.7177 117.379 86.2681 116.829 86.9987 116.829Z" fill="white"/>
<path d="M131.938 118.07C130.934 118.07 130.119 118.884 130.117 119.89C130.117 120.894 130.932 121.709 131.938 121.711H137.123C138.127 121.711 138.941 120.896 138.943 119.89C138.943 118.886 138.128 118.071 137.123 118.07H131.938Z" fill="white"/>
<path d="M142.634 118.07C141.628 118.065 140.809 118.876 140.804 119.884V119.89C140.804 120.896 141.622 121.711 142.628 121.711H147.809C148.815 121.715 149.634 120.904 149.639 119.896V119.89C149.639 118.884 148.821 118.07 147.815 118.07H142.634Z" fill="white"/>
<path d="M77.1266 133.596C73.9272 133.596 71.2905 136.232 71.2905 139.432V153.594C71.2905 156.794 73.9272 159.43 77.1266 159.43H154.754C157.953 159.43 160.579 156.794 160.579 153.594V139.432C160.579 136.232 157.951 133.596 154.754 133.596H77.1266ZM77.1266 137.246H154.754C155.997 137.246 156.939 138.188 156.939 139.432V153.594C156.939 154.838 155.997 155.78 154.754 155.78H77.1266C75.8829 155.78 74.9299 154.838 74.9299 153.594V139.432C74.9299 138.188 75.8829 137.246 77.1266 137.246Z" fill="white"/>
<path d="M90.108 146.513C90.108 148.229 88.7166 149.619 87.0019 149.619C85.2871 149.619 83.8958 148.228 83.8958 146.513C83.8958 144.798 85.2871 143.407 87.0019 143.407C88.7166 143.407 90.108 144.798 90.108 146.513Z" fill="white"/>
<path d="M86.9987 141.586C84.2984 141.586 82.0784 143.817 82.0784 146.518C82.0784 149.218 84.2984 151.438 86.9987 151.438C89.6991 151.438 91.93 149.218 91.93 146.518C91.93 143.817 89.6991 141.586 86.9987 141.586ZM86.9987 145.227C87.7294 145.227 88.2906 145.787 88.2906 146.519C88.2906 147.251 87.731 147.8 86.9987 147.8C86.2665 147.8 85.7177 147.25 85.7177 146.519C85.7177 145.789 86.2681 145.227 86.9987 145.227Z" fill="white"/>
<path d="M131.938 146.477C130.934 146.477 130.119 147.292 130.117 148.298C130.117 149.302 130.932 150.117 131.938 150.118H137.123C138.127 150.118 138.941 149.303 138.943 148.298C138.943 147.293 138.128 146.479 137.123 146.477H131.938Z" fill="white"/>
<path d="M142.634 146.477C141.628 146.473 140.809 147.284 140.804 148.291V148.298C140.804 149.303 141.622 150.118 142.628 150.118H147.809C148.815 150.123 149.634 149.311 149.639 148.304V148.298C149.639 147.292 148.821 146.477 147.815 146.477H142.634Z" fill="white"/>
<path d="M77.1266 76.7912C73.9272 76.7912 71.2905 79.4278 71.2905 82.6273V96.7899C71.2905 99.9893 73.9272 102.626 77.1266 102.626H154.754C157.953 102.626 160.579 99.9893 160.579 96.7899V82.6273C160.579 79.4278 157.951 76.7912 154.754 76.7912H77.1266ZM77.1266 80.4415H154.754C155.997 80.4415 156.939 81.3836 156.939 82.6273V96.7899C156.939 98.0336 155.997 98.9757 154.754 98.9757H77.1266C75.8829 98.9757 74.9299 98.0336 74.9299 96.7899V82.6273C74.9299 81.3836 75.8829 80.4415 77.1266 80.4415Z" fill="white"/>
<path d="M90.1078 89.7086C90.1078 91.4249 88.7164 92.8147 87.0016 92.8147C85.2869 92.8147 83.8955 91.4233 83.8955 89.7086C83.8955 87.9938 85.2869 86.6024 87.0016 86.6024C88.7164 86.6024 90.1078 87.9938 90.1078 89.7086Z" fill="white"/>
<path d="M86.9987 84.7835C84.2984 84.7835 82.0784 87.0144 82.0784 89.7148C82.0784 92.4152 84.2984 94.6352 86.9987 94.6352C89.6991 94.6352 91.93 92.4152 91.93 89.7148C91.93 87.0144 89.6991 84.7835 86.9987 84.7835ZM86.9987 88.4229C87.7294 88.4229 88.2906 88.9826 88.2906 89.7148C88.2906 90.447 87.731 90.9958 86.9987 90.9958C86.2665 90.9958 85.7177 90.4455 85.7177 89.7148C85.7177 88.9841 86.2681 88.4229 86.9987 88.4229Z" fill="white"/>
<path d="M131.938 89.6729C130.934 89.6729 130.119 90.4875 130.117 91.4933C130.117 92.4976 130.932 93.3122 131.938 93.3138H137.123C138.127 93.3138 138.941 92.4992 138.943 91.4933C138.943 90.489 138.128 89.6744 137.123 89.6729H131.938Z" fill="white"/>
<path d="M142.634 89.6728C141.628 89.6681 140.809 90.4797 140.804 91.4871V91.4933C140.804 92.4991 141.622 93.3137 142.628 93.3137H147.809C148.815 93.3184 149.634 92.5069 149.639 91.4995V91.4933C149.639 90.4874 148.821 89.6728 147.815 89.6728H142.634Z" fill="white"/>
</svg>
