<svg width="222" height="35" viewBox="0 0 222 35" fill="none" xmlns="http://www.w3.org/2000/svg">
<path d="M221.854 11.8923L217.795 26.892H212.715L210.349 17.161L207.903 26.892H202.85L198.764 11.8923H203.36L205.484 22.6179L208.011 11.8923H212.876L215.43 22.5641L217.527 11.8923H221.854Z" fill="#404653"/>
<path d="M190.035 27.107C188.565 27.107 187.239 26.7934 186.057 26.1661C184.892 25.5389 183.969 24.6429 183.288 23.478C182.625 22.3132 182.293 20.9512 182.293 19.3921C182.293 17.8509 182.634 16.4979 183.315 15.3331C183.996 14.1503 184.928 13.2453 186.11 12.6181C187.293 11.9909 188.619 11.6772 190.089 11.6772C191.558 11.6772 192.884 11.9909 194.067 12.6181C195.25 13.2453 196.182 14.1503 196.863 15.3331C197.544 16.4979 197.884 17.8509 197.884 19.3921C197.884 20.9333 197.535 22.2953 196.836 23.478C196.155 24.6429 195.214 25.5389 194.013 26.1661C192.831 26.7934 191.504 27.107 190.035 27.107ZM190.035 23.1286C190.913 23.1286 191.657 22.806 192.266 22.1609C192.893 21.5157 193.207 20.5928 193.207 19.3921C193.207 18.1914 192.902 17.2685 192.293 16.6234C191.702 15.9782 190.967 15.6556 190.089 15.6556C189.193 15.6556 188.449 15.9782 187.858 16.6234C187.266 17.2506 186.971 18.1735 186.971 19.3921C186.971 20.5928 187.257 21.5157 187.831 22.1609C188.422 22.806 189.157 23.1286 190.035 23.1286Z" fill="#404653"/>
<path d="M179.876 7V26.892H175.279V7H179.876Z" fill="#404653"/>
<path d="M172.863 8.02148V11.7042H165.176V15.6826H170.928V19.2578H165.176V26.892H160.579V8.02148H172.863Z" fill="#404653"/>
<path d="M151.686 11.7311C153.406 11.7311 154.786 12.3045 155.825 13.4515C156.865 14.5805 157.385 16.1396 157.385 18.1288V26.892H152.815V18.747C152.815 17.7435 152.555 16.9639 152.035 16.4084C151.516 15.8528 150.817 15.5751 149.939 15.5751C149.06 15.5751 148.361 15.8528 147.842 16.4084C147.322 16.9639 147.062 17.7435 147.062 18.747V26.892H142.466V7H147.062V13.9084C147.528 13.2454 148.164 12.7167 148.971 12.3224C149.777 11.9282 150.682 11.7311 151.686 11.7311Z" fill="#404653"/>
<path d="M125.276 19.3921C125.276 17.833 125.589 16.471 126.217 15.3062C126.862 14.1413 127.749 13.2453 128.878 12.6181C130.025 11.9909 131.333 11.6772 132.803 11.6772C134.684 11.6772 136.252 12.1701 137.507 13.1557C138.779 14.1413 139.612 15.5302 140.007 17.3223H135.114C134.702 16.1753 133.905 15.6019 132.722 15.6019C131.88 15.6019 131.208 15.9334 130.706 16.5965C130.204 17.2416 129.953 18.1735 129.953 19.3921C129.953 20.6107 130.204 21.5516 130.706 22.2146C131.208 22.8598 131.88 23.1823 132.722 23.1823C133.905 23.1823 134.702 22.6089 135.114 21.4619H140.007C139.612 23.2182 138.779 24.5981 137.507 25.6016C136.234 26.6052 134.666 27.107 132.803 27.107C131.333 27.107 130.025 26.7934 128.878 26.1661C127.749 25.5389 126.862 24.6429 126.217 23.478C125.589 22.3132 125.276 20.9512 125.276 19.3921Z" fill="#404653"/>
<path d="M123.765 19.1502C123.765 19.5803 123.738 20.0283 123.684 20.4942H113.281C113.353 21.4261 113.649 22.1429 114.169 22.6447C114.706 23.1286 115.36 23.3705 116.131 23.3705C117.278 23.3705 118.075 22.8866 118.523 21.9189H123.416C123.165 22.9046 122.708 23.7916 122.045 24.5801C121.4 25.3687 120.584 25.9869 119.598 26.4349C118.613 26.883 117.511 27.107 116.292 27.107C114.823 27.107 113.514 26.7934 112.367 26.1661C111.221 25.5389 110.325 24.6429 109.679 23.478C109.034 22.3132 108.712 20.9512 108.712 19.3921C108.712 17.833 109.025 16.471 109.653 15.3062C110.298 14.1413 111.194 13.2453 112.341 12.6181C113.488 11.9909 114.805 11.6772 116.292 11.6772C117.744 11.6772 119.034 11.9819 120.163 12.5912C121.292 13.2005 122.17 14.0697 122.797 15.1987C123.442 16.3277 123.765 17.6448 123.765 19.1502ZM119.061 17.9405C119.061 17.152 118.792 16.5248 118.254 16.0589C117.717 15.5929 117.045 15.3599 116.238 15.3599C115.468 15.3599 114.814 15.584 114.276 16.032C113.756 16.48 113.434 17.1162 113.308 17.9405H119.061Z" fill="#404653"/>
<path d="M107.319 8.02148V11.7042H102.319V26.892H97.722V11.7042H92.7222V8.02148H107.319Z" fill="#404653"/>
<path d="M81.1979 11.6772C82.2553 11.6772 83.1782 11.8923 83.9667 12.3224C84.7731 12.7525 85.3914 13.317 85.8215 14.0159V11.8923H90.4181V26.865C90.4181 28.2449 90.1404 29.4904 89.5848 30.6015C89.0472 31.7305 88.2139 32.6265 87.0849 33.2896C85.9738 33.9527 84.585 34.2842 82.9183 34.2842C80.6962 34.2842 78.8951 33.7555 77.5152 32.6982C76.1353 31.6588 75.3468 30.2431 75.1497 28.451H79.6926C79.836 29.0245 80.1765 29.4725 80.7141 29.7951C81.2517 30.1356 81.9148 30.3058 82.7033 30.3058C83.6531 30.3058 84.4058 30.028 84.9613 29.4725C85.5348 28.9349 85.8215 28.0657 85.8215 26.865V24.7414C85.3735 25.4403 84.7552 26.0138 83.9667 26.4618C83.1782 26.8919 82.2553 27.107 81.1979 27.107C79.9614 27.107 78.8414 26.7934 77.8378 26.1661C76.8343 25.521 76.0368 24.616 75.4454 23.4511C74.8719 22.2684 74.5852 20.9064 74.5852 19.3652C74.5852 17.824 74.8719 16.471 75.4454 15.3062C76.0368 14.1413 76.8343 13.2453 77.8378 12.6181C78.8414 11.9909 79.9614 11.6772 81.1979 11.6772ZM85.8215 19.3921C85.8215 18.2452 85.4989 17.3402 84.8538 16.6771C84.2265 16.0141 83.456 15.6825 82.542 15.6825C81.628 15.6825 80.8485 16.0141 80.2033 16.6771C79.5761 17.3223 79.2625 18.2183 79.2625 19.3652C79.2625 20.5121 79.5761 21.4261 80.2033 22.1071C80.8485 22.7702 81.628 23.1017 82.542 23.1017C83.456 23.1017 84.2265 22.7702 84.8538 22.1071C85.4989 21.444 85.8215 20.539 85.8215 19.3921Z" fill="#404653"/>
<path d="M73.0744 19.1502C73.0744 19.5803 73.0475 20.0283 72.9937 20.4942H62.5908C62.6625 21.4261 62.9581 22.1429 63.4778 22.6447C64.0155 23.1286 64.6696 23.3705 65.4402 23.3705C66.5871 23.3705 67.3846 22.8866 67.8326 21.9189H72.7249C72.474 22.9046 72.0171 23.7916 71.354 24.5801C70.7088 25.3687 69.8935 25.9869 68.9078 26.4349C67.9222 26.883 66.8201 27.107 65.6015 27.107C64.132 27.107 62.8237 26.7934 61.6768 26.1661C60.5299 25.5389 59.6339 24.6429 58.9887 23.478C58.3436 22.3132 58.021 20.9512 58.021 19.3921C58.021 17.833 58.3346 16.471 58.9618 15.3062C59.607 14.1413 60.503 13.2453 61.6499 12.6181C62.7969 11.9909 64.114 11.6772 65.6015 11.6772C67.053 11.6772 68.3433 11.9819 69.4723 12.5912C70.6013 13.2005 71.4794 14.0697 72.1067 15.1987C72.7518 16.3277 73.0744 17.6448 73.0744 19.1502ZM68.3702 17.9405C68.3702 17.152 68.1014 16.5248 67.5638 16.0589C67.0261 15.5929 66.3541 15.3599 65.5477 15.3599C64.7771 15.3599 64.123 15.584 63.5854 16.032C63.0657 16.48 62.7431 17.1162 62.6177 17.9405H68.3702Z" fill="#404653"/>
<path d="M51.0226 26.892L47.098 19.7685H45.9958V26.892H41.3992V8.02148H49.114C50.6014 8.02148 51.8649 8.28133 52.9043 8.80103C53.9616 9.32073 54.7501 10.0376 55.2698 10.9515C55.7895 11.8476 56.0493 12.8511 56.0493 13.9622C56.0493 15.2166 55.6909 16.3367 54.9741 17.3223C54.2752 18.308 53.2358 19.0069 51.8559 19.419L56.2106 26.892H51.0226ZM45.9958 16.5159H48.8452C49.6875 16.5159 50.3147 16.3098 50.7269 15.8976C51.157 15.4855 51.372 14.903 51.372 14.1504C51.372 13.4335 51.157 12.869 50.7269 12.4569C50.3147 12.0447 49.6875 11.8386 48.8452 11.8386H45.9958V16.5159Z" fill="#404653"/>
<g clip-path="url(#clip0_3069_4313)">
<path fill-rule="evenodd" clip-rule="evenodd" d="M1.49805 14.3085H1.49887C3.77556 19.906 11.0196 27.5662 17.6427 14.5052C19.6612 10.5247 21.0261 7.64272 22.0127 5.55943C24.2634 0.807049 24.5457 0.210942 26.1285 0.210938C27.9266 0.210933 33.1784 7.09511 35.0428 14.5419C35.0417 14.54 35.0407 14.538 35.0397 14.5362C30.6734 7.79348 28.4459 4.29488 26.4597 4.42727C24.2684 4.57335 22.3707 9.13897 18.2183 18.6438C17.8659 19.2664 17.5347 19.9586 17.2287 20.7247C16.934 21.352 16.6131 22.1698 16.2624 23.0905C16.2092 23.2104 16.1556 23.331 16.1017 23.4522C8.85767 37.7572 2.7399 20.9427 1.49805 14.3085Z" fill="#9E65FF"/>
<g clip-path="url(#clip1_3069_4313)">
<path fill-rule="evenodd" clip-rule="evenodd" d="M1.49829 14.3085H1.49911C3.77581 19.906 11.0198 27.5662 17.6429 14.5052C19.6614 10.5247 21.0263 7.64272 22.0129 5.55943C24.2636 0.807049 24.5459 0.210942 26.1288 0.210938C27.9268 0.210933 33.1786 7.09511 35.043 14.5419C35.042 14.54 35.041 14.538 35.0399 14.5362C30.6736 7.79348 28.4462 4.29488 26.46 4.42727C24.2686 4.57335 22.371 9.13897 18.2185 18.6438C17.8661 19.2664 17.5349 19.9586 17.229 20.7247C16.9343 21.352 16.6133 22.1698 16.2627 23.0905C16.2094 23.2104 16.1558 23.331 16.1019 23.4522C8.85791 37.7572 2.74014 20.9427 1.49829 14.3085Z" fill="url(#paint0_linear_3069_4313)"/>
<path fill-rule="evenodd" clip-rule="evenodd" d="M16.3865 22.7876C16.3327 22.9074 16.1849 22.9227 16.1305 23.0437C8.80863 37.3275 2.71873 20.7066 1.46354 14.0823H0C2.09196 28.573 5.1007 33.5521 9.20463 33.5413C12.2945 33.5331 14.4994 27.7766 16.1143 23.5606C16.2069 23.3187 16.2977 23.0181 16.3865 22.7876Z" fill="url(#paint1_linear_3069_4313)"/>
<path d="M35.0384 14.539L35.0415 14.5448C35.5766 16.6818 35.8326 18.8652 35.648 20.9455H34.4062C32.0894 14.7571 23.1092 10.0027 18.217 18.6467C22.3695 9.14187 24.2672 4.57621 26.4585 4.43014C28.4447 4.29774 30.6721 7.79634 35.0384 14.539Z" fill="url(#paint2_linear_3069_4313)"/>
</g>
<path d="M35.0382 14.539L35.0413 14.5448C35.5763 16.6818 35.8324 18.8652 35.6478 20.9455H34.4059C32.0891 14.7571 23.109 10.0027 18.2168 18.6467C22.3692 9.14187 24.2669 4.57621 26.4582 4.43014C28.4444 4.29774 30.6718 7.79634 35.0382 14.539Z" fill="url(#paint3_linear_3069_4313)"/>
</g>
<defs>
<linearGradient id="paint0_linear_3069_4313" x1="10.878" y1="29.0562" x2="35.2454" y2="11.0925" gradientUnits="userSpaceOnUse">
<stop offset="0.665552" stop-color="#6200EE"/>
</linearGradient>
<linearGradient id="paint1_linear_3069_4313" x1="4.09497" y1="30.3356" x2="9.94609" y2="25.4673" gradientUnits="userSpaceOnUse">
<stop offset="0.193709" stop-color="#4400A6"/>
<stop offset="1" stop-color="#6200EE"/>
</linearGradient>
<linearGradient id="paint2_linear_3069_4313" x1="36.6572" y1="20.2927" x2="25.3221" y2="6.33146" gradientUnits="userSpaceOnUse">
<stop stop-color="#F55EF7"/>
<stop offset="0.0001" stop-color="#170618"/>
<stop offset="0.621542" stop-color="#E159E3" stop-opacity="0.82"/>
<stop offset="1" stop-color="#8D4B8E"/>
</linearGradient>
<linearGradient id="paint3_linear_3069_4313" x1="35.5896" y1="23.1716" x2="31.0089" y2="3.27215" gradientUnits="userSpaceOnUse">
<stop stop-color="#6200EE"/>
<stop offset="0.806291" stop-color="#4400A6"/>
</linearGradient>
<clipPath id="clip0_3069_4313">
<rect width="36.0132" height="34" fill="white"/>
</clipPath>
<clipPath id="clip1_3069_4313">
<rect width="36.0132" height="34" fill="white" transform="translate(0.000244141)"/>
</clipPath>
</defs>
</svg>
