<svg width="411" height="344" viewBox="0 0 411 344" fill="none" xmlns="http://www.w3.org/2000/svg">
<path d="M325.648 150.813C325.648 174.228 308.168 193.49 285.575 196.1C283.854 196.299 282.102 196.403 280.326 196.403H280.073V191.334H280.326C282.106 191.334 283.857 191.218 285.575 190.996C305.406 188.431 320.581 171.513 320.581 150.813C320.581 130.113 306.733 114.798 288.266 111.11C287.183 110.893 286.363 110 286.242 108.902C283.985 88.6055 267.468 73.4032 247.871 73.4032C239.858 73.4056 232.051 75.9931 225.507 80.8209C225.389 80.9096 225.263 80.9859 225.13 81.0524C223.877 81.6777 222.356 81.1681 221.728 79.9149C211.797 60.2615 192.212 48.0135 170.875 48.011C139.173 48.011 113.436 74.6046 113.438 107.587V107.799C113.443 109.175 112.35 110.305 110.974 110.347C89.2353 111.014 71.9797 128.759 71.9797 150.825C71.9797 171.528 87.1549 188.434 106.983 190.996C108.702 191.218 110.454 191.334 112.234 191.334H112.486V196.403H112.234C110.457 196.403 108.704 196.299 106.983 196.1C84.3927 193.49 66.9131 174.241 66.9131 150.825C66.9131 127.41 85.343 107.624 108.709 105.76C109.699 71.0201 136.959 42.9296 170.875 42.9296C193.308 42.9321 213.712 55.574 224.815 75.5278C231.748 71.0348 239.643 68.3243 247.871 68.3218C269.529 68.3243 287.542 84.8486 290.799 106.723C310.775 111.499 325.648 129.274 325.648 150.813Z" fill="#5109C9"/>
<path d="M274.818 134.663H117.739C111.808 134.663 106.982 139.488 106.982 145.419V261.23C106.982 262.749 108.216 263.98 109.735 263.98H282.825C284.341 263.98 285.575 262.749 285.575 261.23V145.419C285.575 139.488 280.747 134.663 274.818 134.663ZM112.485 258.48V145.419C112.485 142.521 114.843 140.163 117.739 140.163H274.818C277.716 140.163 280.072 142.521 280.072 145.419V258.48H112.485Z" fill="#5109C9"/>
<path d="M303.407 258.48H89.154C87.635 258.48 86.4041 259.711 86.4041 261.23V263.611C86.4041 273.8 94.6933 282.09 104.886 282.09H287.678C297.865 282.09 306.157 273.8 306.157 263.611V261.23C306.157 259.711 304.923 258.48 303.407 258.48ZM287.678 276.59H104.886C97.8495 276.59 92.1058 270.967 91.9089 263.98H300.65C300.453 270.967 294.709 276.59 287.678 276.59Z" fill="#5109C9"/>
<path d="M189.239 160.57H226.854V242.63H164.524V185.285C164.524 171.643 175.597 160.57 189.239 160.57Z" fill="#67DC7A"/>
<path d="M227.549 243.691H165.012C164.29 243.691 163.707 243.12 163.707 242.411V175.349C163.707 175.009 163.845 174.684 164.088 174.445L178.907 159.922C179.15 159.683 179.483 159.548 179.83 159.548H227.549C228.27 159.548 228.854 160.119 228.854 160.826V242.409C228.854 243.115 228.27 243.689 227.549 243.689V243.691ZM166.319 241.133H226.247V162.108H180.374L166.321 175.88V241.133H166.319Z" fill="#4F1DCF"/>
<path d="M179.833 176.629H165.015C164.488 176.629 164.01 176.316 163.808 175.838C163.606 175.361 163.717 174.809 164.091 174.445L178.91 159.922C179.284 159.555 179.845 159.447 180.333 159.644C180.82 159.841 181.138 160.309 181.138 160.826V175.348C181.138 176.055 180.554 176.626 179.833 176.626V176.629ZM168.163 174.071H178.526V163.915L168.163 174.071Z" fill="#4F1DCF"/>
<path d="M215.986 186.91H189.141C188.454 186.91 187.896 186.353 187.896 185.664C187.896 184.975 188.454 184.418 189.141 184.418H215.986C216.673 184.418 217.232 184.977 217.232 185.664C217.232 186.351 216.673 186.91 215.986 186.91Z" fill="white"/>
<path d="M215.986 201.063H177.891C177.204 201.063 176.645 200.504 176.645 199.818C176.645 199.131 177.204 198.572 177.891 198.572H215.986C216.673 198.572 217.232 199.128 217.232 199.818C217.232 200.507 216.673 201.063 215.986 201.063Z" fill="white"/>
<path d="M215.986 215.217H177.891C177.204 215.217 176.645 214.66 176.645 213.971C176.645 213.282 177.204 212.725 177.891 212.725H215.986C216.673 212.725 217.232 213.282 217.232 213.971C217.232 214.66 216.673 215.217 215.986 215.217Z" fill="white"/>
<path d="M202.16 229.368H177.891C177.204 229.368 176.645 228.811 176.645 228.122C176.645 227.433 177.204 226.876 177.891 226.876H202.16C202.847 226.876 203.406 227.435 203.406 228.122C203.406 228.809 202.847 229.368 202.16 229.368Z" fill="white"/>
<path d="M277.765 232.157C294.916 232.157 308.819 218.265 308.819 201.127C308.819 183.99 294.916 170.097 277.765 170.097C260.614 170.097 246.71 183.99 246.71 201.127C246.71 218.265 260.614 232.157 277.765 232.157Z" fill="white" stroke="#262626" stroke-width="0.984765" stroke-miterlimit="10"/>
<path d="M282.022 175.73H273.44V178.682H282.022V175.73Z" fill="#5109C9"/>
<path d="M277.417 222.029C287.67 222.029 295.982 213.717 295.982 203.464C295.982 193.21 287.67 184.898 277.417 184.898C267.164 184.898 258.852 193.21 258.852 203.464C258.852 213.717 267.164 222.029 277.417 222.029Z" stroke="#67DC7A" stroke-width="4.43144" stroke-miterlimit="10" stroke-linecap="round"/>
<path d="M277.827 220.911C268.095 220.911 260.18 212.994 260.18 203.264C260.18 193.535 268.098 185.617 277.827 185.617C287.557 185.617 295.474 193.535 295.474 203.264C295.474 212.994 287.557 220.911 277.827 220.911ZM277.827 187.185C268.962 187.185 261.748 194.399 261.748 203.264C261.748 212.13 268.962 219.343 277.827 219.343C286.693 219.343 293.906 212.13 293.906 203.264C293.906 194.399 286.693 187.185 277.827 187.185Z" fill="#181818"/>
<path d="M277.827 224.592C266.067 224.592 256.5 215.025 256.5 203.264C256.5 191.504 266.067 181.937 277.827 181.937C289.588 181.937 299.155 191.504 299.155 203.264C299.155 215.025 289.588 224.592 277.827 224.592ZM277.827 183.505C266.933 183.505 258.07 192.368 258.07 203.264C258.07 214.161 266.933 223.024 277.827 223.024C288.721 223.024 297.587 214.161 297.587 203.264C297.587 192.368 288.724 183.505 277.827 183.505Z" fill="#181818"/>
<path d="M282.514 180.031H273.144C272.71 180.031 272.358 179.679 272.358 179.246V175.309C272.358 174.876 272.71 174.524 273.144 174.524H282.514C282.947 174.524 283.299 174.876 283.299 175.309V179.246C283.299 179.679 282.947 180.031 282.514 180.031ZM273.929 178.463H281.731V176.095H273.929V178.463Z" fill="#181818"/>
<path d="M279.809 183.505H275.85C275.417 183.505 275.065 183.153 275.065 182.72V179.246C275.065 178.812 275.417 178.46 275.85 178.46H279.809C280.242 178.46 280.594 178.812 280.594 179.246V182.72C280.594 183.153 280.242 183.505 279.809 183.505ZM276.633 181.934H279.024V180.031H276.633V181.934Z" fill="#181818"/>
<path d="M263.027 189.8C262.825 189.8 262.626 189.724 262.473 189.571L259.327 186.425C259.022 186.119 259.022 185.622 259.327 185.314C259.632 185.007 260.13 185.007 260.437 185.314L263.584 188.461C263.891 188.766 263.891 189.263 263.584 189.571C263.431 189.724 263.229 189.8 263.03 189.8H263.027Z" fill="#181818"/>
<path d="M258.315 188.232C258.116 188.232 257.914 188.155 257.761 188.003C257.453 187.695 257.453 187.2 257.761 186.892L260.907 183.746C261.215 183.438 261.71 183.438 262.018 183.746C262.323 184.051 262.323 184.549 262.018 184.856L258.871 188.003C258.719 188.155 258.517 188.232 258.317 188.232H258.315Z" fill="#181818"/>
<path d="M292.649 189.8C292.447 189.8 292.247 189.724 292.095 189.571C291.787 189.266 291.787 188.768 292.095 188.461L295.241 185.314C295.546 185.007 296.043 185.007 296.351 185.314C296.659 185.62 296.659 186.117 296.351 186.425L293.205 189.571C293.052 189.724 292.85 189.8 292.651 189.8H292.649Z" fill="#181818"/>
<path d="M297.366 188.232C297.167 188.232 296.965 188.155 296.812 188.003L293.666 184.857C293.358 184.549 293.358 184.054 293.666 183.746C293.971 183.438 294.469 183.438 294.776 183.746L297.923 186.893C298.228 187.198 298.228 187.695 297.923 188.003C297.77 188.155 297.568 188.232 297.369 188.232H297.366Z" fill="#181818"/>
<path d="M277.827 204.047C277.775 204.047 277.723 204.042 277.671 204.032C277.433 203.983 277.231 203.828 277.125 203.611L272.44 194.158C272.248 193.769 272.405 193.298 272.794 193.106C273.183 192.914 273.654 193.072 273.846 193.461L278.08 202.009L282 198.628C282.327 198.345 282.822 198.382 283.107 198.71C283.39 199.037 283.354 199.534 283.026 199.818L278.341 203.86C278.198 203.983 278.014 204.05 277.829 204.05L277.827 204.047Z" fill="#181818"/>
<path d="M292.967 168.411L292.41 162.716" stroke="#67DC7A" stroke-width="1.72334" stroke-miterlimit="10" stroke-linecap="round"/>
<path d="M298.345 171.035L301.444 166.171" stroke="#67DC7A" stroke-width="1.72334" stroke-miterlimit="10" stroke-linecap="round"/>
<path d="M303.409 174.775L309.207 173.739" stroke="#67DC7A" stroke-width="1.72334" stroke-miterlimit="10" stroke-linecap="round"/>
<path d="M157.065 152.938C173.326 152.938 186.507 139.767 186.507 123.52C186.507 107.274 173.326 94.103 157.065 94.103C140.805 94.103 127.623 107.274 127.623 123.52C127.623 139.767 140.805 152.938 157.065 152.938Z" fill="white" stroke="#262626" stroke-width="0.984765" stroke-miterlimit="10"/>
<path d="M110.184 250.521C124.582 250.521 136.253 238.859 136.253 224.474C136.253 210.088 124.582 198.427 110.184 198.427C95.7863 198.427 84.1147 210.088 84.1147 224.474C84.1147 238.859 95.7863 250.521 110.184 250.521Z" fill="white" stroke="#262626" stroke-width="0.984765" stroke-miterlimit="10"/>
<path d="M172.656 129.764H168.821V133.55H172.656V129.764Z" fill="#5109C9"/>
<path d="M155.169 129.934H151.333V133.72H155.169V129.934Z" fill="#5109C9"/>
<path d="M146.811 121.337H142.976V125.123H146.811V121.337Z" fill="#67DC7A"/>
<path d="M176.133 110.44H139.281V115.27H176.133V110.44Z" fill="#67DC7A"/>
<path d="M175.591 139.323H139.758C138.876 139.323 138.16 138.607 138.16 137.723V115.753C138.16 115.433 138.421 115.172 138.741 115.172H176.61C176.93 115.172 177.191 115.433 177.191 115.753V137.723C177.191 138.604 176.475 139.323 175.591 139.323ZM139.319 116.334V137.723C139.319 137.964 139.516 138.161 139.758 138.161H175.591C175.832 138.161 176.029 137.964 176.029 137.723V116.334H139.319Z" fill="#181818"/>
<path d="M176.61 116.334H138.741C138.421 116.334 138.16 116.073 138.16 115.753V110.947C138.16 110.066 138.876 109.35 139.758 109.35H144.297C144.618 109.35 144.878 109.611 144.878 109.931V110.913C144.878 111.723 145.538 112.38 146.346 112.38C147.153 112.38 147.816 111.72 147.816 110.913V109.931C147.816 109.611 148.077 109.35 148.397 109.35H166.952C167.272 109.35 167.533 109.611 167.533 109.931V110.913C167.533 111.723 168.193 112.38 169 112.38C169.808 112.38 170.468 111.72 170.468 110.913V109.931C170.468 109.611 170.729 109.35 171.049 109.35H175.588C176.47 109.35 177.189 110.066 177.189 110.947V115.753C177.189 116.073 176.928 116.334 176.608 116.334H176.61ZM139.319 115.172H176.029V110.947C176.029 110.706 175.832 110.512 175.591 110.512H171.632V110.913C171.632 112.363 170.453 113.542 169.003 113.542C167.553 113.542 166.373 112.363 166.373 110.913V110.512H148.98V110.913C148.98 112.363 147.801 113.542 146.351 113.542C144.901 113.542 143.721 112.363 143.721 110.913V110.512H139.763C139.521 110.512 139.324 110.709 139.324 110.947V115.172H139.319Z" fill="#181818"/>
<path d="M146.347 113.542C144.897 113.542 143.717 112.363 143.717 110.913V108.414C143.717 106.964 144.897 105.785 146.347 105.785C147.797 105.785 148.976 106.964 148.976 108.414V110.913C148.976 112.363 147.797 113.542 146.347 113.542ZM146.347 106.944C145.537 106.944 144.879 107.604 144.879 108.412V110.91C144.879 111.72 145.539 112.378 146.347 112.378C147.154 112.378 147.816 111.718 147.816 110.91V108.412C147.816 107.602 147.157 106.944 146.347 106.944Z" fill="#181818"/>
<path d="M169 113.542C167.55 113.542 166.371 112.363 166.371 110.913V108.414C166.371 106.964 167.55 105.785 169 105.785C170.45 105.785 171.63 106.964 171.63 108.414V110.913C171.63 112.363 170.45 113.542 169 113.542ZM169 106.944C168.19 106.944 167.533 107.604 167.533 108.412V110.91C167.533 111.72 168.193 112.378 169 112.378C169.808 112.378 170.468 111.718 170.468 110.91V108.412C170.468 107.602 169.81 106.944 169 106.944Z" fill="#181818"/>
<path d="M147.035 125.793H142.611C142.291 125.793 142.03 125.532 142.03 125.212V120.788C142.03 120.468 142.291 120.207 142.611 120.207H147.035C147.355 120.207 147.616 120.468 147.616 120.788V125.212C147.616 125.532 147.355 125.793 147.035 125.793ZM143.192 124.631H146.454V121.369H143.192V124.631Z" fill="#181818"/>
<path d="M155.654 125.793H151.23C150.91 125.793 150.649 125.532 150.649 125.212V120.788C150.649 120.468 150.91 120.207 151.23 120.207H155.654C155.974 120.207 156.235 120.468 156.235 120.788V125.212C156.235 125.532 155.974 125.793 155.654 125.793ZM151.813 124.631H155.075V121.369H151.813V124.631Z" fill="#181818"/>
<path d="M164.275 125.793H159.851C159.531 125.793 159.27 125.532 159.27 125.212V120.788C159.27 120.468 159.531 120.207 159.851 120.207H164.275C164.595 120.207 164.856 120.468 164.856 120.788V125.212C164.856 125.532 164.595 125.793 164.275 125.793ZM160.432 124.631H163.694V121.369H160.432V124.631Z" fill="#181818"/>
<path d="M172.894 125.793H168.47C168.15 125.793 167.889 125.532 167.889 125.212V120.788C167.889 120.468 168.15 120.207 168.47 120.207H172.894C173.215 120.207 173.475 120.468 173.475 120.788V125.212C173.475 125.532 173.215 125.793 172.894 125.793ZM169.051 124.631H172.313V121.369H169.051V124.631Z" fill="#181818"/>
<path d="M147.035 134.412H142.611C142.291 134.412 142.03 134.151 142.03 133.831V129.407C142.03 129.087 142.291 128.826 142.611 128.826H147.035C147.355 128.826 147.616 129.087 147.616 129.407V133.831C147.616 134.151 147.355 134.412 147.035 134.412ZM143.192 133.25H146.454V129.988H143.192V133.25Z" fill="#181818"/>
<path d="M155.654 134.412H151.23C150.91 134.412 150.649 134.151 150.649 133.831V129.407C150.649 129.087 150.91 128.826 151.23 128.826H155.654C155.974 128.826 156.235 129.087 156.235 129.407V133.831C156.235 134.151 155.974 134.412 155.654 134.412ZM151.813 133.25H155.075V129.988H151.813V133.25Z" fill="#181818"/>
<path d="M164.275 134.412H159.851C159.531 134.412 159.27 134.151 159.27 133.831V129.407C159.27 129.087 159.531 128.826 159.851 128.826H164.275C164.595 128.826 164.856 129.087 164.856 129.407V133.831C164.856 134.151 164.595 134.412 164.275 134.412ZM160.432 133.25H163.694V129.988H160.432V133.25Z" fill="#181818"/>
<path d="M172.894 134.412H168.47C168.15 134.412 167.889 134.151 167.889 133.831V129.407C167.889 129.087 168.15 128.826 168.47 128.826H172.894C173.215 128.826 173.475 129.087 173.475 129.407V133.831C173.475 134.151 173.215 134.412 172.894 134.412ZM169.051 133.25H172.313V129.988H169.051V133.25Z" fill="#181818"/>
<path d="M117.659 217.851H102.735C101.575 217.851 100.632 218.794 100.632 219.953V234.878C100.632 236.037 101.575 236.98 102.735 236.98H117.659C118.818 236.98 119.761 236.037 119.761 234.878V219.953C119.761 218.794 118.818 217.851 117.659 217.851ZM118.36 234.878C118.36 235.262 118.043 235.579 117.659 235.579H102.735C102.35 235.579 102.033 235.262 102.033 234.878V219.953C102.033 219.569 102.35 219.252 102.735 219.252H117.659C118.043 219.252 118.36 219.569 118.36 219.953V234.878Z" fill="#4F1DCF" stroke="#4F1DCF" stroke-width="0.0615478" stroke-miterlimit="10"/>
<path d="M115.234 219.252C114.847 219.252 114.532 218.937 114.532 218.55V215.081C114.532 212.679 112.577 210.724 110.174 210.724C107.772 210.724 105.817 212.679 105.817 215.081V218.55C105.817 218.937 105.502 219.252 105.115 219.252C104.729 219.252 104.414 218.937 104.414 218.55V215.081C104.414 211.905 106.999 209.32 110.174 209.32C113.35 209.32 115.935 211.905 115.935 215.081V218.55C115.935 218.937 115.62 219.252 115.234 219.252Z" fill="#4F1DCF" stroke="#4F1DCF" stroke-width="0.0615478" stroke-miterlimit="10"/>
<path d="M114.342 232.261L112.249 227.608C113.059 226.972 113.552 226.01 113.552 224.959C113.552 223.097 112.03 221.576 110.169 221.576C108.308 221.576 106.796 223.097 106.796 224.959C106.796 226.01 107.279 226.972 108.098 227.608L106.006 232.261C105.907 232.48 105.929 232.731 106.06 232.928C106.19 233.125 106.409 233.245 106.651 233.245H113.692C113.933 233.245 114.152 233.125 114.283 232.928C114.413 232.731 114.435 232.48 114.337 232.261H114.342ZM107.739 231.844L109.632 227.63C109.785 227.28 109.632 226.886 109.305 226.709C108.625 226.369 108.199 225.702 108.199 224.956C108.199 223.86 109.086 222.974 110.171 222.974C111.257 222.974 112.153 223.86 112.153 224.956C112.153 225.7 111.727 226.369 111.048 226.709C110.708 226.884 110.565 227.278 110.72 227.63L111.301 228.91L112.616 231.844H107.744H107.739Z" fill="#4F1DCF" stroke="#4F1DCF" stroke-width="0.0615478" stroke-miterlimit="10"/>
</svg>
