<svg width="411" height="302" viewBox="0 0 411 302" fill="none" xmlns="http://www.w3.org/2000/svg">
<path d="M327.278 251.59H71.4846C61.1326 251.59 52.7087 243.167 52.7087 232.814V72.405C52.7087 62.053 61.1326 53.6292 71.4846 53.6292H327.278C337.633 53.6292 346.057 62.053 346.057 72.405V232.814C346.057 243.17 337.633 251.59 327.278 251.59ZM71.4846 61.4251C65.4321 61.4251 60.5079 66.3493 60.5079 72.4019V232.811C60.5079 238.864 65.4321 243.788 71.4846 243.788H327.278C333.33 243.788 338.255 238.864 338.255 232.811V72.4019C338.255 66.3493 333.33 61.4251 327.278 61.4251H71.4846Z" fill="#5109C9"/>
<path d="M344.122 188.244C366.326 188.244 384.326 170.259 384.326 148.073C384.326 125.887 366.326 107.901 344.122 107.901C321.919 107.901 303.919 125.887 303.919 148.073C303.919 170.259 321.919 188.244 344.122 188.244Z" fill="white" stroke="#262626" stroke-width="1.27489" stroke-miterlimit="10"/>
<path fill-rule="evenodd" clip-rule="evenodd" d="M351.937 162.756C351.937 162.756 348.9 163.47 350.283 164.857C351.666 166.24 354.168 169.236 354.93 168.92C355.692 168.605 361.852 161.819 361.852 161.819C361.852 161.819 362.076 159.496 360.648 160.525C359.22 161.551 356.762 164.949 355.198 165.261C353.633 165.574 351.937 162.759 351.937 162.759V162.756Z" fill="#67DC7A"/>
<path d="M218.237 284.065H180.526C178.371 284.065 176.628 282.318 176.628 280.164V247.689C176.628 245.535 178.375 243.788 180.526 243.788H218.237C220.392 243.788 222.138 245.535 222.138 247.689V280.164C222.138 282.318 220.392 284.065 218.237 284.065ZM184.427 276.266H214.339V251.59H184.427V276.266Z" fill="#5109C9"/>
<path d="M247.046 284.065H151.716C149.562 284.065 147.818 282.318 147.818 280.164C147.818 278.009 149.565 276.263 151.716 276.263H247.046C249.201 276.263 250.947 278.009 250.947 280.164C250.947 282.318 249.201 284.065 247.046 284.065Z" fill="#5109C9"/>
<path d="M78.6305 83.9682C78.0345 83.9682 77.4385 83.7227 77.0273 83.2957C76.5843 82.8845 76.3389 82.2885 76.3389 81.6765C76.3389 81.0646 76.5843 80.4845 77.0273 80.0574C77.5468 79.5379 78.3404 79.2925 79.0894 79.4327C79.2265 79.4646 79.3795 79.5092 79.5165 79.5698C79.6536 79.6304 79.7779 79.6909 79.9149 79.7833C80.036 79.8598 80.1444 79.9523 80.2496 80.0574C80.6767 80.4845 80.9221 81.0805 80.9221 81.6765C80.9221 81.8295 80.9062 81.9825 80.8775 82.1355C80.8488 82.2726 80.8169 82.4255 80.7564 82.5626C80.6958 82.6996 80.6193 82.8367 80.5428 82.961C80.4663 83.0821 80.3579 83.1905 80.2528 83.2988C80.1476 83.4072 80.0392 83.5124 79.9181 83.5889C79.7811 83.6813 79.6599 83.7419 79.5197 83.8024C79.3827 83.863 79.2297 83.9108 79.0926 83.9395C78.9396 83.9554 78.7867 83.9713 78.6337 83.9713L78.6305 83.9682Z" fill="#5109C9"/>
<path d="M97.0111 83.9682C96.8581 83.9682 96.7051 83.9522 96.568 83.9204C96.4151 83.9044 96.278 83.8598 96.141 83.7992C96.0039 83.7387 95.8637 83.6781 95.7426 83.5857C95.6214 83.5092 95.4971 83.4008 95.392 83.3116C95.2836 83.2064 95.1944 83.0821 95.1019 82.961C95.0254 82.8399 94.9489 82.7028 94.9043 82.5626C94.8438 82.4255 94.7991 82.2726 94.7673 82.1355C94.7386 81.9825 94.7227 81.8295 94.7227 81.6766C94.7227 81.5395 94.7386 81.3865 94.7673 81.2335C94.7991 81.0965 94.8438 80.9435 94.9043 80.8064C94.9489 80.6694 95.0254 80.5323 95.1019 80.408C95.1944 80.2837 95.2868 80.1626 95.392 80.0574C95.5003 79.9491 95.6214 79.8598 95.7426 79.7833C95.8637 79.6909 96.0007 79.6304 96.141 79.5698C96.278 79.5092 96.4151 79.4614 96.568 79.4327C96.8581 79.3722 97.1641 79.3722 97.4509 79.4327C97.6039 79.4646 97.7441 79.5092 97.8939 79.5698C98.0342 79.6304 98.1521 79.6909 98.2764 79.7833C98.4166 79.8598 98.5218 79.9523 98.6302 80.0574C98.7385 80.1658 98.8278 80.2869 98.9202 80.408C98.9967 80.5291 99.0732 80.6662 99.121 80.8064C99.1816 80.9435 99.2262 81.0965 99.2581 81.2335C99.2867 81.3865 99.3027 81.5395 99.3027 81.6766C99.3027 81.8295 99.2867 81.9825 99.2581 82.1355C99.2262 82.2726 99.1816 82.4255 99.121 82.5626C99.0764 82.6996 98.9999 82.8367 98.9202 82.961C98.831 83.0821 98.7385 83.2064 98.6302 83.3116C98.5218 83.404 98.4166 83.5092 98.2764 83.5857C98.1553 83.6781 98.0342 83.7387 97.8939 83.7992C97.7409 83.8598 97.6039 83.9076 97.4509 83.9204C97.3139 83.9522 97.1609 83.9682 97.0079 83.9682H97.0111Z" fill="#5109C9"/>
<path d="M87.8285 83.9809C87.2165 83.9809 86.6205 83.7196 86.2094 83.2925C85.7823 82.8813 85.5369 82.2853 85.5369 81.6734C85.5369 81.5363 85.5528 81.3833 85.5815 81.2303C85.6102 81.0933 85.658 80.9403 85.7026 80.8033C85.7632 80.6662 85.8397 80.5292 85.9161 80.4049C86.0086 80.2806 86.101 80.1594 86.2062 80.0543C86.7257 79.5347 87.5193 79.2893 88.2683 79.4296C88.4213 79.4614 88.5583 79.5061 88.6954 79.5666C88.8324 79.6272 88.9695 79.6877 89.0906 79.7802C89.2117 79.8566 89.336 79.9491 89.4444 80.0543C89.5496 80.1626 89.642 80.2837 89.7185 80.4049C89.8109 80.526 89.8874 80.663 89.932 80.8033C89.9926 80.9403 90.0404 81.0933 90.0723 81.2303C90.101 81.3833 90.1169 81.5363 90.1169 81.6734C90.1169 82.2853 89.8715 82.8813 89.4444 83.2925C89.336 83.4008 89.2149 83.506 89.0906 83.5825C88.9695 83.6749 88.8324 83.7355 88.6954 83.7961C88.5583 83.8566 88.4213 83.9044 88.2683 83.9331C88.1153 83.965 87.9783 83.9777 87.8253 83.9777L87.8285 83.9809Z" fill="#5109C9"/>
<path d="M142.512 213.318H116.721C114.672 213.318 113.008 211.655 113.008 209.605V178.89C113.008 176.837 114.672 175.177 116.721 175.177H142.512C144.562 175.177 146.225 176.841 146.225 178.89V209.605C146.225 211.658 144.562 213.318 142.512 213.318ZM120.435 205.889H138.796V182.606H120.435V205.889Z" fill="#67DC7A"/>
<path d="M186.741 213.318H160.95C158.898 213.318 157.237 211.655 157.237 209.605V142.036C157.237 139.984 158.901 138.32 160.95 138.32H186.741C188.794 138.32 190.458 139.984 190.458 142.036V209.605C190.458 211.658 188.794 213.318 186.741 213.318ZM164.664 205.889H183.025V145.749H164.664V205.889Z" fill="#5109C9"/>
<path d="M230.967 213.318H205.176C203.124 213.318 201.46 211.655 201.46 209.605V161.692C201.46 159.639 203.124 157.975 205.176 157.975H230.967C233.02 157.975 234.684 159.639 234.684 161.692V209.605C234.684 211.658 233.02 213.318 230.967 213.318ZM208.889 205.889H227.251V165.408H208.889V205.889Z" fill="#67DC7A"/>
<path d="M275.197 213.318H249.406C247.353 213.318 245.689 211.655 245.689 209.605V117.463C245.689 115.41 247.353 113.746 249.406 113.746H275.197C277.249 113.746 278.913 115.41 278.913 117.463V209.605C278.913 211.658 277.249 213.318 275.197 213.318ZM253.119 205.889H271.48V121.179H253.119V205.889Z" fill="#5109C9"/>
<path d="M187.006 145.666H162.274V207.852H187.006V145.666Z" fill="#5109C9"/>
<path d="M142.433 181.593H118.819V211.259H142.433V181.593Z" fill="#67DC7A"/>
<path d="M230.833 164.64H207.825V209.446H230.833V164.64Z" fill="#67DC7A"/>
<path d="M275.467 118.505H247.285V209.596H275.467V118.505Z" fill="#5109C9"/>
<path d="M342.156 217.184H56.6099C54.4553 217.184 52.7087 215.438 52.7087 213.283C52.7087 211.129 54.4553 209.385 56.6099 209.385H342.156C344.307 209.385 346.057 211.132 346.057 213.283C346.057 215.435 344.31 217.184 342.156 217.184Z" fill="#5109C9"/>
<path d="M66.5825 184.095C88.7863 184.095 106.786 166.109 106.786 143.923C106.786 121.737 88.7863 103.751 66.5825 103.751C44.3786 103.751 26.3789 121.737 26.3789 143.923C26.3789 166.109 44.3786 184.095 66.5825 184.095Z" fill="white" stroke="#262626" stroke-width="1.27489" stroke-miterlimit="10"/>
<path d="M162.317 98.1226C184.521 98.1226 202.52 80.1372 202.52 57.951C202.52 35.7648 184.521 17.7793 162.317 17.7793C140.113 17.7793 122.113 35.7648 122.113 57.951C122.113 80.1372 140.113 98.1226 162.317 98.1226Z" fill="white" stroke="#262626" stroke-width="1.27489" stroke-miterlimit="10"/>
<path d="M76.3801 121.013H54.7644C52.0552 125.271 47.1565 130.69 42.3374 132.729V137.456C42.3374 140.382 42.4999 143.308 42.825 146.215C43.727 154.301 48.0298 161.615 54.6464 166.339C58.5603 169.134 62.7388 171.862 65.5722 173.013C68.4056 171.862 72.5841 169.131 76.498 166.339C83.1146 161.615 87.4174 154.301 88.3194 146.215C88.6445 143.305 88.807 140.382 88.807 137.456V132.729C83.9816 130.412 79.0892 125.271 76.3801 121.013Z" stroke="#181818" stroke-width="2.23105" stroke-linecap="round" stroke-linejoin="round"/>
<path d="M75.0259 137.686C74.994 137.686 74.9621 137.682 74.9303 137.676L56.0237 133.281C55.7974 133.23 55.6572 133.004 55.7113 132.777C55.7655 132.551 55.9918 132.411 56.2149 132.465L75.1215 136.86C75.3478 136.911 75.488 137.137 75.4338 137.364C75.3892 137.558 75.2171 137.689 75.0259 137.689V137.686Z" fill="#181818" stroke="#181818" stroke-width="0.637443" stroke-miterlimit="10"/>
<path d="M75.0228 160.802H56.0174C55.7847 160.802 55.5967 160.614 55.5967 160.382C55.5967 158.858 56.8365 157.618 58.36 157.618H72.677C74.2005 157.618 75.4403 158.858 75.4403 160.382C75.4403 160.614 75.2522 160.802 75.0196 160.802H75.0228ZM56.4859 159.964H74.5606C74.3694 159.104 73.5981 158.46 72.6833 158.46H58.3664C57.4485 158.46 56.6803 159.104 56.4891 159.964H56.4859Z" fill="#181818" stroke="#181818" stroke-width="0.637443" stroke-miterlimit="10"/>
<path d="M66.3853 157.596H64.6578C64.4251 157.596 64.2371 157.392 64.2371 157.144V132.312C64.2371 132.13 64.3391 131.965 64.4952 131.894C64.6514 131.824 64.8299 131.859 64.951 131.987C65.1199 132.165 65.3398 132.261 65.5725 132.261C65.8243 132.261 66.0092 132.143 66.1239 132.047C66.2514 131.939 66.4235 131.917 66.5669 131.993C66.7135 132.07 66.806 132.226 66.806 132.401V157.14C66.806 157.389 66.6179 157.593 66.3853 157.593V157.596ZM65.0753 156.691H65.9645V133.118C65.6745 133.192 65.359 133.182 65.0753 133.09V156.688V156.691Z" fill="#181818" stroke="#181818" stroke-width="0.637443" stroke-miterlimit="10"/>
<path d="M65.5727 133.074C65.1201 133.074 64.6898 132.898 64.3647 132.58C64.0301 132.251 63.8452 131.815 63.8452 131.346C63.8452 130.393 64.6197 129.619 65.5727 129.619C66.5257 129.619 67.3002 130.393 67.3002 131.346C67.3002 131.869 67.0611 132.36 66.65 132.691C66.3376 132.943 65.9647 133.074 65.5727 133.074ZM65.5727 130.457C65.0818 130.457 64.6835 130.855 64.6835 131.346C64.6835 131.585 64.7791 131.812 64.9512 131.981C65.1201 132.146 65.34 132.235 65.5727 132.235C65.8245 132.235 66.0093 132.127 66.1241 132.035C66.3376 131.863 66.4619 131.611 66.4619 131.346C66.4619 130.855 66.0635 130.457 65.5727 130.457Z" fill="#181818" stroke="#181818" stroke-width="0.637443" stroke-miterlimit="10"/>
<path d="M51.8673 144.35C52.5526 144.172 60.374 144.35 60.374 144.35C60.374 144.35 61.1358 146.116 60.2179 147.034C59.2999 147.952 56.9796 149.408 55.7366 149.086C54.4936 148.761 52.39 147.897 52.065 146.874C51.7399 145.848 51.8642 144.353 51.8642 144.353L51.8673 144.35Z" fill="#67DC7A"/>
<path d="M70.7226 148.796C71.4078 148.618 79.2293 148.796 79.2293 148.796C79.2293 148.796 79.991 150.562 79.0731 151.48C78.1552 152.398 75.8349 153.854 74.5919 153.532C73.3488 153.211 71.2453 152.344 70.9202 151.321C70.5951 150.297 70.7194 148.799 70.7194 148.799L70.7226 148.796Z" fill="#67DC7A"/>
<path d="M56.1188 149.823C53.3109 149.823 51.0256 147.537 51.0256 144.729V143.929C51.0256 143.697 51.2137 143.509 51.4463 143.509H60.7913C61.0239 143.509 61.212 143.697 61.212 143.929V144.729C61.212 147.537 58.9267 149.823 56.1188 149.823ZM51.8671 144.35V144.733C51.8671 147.078 53.7762 148.984 56.1188 148.984C58.4614 148.984 60.3706 147.075 60.3706 144.733V144.35H51.8639H51.8671Z" fill="#181818" stroke="#181818" stroke-width="0.637443" stroke-miterlimit="10"/>
<path d="M60.7754 144.372H51.4623C51.3221 144.372 51.1914 144.302 51.1117 144.184C51.0352 144.066 51.0193 143.92 51.0735 143.789L55.73 132.707C55.7969 132.551 55.9467 132.449 56.1157 132.449C56.2846 132.449 56.4376 132.551 56.5013 132.707L61.1578 143.789C61.212 143.92 61.1993 144.066 61.1196 144.184C61.0431 144.302 60.9092 144.372 60.769 144.372H60.7754ZM52.0934 143.534H60.1411L56.1157 133.957L52.0902 143.534H52.0934Z" fill="#181818" stroke="#181818" stroke-width="0.637443" stroke-miterlimit="10"/>
<path d="M75.0229 154.24C72.2149 154.24 69.9297 151.955 69.9297 149.147V148.347C69.9297 148.114 70.1177 147.926 70.3504 147.926H79.6953C79.928 147.926 80.116 148.114 80.116 148.347V149.147C80.116 151.955 77.8308 154.24 75.0229 154.24ZM70.7711 148.768V149.15C70.7711 151.496 72.6803 153.402 75.0229 153.402C77.3687 153.402 79.2746 151.493 79.2746 149.15V148.768H70.7679H70.7711Z" fill="#181818" stroke="#181818" stroke-width="0.637443" stroke-miterlimit="10"/>
<path d="M79.6789 148.768H70.3659C70.2256 148.768 70.095 148.697 70.0153 148.579C69.9388 148.462 69.9229 148.315 69.977 148.184L74.6336 137.102C74.7005 136.946 74.8503 136.844 75.0192 136.844C75.1881 136.844 75.3411 136.946 75.4049 137.102L80.0614 148.184C80.1156 148.315 80.1028 148.462 80.0231 148.579C79.9467 148.697 79.8128 148.768 79.6726 148.768H79.6789ZM71.0001 147.926H79.0479L75.0224 138.349L70.997 147.926H71.0001Z" fill="#181818" stroke="#181818" stroke-width="0.637443" stroke-miterlimit="10"/>
<path d="M173.463 52.8165C171.943 51.2962 169.829 50.3496 167.506 50.3496C165.183 50.3496 163.092 51.2962 161.549 52.8165C160.038 54.3368 159.101 56.4404 159.101 58.7639C159.101 61.0873 160.038 63.2005 161.549 64.7208C163.092 66.2411 165.183 67.1877 167.506 67.1877C169.829 67.1877 171.943 66.2411 173.463 64.7208C174.974 63.2005 175.92 61.0873 175.92 58.7639C175.92 56.4404 174.974 54.3368 173.463 52.8165ZM172.618 63.8539C171.318 65.167 169.504 65.9893 167.506 65.9893C165.508 65.9893 163.716 65.167 162.413 63.8539C161.1 62.5535 160.3 60.7495 160.3 58.7607C160.3 56.7719 161.103 54.9583 162.413 53.6484C163.713 52.348 165.517 51.5448 167.506 51.5448C169.495 51.5448 171.318 52.348 172.618 53.6484C173.919 54.9615 174.722 56.7623 174.722 58.7607C174.722 60.7591 173.919 62.5503 172.618 63.8539Z" fill="#181818" stroke="#181818" stroke-width="0.0796804" stroke-miterlimit="10"/>
<path d="M177.693 64.4275C178.91 62.2507 179.379 59.7838 179.066 57.3679C178.786 54.8691 177.68 52.4404 175.745 50.5249C175.713 50.493 175.672 50.4612 175.64 50.4197C175.254 50.0436 174.859 49.7122 174.442 49.3998C172.389 47.8795 169.954 47.1082 167.506 47.1082C164.539 47.1082 161.549 48.2524 159.267 50.5249C156.998 52.7942 155.851 55.7838 155.851 58.7639C155.851 61.7439 156.995 64.7431 159.267 67.0124C161.192 68.9183 163.621 70.0339 166.129 70.3335C168.526 70.6139 171.003 70.155 173.17 68.9598L173.96 69.7406C174.107 69.8872 174.263 70.002 174.438 70.0849C174.719 70.241 175.031 70.3143 175.344 70.3143C175.449 70.3143 175.541 70.3048 175.634 70.2825C175.799 70.2729 175.956 70.2187 176.102 70.1582C176.332 70.0657 176.552 69.9191 176.727 69.7406L177.062 69.4187V69.4092L178.164 68.3255L178.499 67.9909C178.677 67.8028 178.811 67.5861 178.894 67.3662C178.999 67.1176 179.05 66.8562 179.05 66.5949C179.05 66.0945 178.872 65.5941 178.499 65.2212L177.686 64.4307L177.693 64.4275ZM175.889 68.896C175.847 68.9279 175.806 68.9693 175.764 68.9885H175.755C175.63 69.0713 175.493 69.1128 175.35 69.1128C175.162 69.1128 174.964 69.0395 174.818 68.8928L173.371 67.4363L172.953 67.6849C170.923 68.9343 168.558 69.4123 166.257 69.1542C164.016 68.8833 161.843 67.8825 160.121 66.1455C158.082 64.1056 157.071 61.4475 157.071 58.7607C157.071 56.0739 158.082 53.4189 160.121 51.3663C162.161 49.3265 164.839 48.3034 167.506 48.3034C170.174 48.3034 172.87 49.3233 174.91 51.3663C176.618 53.0938 177.619 55.2611 177.89 57.5113C178.161 59.8029 177.683 62.1774 176.443 64.2172L176.195 64.6124L177.642 66.0594C177.788 66.2156 177.862 66.3941 177.862 66.5917C177.862 66.7893 177.788 66.9869 177.642 67.1335L176.768 68.0195L175.895 68.8928L175.889 68.896Z" fill="#181818" stroke="#181818" stroke-width="0.0796804" stroke-miterlimit="10"/>
<path d="M187.7 75.1238H187.691L182.932 70.3653C182.432 69.8649 181.765 69.6035 181.109 69.5844H181.036C180.43 69.5844 179.828 69.782 179.35 70.1677L179.13 70.3653C179.056 70.4386 178.996 70.5119 178.942 70.5725C178.524 71.0728 178.317 71.6657 178.317 72.2808V72.3637C178.339 73.0298 178.61 73.6959 179.13 74.1963L183.879 78.9453C184.15 79.2353 184.526 79.3628 184.879 79.3628C185.255 79.3628 185.619 79.2385 185.899 78.9453L187.7 77.1445C187.971 76.8736 188.118 76.4975 188.118 76.1437C188.118 75.7676 187.971 75.4043 187.7 75.1238ZM186.846 76.2999L185.045 78.1007C185.004 78.1421 184.93 78.174 184.879 78.174V78.1644C184.828 78.1644 184.755 78.1421 184.723 78.1007L179.965 73.3517C179.684 73.0489 179.515 72.676 179.515 72.2776C179.515 71.8792 179.681 71.5063 179.965 71.2258C180.255 70.9135 180.64 70.7764 181.026 70.7764C181.412 70.7764 181.807 70.9103 182.1 71.2258L186.849 75.9748C186.9 76.0162 186.922 76.0672 186.922 76.1405C186.922 76.1915 186.9 76.2457 186.849 76.2967L186.846 76.2999Z" fill="#181818" stroke="#181818" stroke-width="0.0796804" stroke-miterlimit="10"/>
<path d="M181.106 69.5844L178.897 67.3661L178.107 66.5757L177.68 67.1175C177.377 67.4203 177.064 67.7231 176.762 68.0227C176.459 68.3127 176.147 68.6155 175.844 68.9183L175.761 68.9916H175.751L175.315 69.3677L178.314 72.3669L178.939 73.0011L179.302 72.1788C179.375 72.0131 179.458 71.8569 179.573 71.6784C179.697 71.5127 179.821 71.3661 179.958 71.229V71.2067C180.105 71.0601 180.261 70.9358 180.427 70.8306C180.583 70.7254 180.749 70.633 180.927 70.5597L181.731 70.2059L181.106 69.5812V69.5844ZM179.127 70.3653C179.053 70.4386 178.993 70.5119 178.939 70.5725C178.814 70.7063 178.709 70.8338 178.626 70.9581L177.064 69.4155V69.4059L178.158 68.3127L178.167 68.3223L179.71 69.8649C179.586 69.9573 179.461 70.0529 179.347 70.1677L179.127 70.3653Z" fill="#181818" stroke="#181818" stroke-width="0.0796804" stroke-miterlimit="10"/>
<path d="M175.64 69.6863V74.7444C175.64 75.2799 175.426 75.7452 175.085 76.1022C174.728 76.4432 174.263 76.6567 173.727 76.6567H144.985C144.466 76.6567 143.984 76.4432 143.627 76.1022C143.286 75.7452 143.073 75.2799 143.073 74.7444V36.2428C143.073 35.7074 143.286 35.2229 143.627 34.8851C143.984 34.5281 144.469 34.3146 144.985 34.3146H173.727C174.263 34.3146 174.728 34.5281 175.085 34.8851C175.426 35.2261 175.64 35.7074 175.64 36.2428V50.6873H174.441V36.2428C174.441 36.0452 174.371 35.8508 174.228 35.7233C174.103 35.599 173.925 35.5098 173.727 35.5098H144.985C144.787 35.5098 144.609 35.599 144.485 35.7233H144.466C144.341 35.8476 144.268 36.0261 144.268 36.2428V74.7444C144.268 74.942 144.338 75.1205 144.466 75.2639H144.485C144.609 75.3882 144.787 75.4615 144.985 75.4615H173.727C173.925 75.4615 174.103 75.3914 174.228 75.248C174.371 75.1237 174.441 74.9452 174.441 74.7476V69.6895H175.64V69.6863Z" fill="#181818" stroke="#181818" stroke-width="0.0796804" stroke-miterlimit="10"/>
<path d="M148.147 41.3552C147.806 41.3552 147.538 41.0875 147.538 40.7464C147.538 40.4245 147.806 40.1568 148.147 40.1568H170.562C170.903 40.1568 171.171 40.4245 171.171 40.7464C171.171 41.0875 170.903 41.3552 170.562 41.3552H148.147Z" fill="#181818" stroke="#181818" stroke-width="0.0796804" stroke-miterlimit="10"/>
<path d="M148.147 45.5559C147.806 45.5559 147.538 45.2882 147.538 44.9663C147.538 44.6253 147.806 44.3575 148.147 44.3575H170.562C170.903 44.3575 171.171 44.6253 171.171 44.9663C171.171 45.2882 170.903 45.5559 170.562 45.5559H148.147Z" fill="#181818" stroke="#181818" stroke-width="0.0796804" stroke-miterlimit="10"/>
<path d="M148.147 49.7758C147.806 49.7758 147.538 49.5081 147.538 49.167C147.538 48.8451 147.806 48.5774 148.147 48.5774H156.87C157.211 48.5774 157.479 48.8451 157.479 49.167C157.479 49.5081 157.211 49.7758 156.87 49.7758H148.147Z" fill="#181818" stroke="#181818" stroke-width="0.0796804" stroke-miterlimit="10"/>
<path d="M148.147 53.9925C147.806 53.9925 147.538 53.7248 147.538 53.3837C147.538 53.0618 147.806 52.775 148.147 52.775H154.241C154.562 52.775 154.83 53.0618 154.83 53.3837C154.83 53.7248 154.562 53.9925 154.241 53.9925H148.147Z" fill="#181818" stroke="#181818" stroke-width="0.0796804" stroke-miterlimit="10"/>
<path d="M148.147 58.1932C147.806 58.1932 147.538 57.9255 147.538 57.6036C147.538 57.2625 147.806 56.9948 148.147 56.9948H153.24C153.581 56.9948 153.849 57.2625 153.849 57.6036C153.849 57.9255 153.581 58.1932 153.24 58.1932H148.147Z" fill="#181818" stroke="#181818" stroke-width="0.0796804" stroke-miterlimit="10"/>
<path d="M148.147 62.4131C147.806 62.4131 147.538 62.1454 147.538 61.8044C147.538 61.4824 147.806 61.2147 148.147 61.2147H153.527C153.849 61.2147 154.116 61.4824 154.116 61.8044C154.116 62.1454 153.849 62.4131 153.527 62.4131H148.147Z" fill="#181818" stroke="#181818" stroke-width="0.0796804" stroke-miterlimit="10"/>
<path d="M148.147 66.6139C147.806 66.6139 147.538 66.3461 147.538 66.0242C147.538 65.6832 147.806 65.4155 148.147 65.4155H155.171C155.493 65.4155 155.761 65.6832 155.761 66.0242C155.761 66.3461 155.493 66.6139 155.171 66.6139H148.147Z" fill="#181818" stroke="#181818" stroke-width="0.0796804" stroke-miterlimit="10"/>
<path d="M148.147 70.8305C147.806 70.8305 147.538 70.5628 147.538 70.2218C147.538 69.8999 147.806 69.6321 148.147 69.6321H158.926C159.267 69.6321 159.535 69.8999 159.535 70.2218C159.535 70.5628 159.267 70.8305 158.926 70.8305H148.147Z" fill="#181818" stroke="#181818" stroke-width="0.0796804" stroke-miterlimit="10"/>
<path d="M167.573 66.0115C171.556 66.0115 174.785 62.7822 174.785 58.7988C174.785 54.8153 171.556 51.5861 167.573 51.5861C163.589 51.5861 160.36 54.8153 160.36 58.7988C160.36 62.7822 163.589 66.0115 167.573 66.0115Z" fill="#67DC7A"/>
<path d="M164.252 59.4808C164 59.2673 163.965 58.8912 164.181 58.6394C164.379 58.3717 164.752 58.3366 165.023 58.5502L167.008 60.2139L170.406 56.0132C170.62 55.7614 170.996 55.7104 171.247 55.9239C171.515 56.1215 171.55 56.4944 171.337 56.7653L167.566 61.4474C167.353 61.6991 166.977 61.7342 166.725 61.5175L164.258 59.4808H164.252Z" fill="white" stroke="white" stroke-width="0.0796804" stroke-miterlimit="10"/>
<path fill-rule="evenodd" clip-rule="evenodd" d="M324.479 154.068C323.717 154.068 323.102 154.686 323.102 155.448C323.102 155.945 323.363 156.379 323.759 156.621C324.007 156.774 324.154 157.042 324.154 157.332V160.707C324.154 160.885 324.3 161.032 324.479 161.032C324.657 161.032 324.804 160.885 324.804 160.707V157.332C324.804 157.042 324.957 156.774 325.202 156.621C325.594 156.379 325.856 155.942 325.856 155.448C325.856 154.686 325.238 154.068 324.479 154.068ZM324.479 152.401C326.162 152.401 327.526 153.768 327.526 155.448C327.526 156.369 327.121 157.195 326.474 157.752V160.707C326.474 161.806 325.575 162.702 324.479 162.702C323.383 162.702 322.484 161.806 322.484 160.707V157.752C321.84 157.195 321.432 156.369 321.432 155.448C321.432 153.765 322.796 152.401 324.479 152.401ZM316.868 151.203C316.702 151.203 316.568 151.336 316.568 151.502V163.601C316.568 163.767 316.702 163.9 316.868 163.9H332.087C332.253 163.9 332.386 163.767 332.386 163.601V151.502C332.386 151.336 332.253 151.203 332.087 151.203H316.868ZM354.139 166.186L351.953 163.999C351.714 163.76 351.322 163.757 351.083 163.999C350.844 164.241 350.84 164.63 351.083 164.873L354.295 168.088C354.538 168.331 354.93 168.331 355.169 168.088C357.106 166.151 359.019 164.194 360.95 162.246C361.189 162.004 361.189 161.615 360.95 161.376C360.708 161.137 360.319 161.137 360.08 161.376L355.325 166.179C355.169 166.336 354.955 166.425 354.735 166.428C354.512 166.428 354.302 166.342 354.139 166.183V166.186ZM356.016 173.685C360.944 173.685 364.966 169.666 364.966 164.739C364.966 159.811 360.947 155.789 356.016 155.789C351.086 155.789 347.064 159.811 347.064 164.739C347.064 169.666 351.089 173.685 356.016 173.685ZM335.488 152.822C335.025 152.822 334.653 152.449 334.653 151.987C334.653 151.525 335.025 151.152 335.488 151.152H351.899C352.361 151.152 352.734 151.525 352.734 151.987C352.734 152.449 352.361 152.822 351.899 152.822H335.488ZM334.41 137.361C333.948 137.361 333.575 136.988 333.575 136.525C333.575 136.063 333.948 135.69 334.41 135.69H346.962C347.424 135.69 347.797 136.063 347.797 136.525C347.797 136.988 347.424 137.361 346.962 137.361H334.41ZM334.41 147.665C333.948 147.665 333.575 147.292 333.575 146.83C333.575 146.368 333.948 145.995 334.41 145.995H351.899C352.361 145.995 352.734 146.368 352.734 146.83C352.734 147.292 352.361 147.665 351.899 147.665H334.41ZM334.41 142.514C333.948 142.514 333.575 142.141 333.575 141.679C333.575 141.217 333.948 140.844 334.41 140.844H351.899C352.361 140.844 352.734 141.217 352.734 141.679C352.734 142.141 352.361 142.514 351.899 142.514H334.41ZM360.545 129.15L358.608 127.209V129.15H360.545ZM355.908 133.781L353.973 131.843V133.781H355.908ZM333.843 128.994H353.138C353.355 128.994 353.569 129.083 353.725 129.239L358.515 134.027C358.671 134.183 358.757 134.396 358.757 134.616V154.479C359.822 154.766 360.816 155.212 361.725 155.792V130.82H357.769C357.307 130.82 356.934 130.447 356.934 129.985V126.03H333.84V128.997L333.843 128.994ZM331.529 149.533H332.09C333.177 149.533 334.06 150.419 334.06 151.502V163.601C334.06 164.688 333.177 165.571 332.09 165.571H329.212V167.292H345.709C345.505 166.473 345.397 165.618 345.397 164.739C345.397 164.194 345.441 163.655 345.518 163.132H335.488C335.025 163.132 334.653 162.759 334.653 162.297C334.653 161.835 335.025 161.462 335.488 161.462H345.913C346.334 160.175 346.99 158.995 347.838 157.975H335.488C335.025 157.975 334.653 157.603 334.653 157.14C334.653 156.678 335.025 156.305 335.488 156.305H349.572C351.357 154.932 353.597 154.116 356.016 154.116C356.377 154.116 356.737 154.135 357.091 154.17V135.448H353.142C352.679 135.448 352.307 135.075 352.307 134.613V130.661H329.212V142.54C330.633 143.834 331.529 145.695 331.529 147.757V149.533ZM321.945 149.533H327.016V147.757C327.016 146.364 325.869 145.22 324.479 145.22C323.089 145.22 321.945 146.364 321.945 147.757V149.533ZM319.099 149.533H320.278V147.757C320.278 145.45 322.178 143.55 324.482 143.55C326.786 143.55 328.689 145.446 328.689 147.757V149.533H329.862V147.757C329.862 144.796 327.443 142.374 324.482 142.374C321.521 142.374 319.102 144.796 319.102 147.757V149.533H319.099ZM327.542 165.571H316.868C315.781 165.571 314.898 164.688 314.898 163.601V151.502C314.898 150.419 315.781 149.533 316.868 149.533H317.429V147.757C317.429 143.878 320.6 140.707 324.479 140.707C325.575 140.707 326.618 140.959 327.542 141.411V129.829C327.542 129.367 327.915 128.994 328.377 128.994H332.176V125.195C332.176 124.733 332.549 124.36 333.011 124.36H357.773C357.996 124.36 358.206 124.449 358.362 124.605L363.146 129.396C363.302 129.552 363.395 129.765 363.395 129.985V157.112C365.39 159.043 366.633 161.749 366.633 164.736C366.633 170.584 361.865 175.352 356.016 175.352C351.666 175.352 347.911 172.716 346.273 168.959H328.377C327.915 168.959 327.542 168.586 327.542 168.124V165.567V165.571ZM354.732 164.414L358.895 160.203C359.787 159.311 361.234 159.304 362.123 160.194C363.019 161.08 363.022 162.527 362.136 163.422C360.208 165.37 358.289 167.33 356.348 169.271C355.456 170.163 354.009 170.163 353.119 169.271L349.903 166.055C349.011 165.163 349.011 163.722 349.903 162.823C350.796 161.931 352.246 161.931 353.135 162.823L354.729 164.417L354.732 164.414Z" fill="#363636"/>
</svg>
