<svg width="387" height="302" viewBox="0 0 387 302" fill="none" xmlns="http://www.w3.org/2000/svg">
<path d="M290.732 48.2252H101.804V74.4813H290.732V48.2252Z" fill="#67DC7A"/>
<path d="M50.176 109.097H330.986" stroke="#262626" stroke-width="1.03687" stroke-miterlimit="10"/>
<path d="M196.297 74.4839V108.776" stroke="#262626" stroke-width="1.03687" stroke-miterlimit="10"/>
<path d="M50.6968 108.592V147.469" stroke="#262626" stroke-width="1.03687" stroke-miterlimit="10"/>
<path d="M143.954 108.638V147.516" stroke="#262626" stroke-width="1.03687" stroke-miterlimit="10"/>
<path d="M241.704 108.939V147.817" stroke="#262626" stroke-width="1.03687" stroke-miterlimit="10"/>
<path d="M330.457 108.835V147.713" stroke="#262626" stroke-width="1.03687" stroke-miterlimit="10"/>
<path d="M39.0314 237.885C39.3333 237.939 39.5895 238.098 39.7997 238.362C40.01 238.626 40.1151 238.925 40.1151 239.259C40.1151 239.545 40.0397 239.804 39.8887 240.036C39.7431 240.262 39.5301 240.443 39.2498 240.578C38.9694 240.707 38.6432 240.772 38.2712 240.772H36.0228V235.151H38.166C38.5488 235.151 38.8777 235.216 39.1527 235.345C39.4277 235.474 39.6353 235.65 39.7755 235.871C39.9157 236.086 39.9857 236.329 39.9857 236.599C39.9857 236.922 39.8995 237.192 39.7269 237.407C39.5544 237.623 39.3226 237.782 39.0314 237.885ZM36.9448 237.513H38.0852C38.3871 237.513 38.6216 237.445 38.7888 237.31C38.9613 237.17 39.0476 236.971 39.0476 236.712C39.0476 236.458 38.9613 236.262 38.7888 236.121C38.6216 235.976 38.3871 235.903 38.0852 235.903H36.9448V237.513ZM38.1903 240.02C38.503 240.02 38.7483 239.944 38.9263 239.793C39.1042 239.642 39.1932 239.432 39.1932 239.162C39.1932 238.887 39.0988 238.669 38.9101 238.507C38.7214 238.346 38.4707 238.265 38.1579 238.265H36.9448V240.02H38.1903ZM45.1528 236.316V240.772H44.2308V240.246C44.0852 240.429 43.8938 240.575 43.6566 240.683C43.4247 240.785 43.1767 240.837 42.9125 240.837C42.562 240.837 42.2466 240.764 41.9663 240.618C41.6913 240.473 41.4729 240.257 41.3112 239.971C41.1548 239.685 41.0766 239.34 41.0766 238.936V236.316H41.9905V238.798C41.9905 239.197 42.0903 239.505 42.2898 239.72C42.4892 239.931 42.7615 240.036 43.1066 240.036C43.4517 240.036 43.724 239.931 43.9234 239.72C44.1283 239.505 44.2308 239.197 44.2308 238.798V236.316H45.1528ZM47.9868 240.845C47.6363 240.845 47.3209 240.783 47.0405 240.659C46.7655 240.529 46.5472 240.357 46.3854 240.141C46.2237 239.92 46.1374 239.675 46.1266 239.405H47.081C47.0971 239.594 47.1861 239.753 47.3478 239.882C47.515 240.006 47.7226 240.068 47.9706 240.068C48.2294 240.068 48.4289 240.02 48.5691 239.923C48.7146 239.82 48.7874 239.691 48.7874 239.534C48.7874 239.367 48.7066 239.243 48.5448 239.162C48.3884 239.082 48.1377 238.993 47.7927 238.896C47.4584 238.804 47.1861 238.715 46.9758 238.629C46.7655 238.542 46.5822 238.41 46.4259 238.232C46.2749 238.054 46.1994 237.82 46.1994 237.529C46.1994 237.291 46.2695 237.076 46.4097 236.882C46.5499 236.682 46.7494 236.526 47.0082 236.413C47.2724 236.299 47.5743 236.243 47.914 236.243C48.4208 236.243 48.8279 236.372 49.1352 236.631C49.4479 236.884 49.6151 237.232 49.6366 237.674H48.7146C48.6985 237.475 48.6176 237.316 48.472 237.197C48.3264 237.079 48.1296 237.019 47.8816 237.019C47.639 237.019 47.453 237.065 47.3236 237.157C47.1942 237.248 47.1295 237.37 47.1295 237.521C47.1295 237.639 47.1726 237.739 47.2589 237.82C47.3451 237.901 47.4503 237.965 47.5743 238.014C47.6983 238.057 47.8816 238.114 48.1242 238.184C48.4478 238.27 48.7119 238.359 48.9168 238.451C49.1271 238.537 49.3077 238.666 49.4587 238.839C49.6097 239.011 49.6878 239.241 49.6932 239.526C49.6932 239.78 49.6231 240.006 49.483 240.206C49.3428 240.405 49.1433 240.562 48.8845 240.675C48.6311 240.788 48.3318 240.845 47.9868 240.845ZM51.1585 235.725C50.9914 235.725 50.8512 235.669 50.738 235.555C50.6248 235.442 50.5682 235.302 50.5682 235.135C50.5682 234.968 50.6248 234.827 50.738 234.714C50.8512 234.601 50.9914 234.544 51.1585 234.544C51.3203 234.544 51.4578 234.601 51.571 234.714C51.6842 234.827 51.7409 234.968 51.7409 235.135C51.7409 235.302 51.6842 235.442 51.571 235.555C51.4578 235.669 51.3203 235.725 51.1585 235.725ZM51.6114 236.316V240.772H50.6895V236.316H51.6114ZM55.0703 236.243C55.4207 236.243 55.7335 236.316 56.0084 236.461C56.2888 236.607 56.5072 236.822 56.6635 237.108C56.8199 237.394 56.8981 237.739 56.8981 238.143V240.772H55.9842V238.281C55.9842 237.882 55.8844 237.577 55.6849 237.367C55.4854 237.151 55.2132 237.043 54.8681 237.043C54.523 237.043 54.248 237.151 54.0432 237.367C53.8437 237.577 53.7439 237.882 53.7439 238.281V240.772H52.8219V236.316H53.7439V236.825C53.8949 236.642 54.0863 236.499 54.3181 236.396C54.5554 236.294 54.8061 236.243 55.0703 236.243ZM62.1583 238.435C62.1583 238.602 62.1476 238.753 62.126 238.887H58.7211C58.7481 239.243 58.8802 239.529 59.1174 239.745C59.3547 239.96 59.6458 240.068 59.9909 240.068C60.4869 240.068 60.8374 239.861 61.0423 239.445H62.037C61.9022 239.855 61.6569 240.192 61.3011 240.456C60.9506 240.715 60.5139 240.845 59.9909 240.845C59.5649 240.845 59.1821 240.75 58.8424 240.562C58.5082 240.367 58.244 240.098 58.0499 239.753C57.8611 239.402 57.7668 238.998 57.7668 238.54C57.7668 238.081 57.8585 237.68 58.0418 237.335C58.2305 236.984 58.492 236.715 58.8263 236.526C59.1659 236.337 59.5541 236.243 59.9909 236.243C60.4114 236.243 60.7862 236.334 61.1151 236.518C61.4439 236.701 61.7001 236.96 61.8834 237.294C62.0667 237.623 62.1583 238.003 62.1583 238.435ZM61.1959 238.143C61.1905 237.804 61.0692 237.531 60.832 237.327C60.5947 237.122 60.3009 237.019 59.9504 237.019C59.6323 237.019 59.36 237.122 59.1336 237.327C58.9071 237.526 58.7723 237.798 58.7292 238.143H61.1959ZM64.6832 240.845C64.3327 240.845 64.0173 240.783 63.7369 240.659C63.462 240.529 63.2436 240.357 63.0818 240.141C62.9201 239.92 62.8338 239.675 62.823 239.405H63.7774C63.7936 239.594 63.8825 239.753 64.0443 239.882C64.2114 240.006 64.419 240.068 64.667 240.068C64.9258 240.068 65.1253 240.02 65.2655 239.923C65.4111 239.82 65.4839 239.691 65.4839 239.534C65.4839 239.367 65.403 239.243 65.2412 239.162C65.0849 239.082 64.8342 238.993 64.4891 238.896C64.1548 238.804 63.8825 238.715 63.6722 238.629C63.462 238.542 63.2786 238.41 63.1223 238.232C62.9713 238.054 62.8958 237.82 62.8958 237.529C62.8958 237.291 62.9659 237.076 63.1061 236.882C63.2463 236.682 63.4458 236.526 63.7046 236.413C63.9688 236.299 64.2707 236.243 64.6104 236.243C65.1172 236.243 65.5243 236.372 65.8316 236.631C66.1443 236.884 66.3115 237.232 66.3331 237.674H65.4111C65.3949 237.475 65.314 237.316 65.1684 237.197C65.0229 237.079 64.8261 237.019 64.5781 237.019C64.3354 237.019 64.1494 237.065 64.02 237.157C63.8906 237.248 63.8259 237.37 63.8259 237.521C63.8259 237.639 63.869 237.739 63.9553 237.82C64.0416 237.901 64.1467 237.965 64.2707 238.014C64.3947 238.057 64.5781 238.114 64.8207 238.184C65.1442 238.27 65.4084 238.359 65.6133 238.451C65.8235 238.537 66.0042 238.666 66.1551 238.839C66.3061 239.011 66.3843 239.241 66.3897 239.526C66.3897 239.78 66.3196 240.006 66.1794 240.206C66.0392 240.405 65.8397 240.562 65.5809 240.675C65.3275 240.788 65.0283 240.845 64.6832 240.845ZM69.0034 240.845C68.6529 240.845 68.3375 240.783 68.0572 240.659C67.7822 240.529 67.5638 240.357 67.4021 240.141C67.2403 239.92 67.1541 239.675 67.1433 239.405H68.0976C68.1138 239.594 68.2027 239.753 68.3645 239.882C68.5316 240.006 68.7392 240.068 68.9872 240.068C69.246 240.068 69.4455 240.02 69.5857 239.923C69.7313 239.82 69.8041 239.691 69.8041 239.534C69.8041 239.367 69.7232 239.243 69.5615 239.162C69.4051 239.082 69.1544 238.993 68.8093 238.896C68.475 238.804 68.2027 238.715 67.9925 238.629C67.7822 238.542 67.5989 238.41 67.4425 238.232C67.2915 238.054 67.2161 237.82 67.2161 237.529C67.2161 237.291 67.2861 237.076 67.4263 236.882C67.5665 236.682 67.766 236.526 68.0248 236.413C68.289 236.299 68.5909 236.243 68.9306 236.243C69.4374 236.243 69.8445 236.372 70.1518 236.631C70.4646 236.884 70.6317 237.232 70.6533 237.674H69.7313C69.7151 237.475 69.6342 237.316 69.4887 237.197C69.3431 237.079 69.1463 237.019 68.8983 237.019C68.6556 237.019 68.4696 237.065 68.3402 237.157C68.2108 237.248 68.1461 237.37 68.1461 237.521C68.1461 237.639 68.1893 237.739 68.2755 237.82C68.3618 237.901 68.4669 237.965 68.5909 238.014C68.715 238.057 68.8983 238.114 69.1409 238.184C69.4644 238.27 69.7286 238.359 69.9335 238.451C70.1438 238.537 70.3244 238.666 70.4753 238.839C70.6263 239.011 70.7045 239.241 70.7099 239.526C70.7099 239.78 70.6398 240.006 70.4996 240.206C70.3594 240.405 70.1599 240.562 69.9011 240.675C69.6477 240.788 69.3485 240.845 69.0034 240.845Z" fill="#262626"/>
<path d="M32.3991 250.534C31.8761 250.534 31.3935 250.412 30.9514 250.17C30.5147 249.922 30.1669 249.579 29.9081 249.142C29.6547 248.7 29.528 248.204 29.528 247.654C29.528 247.104 29.6547 246.611 29.9081 246.174C30.1669 245.738 30.5147 245.398 30.9514 245.155C31.3935 244.907 31.8761 244.783 32.3991 244.783C32.9275 244.783 33.41 244.907 33.8468 245.155C34.2889 245.398 34.6367 245.738 34.8901 246.174C35.1435 246.611 35.2702 247.104 35.2702 247.654C35.2702 248.204 35.1435 248.7 34.8901 249.142C34.6367 249.579 34.2889 249.922 33.8468 250.17C33.41 250.412 32.9275 250.534 32.3991 250.534ZM32.3991 249.733C32.7711 249.733 33.1027 249.649 33.3939 249.482C33.685 249.31 33.9115 249.067 34.0732 248.754C34.2404 248.436 34.3239 248.07 34.3239 247.654C34.3239 247.239 34.2404 246.875 34.0732 246.563C33.9115 246.25 33.685 246.01 33.3939 245.843C33.1027 245.676 32.7711 245.592 32.3991 245.592C32.0271 245.592 31.6955 245.676 31.4043 245.843C31.1132 246.01 30.884 246.25 30.7169 246.563C30.5551 246.875 30.4742 247.239 30.4742 247.654C30.4742 248.07 30.5551 248.436 30.7169 248.754C30.884 249.067 31.1132 249.31 31.4043 249.482C31.6955 249.649 32.0271 249.733 32.3991 249.733ZM40.2131 246.021V250.477H39.2912V249.951C39.1456 250.135 38.9542 250.28 38.7169 250.388C38.4851 250.49 38.2371 250.542 37.9729 250.542C37.6224 250.542 37.307 250.469 37.0266 250.323C36.7517 250.178 36.5333 249.962 36.3715 249.676C36.2152 249.39 36.137 249.045 36.137 248.641V246.021H37.0509V248.504C37.0509 248.903 37.1506 249.21 37.3501 249.426C37.5496 249.636 37.8219 249.741 38.167 249.741C38.5121 249.741 38.7843 249.636 38.9838 249.426C39.1887 249.21 39.2912 248.903 39.2912 248.504V246.021H40.2131ZM42.5053 246.773V249.24C42.5053 249.407 42.543 249.528 42.6185 249.603C42.6994 249.674 42.8342 249.709 43.0229 249.709H43.589V250.477H42.8611C42.446 250.477 42.1279 250.38 41.9068 250.186C41.6857 249.992 41.5752 249.676 41.5752 249.24V246.773H41.0495V246.021H41.5752V244.913H42.5053V246.021H43.589V246.773H42.5053ZM46.0563 250.55C45.7058 250.55 45.3904 250.488 45.1101 250.364C44.8351 250.234 44.6167 250.062 44.455 249.846C44.2932 249.625 44.2069 249.38 44.1962 249.11H45.1505C45.1667 249.299 45.2556 249.458 45.4174 249.587C45.5845 249.711 45.7921 249.773 46.0401 249.773C46.2989 249.773 46.4984 249.725 46.6386 249.628C46.7842 249.525 46.857 249.396 46.857 249.24C46.857 249.072 46.7761 248.948 46.6143 248.868C46.458 248.787 46.2073 248.698 45.8622 248.601C45.5279 248.509 45.2556 248.42 45.0453 248.334C44.8351 248.247 44.6518 248.115 44.4954 247.937C44.3444 247.76 44.2689 247.525 44.2689 247.234C44.2689 246.997 44.339 246.781 44.4792 246.587C44.6194 246.387 44.8189 246.231 45.0777 246.118C45.3419 246.004 45.6438 245.948 45.9835 245.948C46.4903 245.948 46.8974 246.077 47.2047 246.336C47.5175 246.589 47.6846 246.937 47.7062 247.379H46.7842C46.768 247.18 46.6871 247.021 46.5416 246.902C46.396 246.784 46.1992 246.724 45.9512 246.724C45.7085 246.724 45.5225 246.77 45.3931 246.862C45.2637 246.953 45.199 247.075 45.199 247.226C45.199 247.344 45.2421 247.444 45.3284 247.525C45.4147 247.606 45.5198 247.671 45.6438 247.719C45.7678 247.762 45.9512 247.819 46.1938 247.889C46.5173 247.975 46.7815 248.064 46.9864 248.156C47.1966 248.242 47.3773 248.371 47.5282 248.544C47.6792 248.717 47.7574 248.946 47.7628 249.231C47.7628 249.485 47.6927 249.711 47.5525 249.911C47.4123 250.11 47.2128 250.267 46.954 250.38C46.7006 250.493 46.4014 250.55 46.0563 250.55ZM50.6919 250.55C50.2714 250.55 49.8913 250.455 49.5516 250.267C49.2119 250.073 48.945 249.803 48.7509 249.458C48.5568 249.107 48.4598 248.703 48.4598 248.245C48.4598 247.792 48.5595 247.39 48.759 247.04C48.9585 246.689 49.2308 246.42 49.5758 246.231C49.9209 246.042 50.3064 245.948 50.7324 245.948C51.1583 245.948 51.5438 246.042 51.8889 246.231C52.234 246.42 52.5062 246.689 52.7057 247.04C52.9052 247.39 53.005 247.792 53.005 248.245C53.005 248.698 52.9025 249.099 52.6977 249.45C52.4928 249.8 52.2124 250.073 51.8565 250.267C51.5061 250.455 51.1179 250.55 50.6919 250.55ZM50.6919 249.749C50.9292 249.749 51.1502 249.692 51.3551 249.579C51.5654 249.466 51.7352 249.296 51.8646 249.07C51.994 248.843 52.0587 248.568 52.0587 248.245C52.0587 247.921 51.9967 247.649 51.8727 247.428C51.7487 247.201 51.5843 247.032 51.3794 246.918C51.1745 246.805 50.9534 246.749 50.7162 246.749C50.479 246.749 50.2579 246.805 50.053 246.918C49.8535 247.032 49.6945 247.201 49.5758 247.428C49.4572 247.649 49.3979 247.921 49.3979 248.245C49.3979 248.725 49.5192 249.097 49.7619 249.361C50.0099 249.62 50.3199 249.749 50.6919 249.749ZM57.9521 246.021V250.477H57.0301V249.951C56.8846 250.135 56.6931 250.28 56.4559 250.388C56.2241 250.49 55.9761 250.542 55.7119 250.542C55.3614 250.542 55.046 250.469 54.7656 250.323C54.4906 250.178 54.2723 249.962 54.1105 249.676C53.9542 249.39 53.876 249.045 53.876 248.641V246.021H54.7899V248.504C54.7899 248.903 54.8896 249.21 55.0891 249.426C55.2886 249.636 55.5609 249.741 55.906 249.741C56.251 249.741 56.5233 249.636 56.7228 249.426C56.9277 249.21 57.0301 248.903 57.0301 248.504V246.021H57.9521ZM60.0906 246.668C60.2254 246.441 60.4033 246.266 60.6244 246.142C60.8508 246.013 61.1177 245.948 61.425 245.948V246.902H61.1905C60.8293 246.902 60.5543 246.994 60.3656 247.177C60.1822 247.361 60.0906 247.679 60.0906 248.132V250.477H59.1686V246.021H60.0906V246.668ZM61.9652 248.245C61.9652 247.786 62.0569 247.385 62.2402 247.04C62.4289 246.689 62.6877 246.42 63.0166 246.231C63.3455 246.042 63.7229 245.948 64.1488 245.948C64.688 245.948 65.1328 246.077 65.4833 246.336C65.8391 246.589 66.0791 246.953 66.2031 247.428H65.2083C65.1274 247.207 64.998 247.034 64.8201 246.91C64.6422 246.786 64.4184 246.724 64.1488 246.724C63.7714 246.724 63.4695 246.859 63.243 247.129C63.022 247.393 62.9114 247.765 62.9114 248.245C62.9114 248.725 63.022 249.099 63.243 249.369C63.4695 249.639 63.7714 249.773 64.1488 249.773C64.6826 249.773 65.0358 249.539 65.2083 249.07H66.2031C66.0737 249.523 65.8311 249.884 65.4752 250.153C65.1194 250.418 64.6772 250.55 64.1488 250.55C63.7229 250.55 63.3455 250.455 63.0166 250.267C62.6877 250.073 62.4289 249.803 62.2402 249.458C62.0569 249.107 61.9652 248.703 61.9652 248.245ZM67.591 245.43C67.4239 245.43 67.2837 245.374 67.1704 245.26C67.0572 245.147 67.0006 245.007 67.0006 244.84C67.0006 244.673 67.0572 244.533 67.1704 244.419C67.2837 244.306 67.4239 244.249 67.591 244.249C67.7527 244.249 67.8902 244.306 68.0035 244.419C68.1167 244.533 68.1733 244.673 68.1733 244.84C68.1733 245.007 68.1167 245.147 68.0035 245.26C67.8902 245.374 67.7527 245.43 67.591 245.43ZM68.0439 246.021V250.477H67.1219V246.021H68.0439ZM71.5027 245.948C71.8532 245.948 72.1659 246.021 72.4409 246.166C72.7213 246.312 72.9396 246.527 73.096 246.813C73.2523 247.099 73.3305 247.444 73.3305 247.848V250.477H72.4166V247.986C72.4166 247.587 72.3169 247.282 72.1174 247.072C71.9179 246.856 71.6456 246.749 71.3005 246.749C70.9555 246.749 70.6805 246.856 70.4756 247.072C70.2761 247.282 70.1764 247.587 70.1764 247.986V250.477H69.2544V246.021H70.1764V246.53C70.3273 246.347 70.5187 246.204 70.7506 246.102C70.9878 245.999 71.2385 245.948 71.5027 245.948ZM76.302 245.948C76.6471 245.948 76.9517 246.018 77.2159 246.158C77.4855 246.293 77.6958 246.463 77.8467 246.668V246.021H78.7768V250.55C78.7768 250.959 78.6905 251.323 78.518 251.642C78.3455 251.965 78.0948 252.218 77.7659 252.402C77.4424 252.585 77.0542 252.677 76.6013 252.677C75.9974 252.677 75.496 252.534 75.097 252.248C74.698 251.968 74.4715 251.585 74.4176 251.1H75.3315C75.4016 251.332 75.5499 251.518 75.7763 251.658C76.0082 251.803 76.2831 251.876 76.6013 251.876C76.9733 251.876 77.2725 251.763 77.499 251.536C77.7308 251.31 77.8467 250.981 77.8467 250.55V249.806C77.6904 250.016 77.4774 250.194 77.2078 250.339C76.9436 250.48 76.6417 250.55 76.302 250.55C75.9138 250.55 75.558 250.453 75.2345 250.259C74.9163 250.059 74.6629 249.784 74.4742 249.434C74.2909 249.078 74.1992 248.676 74.1992 248.229C74.1992 247.781 74.2909 247.385 74.4742 247.04C74.6629 246.695 74.9163 246.428 75.2345 246.239C75.558 246.045 75.9138 245.948 76.302 245.948ZM77.8467 248.245C77.8467 247.937 77.782 247.671 77.6526 247.444C77.5286 247.218 77.3642 247.045 77.1593 246.926C76.9544 246.808 76.7334 246.749 76.4961 246.749C76.2589 246.749 76.0378 246.808 75.8329 246.926C75.628 247.04 75.4609 247.21 75.3315 247.436C75.2075 247.657 75.1455 247.921 75.1455 248.229C75.1455 248.536 75.2075 248.805 75.3315 249.037C75.4609 249.269 75.628 249.447 75.8329 249.571C76.0432 249.69 76.2643 249.749 76.4961 249.749C76.7334 249.749 76.9544 249.69 77.1593 249.571C77.3642 249.453 77.5286 249.28 77.6526 249.054C77.782 248.822 77.8467 248.552 77.8467 248.245Z" fill="#262626"/>
<path d="M140.167 240.028L138.873 237.78H138.169V240.028H137.247V234.407H139.188C139.619 234.407 139.983 234.482 140.28 234.633C140.582 234.784 140.805 234.987 140.951 235.24C141.102 235.493 141.178 235.776 141.178 236.089C141.178 236.456 141.07 236.79 140.854 237.092C140.644 237.389 140.318 237.591 139.875 237.699L141.266 240.028H140.167ZM138.169 237.044H139.188C139.533 237.044 139.792 236.957 139.964 236.785C140.142 236.612 140.231 236.38 140.231 236.089C140.231 235.798 140.145 235.572 139.972 235.41C139.8 235.243 139.538 235.159 139.188 235.159H138.169V237.044ZM142.826 234.981C142.659 234.981 142.519 234.925 142.405 234.811C142.292 234.698 142.236 234.558 142.236 234.391C142.236 234.224 142.292 234.083 142.405 233.97C142.519 233.857 142.659 233.8 142.826 233.8C142.988 233.8 143.125 233.857 143.239 233.97C143.352 234.083 143.408 234.224 143.408 234.391C143.408 234.558 143.352 234.698 143.239 234.811C143.125 234.925 142.988 234.981 142.826 234.981ZM143.279 235.572V240.028H142.357V235.572H143.279ZM146.107 240.101C145.756 240.101 145.441 240.039 145.161 239.915C144.886 239.785 144.667 239.613 144.506 239.397C144.344 239.176 144.258 238.931 144.247 238.661H145.201C145.217 238.85 145.306 239.009 145.468 239.138C145.635 239.262 145.843 239.324 146.091 239.324C146.35 239.324 146.549 239.276 146.689 239.179C146.835 239.076 146.908 238.947 146.908 238.79C146.908 238.623 146.827 238.499 146.665 238.418C146.509 238.338 146.258 238.249 145.913 238.152C145.579 238.06 145.306 237.971 145.096 237.885C144.886 237.798 144.702 237.666 144.546 237.488C144.395 237.31 144.32 237.076 144.32 236.785C144.32 236.548 144.39 236.332 144.53 236.138C144.67 235.938 144.87 235.782 145.128 235.669C145.393 235.555 145.694 235.499 146.034 235.499C146.541 235.499 146.948 235.628 147.255 235.887C147.568 236.14 147.735 236.488 147.757 236.93H146.835C146.819 236.731 146.738 236.572 146.592 236.453C146.447 236.335 146.25 236.275 146.002 236.275C145.759 236.275 145.573 236.321 145.444 236.413C145.314 236.504 145.25 236.626 145.25 236.777C145.25 236.895 145.293 236.995 145.379 237.076C145.465 237.157 145.57 237.221 145.694 237.27C145.818 237.313 146.002 237.37 146.244 237.44C146.568 237.526 146.832 237.615 147.037 237.707C147.247 237.793 147.428 237.922 147.579 238.095C147.73 238.267 147.808 238.497 147.813 238.782C147.813 239.036 147.743 239.262 147.603 239.462C147.463 239.661 147.263 239.818 147.005 239.931C146.751 240.044 146.452 240.101 146.107 240.101ZM150.573 237.804L152.627 240.028H151.382L149.732 238.111V240.028H148.81V234.043H149.732V237.521L151.349 235.572H152.627L150.573 237.804ZM159.732 240.028L159.036 239.332C158.767 239.602 158.473 239.804 158.155 239.939C157.837 240.068 157.481 240.133 157.087 240.133C156.688 240.133 156.335 240.063 156.028 239.923C155.72 239.783 155.483 239.583 155.316 239.324C155.149 239.06 155.065 238.755 155.065 238.41C155.065 238.022 155.176 237.677 155.397 237.375C155.618 237.068 155.947 236.825 156.383 236.647C156.227 236.459 156.117 236.283 156.052 236.122C155.987 235.954 155.955 235.771 155.955 235.572C155.955 235.324 156.017 235.103 156.141 234.908C156.27 234.714 156.454 234.561 156.691 234.447C156.928 234.334 157.203 234.278 157.516 234.278C157.834 234.278 158.103 234.34 158.325 234.464C158.551 234.582 158.718 234.747 158.826 234.957C158.939 235.167 158.985 235.402 158.963 235.661H158.041C158.047 235.461 157.998 235.307 157.896 235.2C157.793 235.086 157.653 235.03 157.475 235.03C157.297 235.03 157.152 235.084 157.039 235.191C156.931 235.294 156.877 235.421 156.877 235.572C156.877 235.717 156.917 235.863 156.998 236.008C157.084 236.149 157.233 236.332 157.443 236.558L158.931 238.038L159.505 237.092H160.5L159.772 238.338L159.57 238.669L160.937 240.028H159.732ZM157.087 239.349C157.594 239.349 158.041 239.141 158.43 238.726L156.942 237.23C156.305 237.483 155.987 237.866 155.987 238.378C155.987 238.653 156.09 238.885 156.295 239.074C156.499 239.257 156.764 239.349 157.087 239.349Z" fill="#262626"/>
<path d="M125.073 246.91C125.073 246.36 125.199 245.867 125.453 245.43C125.712 244.994 126.059 244.654 126.496 244.411C126.938 244.163 127.421 244.039 127.944 244.039C128.542 244.039 129.073 244.188 129.537 244.484C130.006 244.775 130.346 245.19 130.556 245.73H129.448C129.302 245.433 129.1 245.212 128.841 245.066C128.583 244.921 128.283 244.848 127.944 244.848C127.572 244.848 127.24 244.932 126.949 245.099C126.658 245.266 126.429 245.506 126.262 245.819C126.1 246.131 126.019 246.495 126.019 246.91C126.019 247.326 126.1 247.689 126.262 248.002C126.429 248.315 126.658 248.558 126.949 248.73C127.24 248.897 127.572 248.981 127.944 248.981C128.283 248.981 128.583 248.908 128.841 248.762C129.1 248.617 129.302 248.396 129.448 248.099H130.556C130.346 248.638 130.006 249.054 129.537 249.345C129.073 249.636 128.542 249.781 127.944 249.781C127.415 249.781 126.933 249.66 126.496 249.418C126.059 249.17 125.712 248.827 125.453 248.39C125.199 247.954 125.073 247.46 125.073 246.91ZM133.568 249.806C133.148 249.806 132.768 249.711 132.428 249.523C132.088 249.329 131.821 249.059 131.627 248.714C131.433 248.363 131.336 247.959 131.336 247.501C131.336 247.048 131.436 246.646 131.635 246.296C131.835 245.945 132.107 245.676 132.452 245.487C132.797 245.298 133.183 245.204 133.609 245.204C134.035 245.204 134.42 245.298 134.765 245.487C135.11 245.676 135.382 245.945 135.582 246.296C135.781 246.646 135.881 247.048 135.881 247.501C135.881 247.954 135.779 248.355 135.574 248.706C135.369 249.056 135.089 249.329 134.733 249.523C134.382 249.711 133.994 249.806 133.568 249.806ZM133.568 249.005C133.805 249.005 134.026 248.948 134.231 248.835C134.442 248.722 134.611 248.552 134.741 248.326C134.87 248.099 134.935 247.824 134.935 247.501C134.935 247.177 134.873 246.905 134.749 246.684C134.625 246.457 134.461 246.288 134.256 246.174C134.051 246.061 133.83 246.005 133.592 246.005C133.355 246.005 133.134 246.061 132.929 246.174C132.73 246.288 132.571 246.457 132.452 246.684C132.333 246.905 132.274 247.177 132.274 247.501C132.274 247.981 132.395 248.353 132.638 248.617C132.886 248.876 133.196 249.005 133.568 249.005ZM142.187 245.204C142.538 245.204 142.85 245.277 143.125 245.422C143.406 245.568 143.624 245.784 143.78 246.069C143.942 246.355 144.023 246.7 144.023 247.104V249.733H143.109V247.242C143.109 246.843 143.009 246.538 142.81 246.328C142.61 246.112 142.338 246.005 141.993 246.005C141.648 246.005 141.373 246.112 141.168 246.328C140.969 246.538 140.869 246.843 140.869 247.242V249.733H139.955V247.242C139.955 246.843 139.855 246.538 139.656 246.328C139.456 246.112 139.184 246.005 138.839 246.005C138.494 246.005 138.219 246.112 138.014 246.328C137.814 246.538 137.715 246.843 137.715 247.242V249.733H136.793V245.277H137.715V245.786C137.866 245.603 138.057 245.46 138.289 245.358C138.521 245.255 138.769 245.204 139.033 245.204C139.389 245.204 139.707 245.279 139.987 245.43C140.268 245.581 140.483 245.8 140.634 246.085C140.769 245.816 140.979 245.603 141.265 245.447C141.551 245.285 141.858 245.204 142.187 245.204ZM146.118 245.932C146.275 245.727 146.487 245.554 146.757 245.414C147.027 245.274 147.331 245.204 147.671 245.204C148.059 245.204 148.412 245.301 148.73 245.495C149.054 245.684 149.307 245.951 149.491 246.296C149.674 246.641 149.766 247.037 149.766 247.485C149.766 247.932 149.674 248.334 149.491 248.69C149.307 249.04 149.054 249.315 148.73 249.515C148.412 249.709 148.059 249.806 147.671 249.806C147.331 249.806 147.029 249.738 146.765 249.604C146.501 249.463 146.285 249.291 146.118 249.086V251.852H145.196V245.277H146.118V245.932ZM148.827 247.485C148.827 247.177 148.763 246.913 148.633 246.692C148.509 246.466 148.342 246.296 148.132 246.182C147.927 246.064 147.706 246.005 147.469 246.005C147.237 246.005 147.016 246.064 146.806 246.182C146.601 246.301 146.434 246.474 146.304 246.7C146.18 246.927 146.118 247.193 146.118 247.501C146.118 247.808 146.18 248.078 146.304 248.31C146.434 248.536 146.601 248.709 146.806 248.827C147.016 248.946 147.237 249.005 147.469 249.005C147.706 249.005 147.927 248.946 148.132 248.827C148.342 248.703 148.509 248.525 148.633 248.293C148.763 248.062 148.827 247.792 148.827 247.485ZM151.599 243.748V249.733H150.677V243.748H151.599ZM153.279 244.686C153.112 244.686 152.972 244.63 152.858 244.516C152.745 244.403 152.689 244.263 152.689 244.096C152.689 243.929 152.745 243.789 152.858 243.675C152.972 243.562 153.112 243.506 153.279 243.506C153.441 243.506 153.578 243.562 153.691 243.675C153.805 243.789 153.861 243.929 153.861 244.096C153.861 244.263 153.805 244.403 153.691 244.516C153.578 244.63 153.441 244.686 153.279 244.686ZM153.732 245.277V249.733H152.81V245.277H153.732ZM154.635 247.485C154.635 247.037 154.727 246.641 154.91 246.296C155.099 245.951 155.352 245.684 155.67 245.495C155.994 245.301 156.35 245.204 156.738 245.204C157.088 245.204 157.393 245.274 157.652 245.414C157.916 245.549 158.126 245.719 158.282 245.924V245.277H159.213V249.733H158.282V249.07C158.126 249.28 157.913 249.455 157.644 249.595C157.374 249.736 157.067 249.806 156.722 249.806C156.339 249.806 155.988 249.709 155.67 249.515C155.352 249.315 155.099 249.04 154.91 248.69C154.727 248.334 154.635 247.932 154.635 247.485ZM158.282 247.501C158.282 247.193 158.218 246.927 158.088 246.7C157.964 246.474 157.8 246.301 157.595 246.182C157.39 246.064 157.169 246.005 156.932 246.005C156.695 246.005 156.474 246.064 156.269 246.182C156.064 246.296 155.897 246.466 155.767 246.692C155.643 246.913 155.581 247.177 155.581 247.485C155.581 247.792 155.643 248.062 155.767 248.293C155.897 248.525 156.064 248.703 156.269 248.827C156.479 248.946 156.7 249.005 156.932 249.005C157.169 249.005 157.39 248.946 157.595 248.827C157.8 248.709 157.964 248.536 158.088 248.31C158.218 248.078 158.282 247.808 158.282 247.501ZM162.672 245.204C163.022 245.204 163.335 245.277 163.61 245.422C163.89 245.568 164.109 245.784 164.265 246.069C164.422 246.355 164.5 246.7 164.5 247.104V249.733H163.586V247.242C163.586 246.843 163.486 246.538 163.287 246.328C163.087 246.112 162.815 246.005 162.47 246.005C162.125 246.005 161.85 246.112 161.645 246.328C161.445 246.538 161.346 246.843 161.346 247.242V249.733H160.424V245.277H161.346V245.786C161.497 245.603 161.688 245.46 161.92 245.358C162.157 245.255 162.408 245.204 162.672 245.204ZM165.368 247.501C165.368 247.042 165.46 246.641 165.643 246.296C165.832 245.945 166.091 245.676 166.42 245.487C166.749 245.298 167.126 245.204 167.552 245.204C168.091 245.204 168.536 245.333 168.887 245.592C169.242 245.846 169.482 246.209 169.606 246.684H168.612C168.531 246.463 168.401 246.29 168.223 246.166C168.045 246.042 167.822 245.98 167.552 245.98C167.175 245.98 166.873 246.115 166.646 246.385C166.425 246.649 166.315 247.021 166.315 247.501C166.315 247.981 166.425 248.355 166.646 248.625C166.873 248.895 167.175 249.029 167.552 249.029C168.086 249.029 168.439 248.795 168.612 248.326H169.606C169.477 248.779 169.234 249.14 168.878 249.409C168.523 249.674 168.08 249.806 167.552 249.806C167.126 249.806 166.749 249.711 166.42 249.523C166.091 249.329 165.832 249.059 165.643 248.714C165.46 248.363 165.368 247.959 165.368 247.501ZM174.609 247.396C174.609 247.563 174.599 247.714 174.577 247.849H171.172C171.199 248.204 171.331 248.49 171.568 248.706C171.806 248.921 172.097 249.029 172.442 249.029C172.938 249.029 173.288 248.822 173.493 248.407H174.488C174.353 248.816 174.108 249.153 173.752 249.418C173.402 249.676 172.965 249.806 172.442 249.806C172.016 249.806 171.633 249.711 171.293 249.523C170.959 249.329 170.695 249.059 170.501 248.714C170.312 248.363 170.218 247.959 170.218 247.501C170.218 247.042 170.309 246.641 170.493 246.296C170.681 245.945 170.943 245.676 171.277 245.487C171.617 245.298 172.005 245.204 172.442 245.204C172.862 245.204 173.237 245.296 173.566 245.479C173.895 245.662 174.151 245.921 174.334 246.255C174.518 246.584 174.609 246.964 174.609 247.396ZM173.647 247.104C173.642 246.765 173.52 246.493 173.283 246.288C173.046 246.083 172.752 245.98 172.401 245.98C172.083 245.98 171.811 246.083 171.585 246.288C171.358 246.487 171.223 246.759 171.18 247.104H173.647Z" fill="#262626"/>
<path d="M118.753 62.7307C118.753 61.8715 118.951 61.1008 119.347 60.4186C119.751 59.7363 120.294 59.2057 120.976 58.8267C121.667 58.4392 122.421 58.2455 123.238 58.2455C124.173 58.2455 125.003 58.4771 125.727 58.9404C126.46 59.3952 126.99 60.0438 127.319 60.8861H125.588C125.361 60.4228 125.045 60.0775 124.64 59.8501C124.236 59.6226 123.769 59.5089 123.238 59.5089C122.657 59.5089 122.139 59.6395 121.684 59.9006C121.229 60.1617 120.871 60.5365 120.61 61.025C120.357 61.5136 120.231 62.0821 120.231 62.7307C120.231 63.3792 120.357 63.9478 120.61 64.4363C120.871 64.9248 121.229 65.3038 121.684 65.5734C122.139 65.8345 122.657 65.965 123.238 65.965C123.769 65.965 124.236 65.8513 124.64 65.6239C125.045 65.3965 125.361 65.0512 125.588 64.5879H127.319C126.99 65.4302 126.46 66.0787 125.727 66.5336C125.003 66.9884 124.173 67.2158 123.238 67.2158C122.413 67.2158 121.659 67.0263 120.976 66.6473C120.294 66.2598 119.751 65.725 119.347 65.0427C118.951 64.3605 118.753 63.5898 118.753 62.7307ZM133.01 67.2285C132.193 67.2285 131.439 67.0389 130.748 66.6599C130.066 66.2725 129.523 65.7376 129.118 65.0554C128.723 64.3647 128.525 63.5898 128.525 62.7307C128.525 61.8715 128.723 61.1008 129.118 60.4186C129.523 59.7363 130.066 59.2057 130.748 58.8267C131.439 58.4392 132.193 58.2455 133.01 58.2455C133.835 58.2455 134.589 58.4392 135.271 58.8267C135.962 59.2057 136.505 59.7363 136.901 60.4186C137.297 61.1008 137.495 61.8715 137.495 62.7307C137.495 63.5898 137.297 64.3647 136.901 65.0554C136.505 65.7376 135.962 66.2725 135.271 66.6599C134.589 67.0389 133.835 67.2285 133.01 67.2285ZM133.01 65.9777C133.591 65.9777 134.109 65.8471 134.564 65.586C135.019 65.3165 135.372 64.9374 135.625 64.4489C135.886 63.952 136.017 63.3792 136.017 62.7307C136.017 62.0821 135.886 61.5136 135.625 61.025C135.372 60.5365 135.019 60.1617 134.564 59.9006C134.109 59.6395 133.591 59.5089 133.01 59.5089C132.429 59.5089 131.911 59.6395 131.456 59.9006C131.001 60.1617 130.643 60.5365 130.382 61.025C130.129 61.5136 130.003 62.0821 130.003 62.7307C130.003 63.3792 130.129 63.952 130.382 64.4489C130.643 64.9374 131.001 65.3165 131.456 65.586C131.911 65.8471 132.429 65.9777 133.01 65.9777ZM146.126 67.14H144.686L140.353 60.5828V67.14H138.912V58.3466H140.353L144.686 64.8911V58.3466H146.126V67.14ZM150.911 67.2285C150.321 67.2285 149.791 67.1274 149.319 66.9252C148.847 66.7147 148.477 66.4199 148.207 66.0408C147.938 65.6618 147.803 65.2196 147.803 64.7142H149.344C149.378 65.0933 149.526 65.4049 149.787 65.6492C150.056 65.8934 150.431 66.0156 150.911 66.0156C151.408 66.0156 151.795 65.8976 152.073 65.6618C152.351 65.4175 152.49 65.1059 152.49 64.7269C152.49 64.4321 152.402 64.192 152.225 64.0067C152.057 63.8214 151.842 63.6782 151.581 63.5772C151.328 63.4761 150.974 63.3666 150.519 63.2487C149.947 63.0971 149.479 62.9454 149.117 62.7938C148.763 62.6338 148.46 62.3895 148.207 62.061C147.955 61.7326 147.828 61.2946 147.828 60.7471C147.828 60.2417 147.955 59.7995 148.207 59.4205C148.46 59.0415 148.814 58.7509 149.269 58.5487C149.723 58.3466 150.25 58.2455 150.848 58.2455C151.699 58.2455 152.394 58.4603 152.933 58.8898C153.48 59.311 153.783 59.8922 153.842 60.6334H152.25C152.225 60.3133 152.073 60.0396 151.795 59.8121C151.518 59.5847 151.151 59.471 150.696 59.471C150.284 59.471 149.947 59.5763 149.686 59.7869C149.424 59.9975 149.294 60.3007 149.294 60.6965C149.294 60.9661 149.374 61.1893 149.534 61.3662C149.702 61.5346 149.913 61.6694 150.166 61.7705C150.418 61.8715 150.764 61.981 151.202 62.0989C151.783 62.259 152.255 62.419 152.617 62.579C152.987 62.7391 153.299 62.9876 153.552 63.3245C153.813 63.653 153.943 64.0952 153.943 64.6511C153.943 65.0975 153.821 65.5186 153.577 65.9145C153.341 66.3104 152.992 66.6304 152.528 66.8747C152.073 67.1105 151.534 67.2285 150.911 67.2285ZM157.07 58.3592V63.9562C157.07 64.6216 157.243 65.1227 157.588 65.4597C157.942 65.7966 158.431 65.965 159.054 65.965C159.686 65.965 160.174 65.7966 160.52 65.4597C160.873 65.1227 161.05 64.6216 161.05 63.9562V58.3592H162.491V63.9309C162.491 64.6469 162.335 65.2533 162.023 65.7502C161.711 66.2472 161.295 66.6178 160.772 66.8621C160.25 67.1063 159.673 67.2285 159.041 67.2285C158.41 67.2285 157.833 67.1063 157.311 66.8621C156.797 66.6178 156.388 66.2472 156.085 65.7502C155.782 65.2533 155.63 64.6469 155.63 63.9309V58.3592H157.07ZM165.806 65.9777H168.775V67.14H164.366V58.3592H165.806V65.9777ZM175.653 58.3592V59.5342H173.315V67.14H171.875V59.5342H169.525V58.3592H175.653ZM178.551 58.3592V67.14H177.111V58.3592H178.551ZM187.657 67.14H186.216L181.883 60.5828V67.14H180.442V58.3466H181.883L186.216 64.8911V58.3466H187.657V67.14ZM195.903 60.8861C195.676 60.4481 195.36 60.1196 194.955 59.9006C194.551 59.6732 194.084 59.5595 193.553 59.5595C192.972 59.5595 192.454 59.69 191.999 59.9511C191.544 60.2122 191.186 60.5828 190.925 61.0629C190.672 61.543 190.546 62.0989 190.546 62.7307C190.546 63.3624 190.672 63.9225 190.925 64.411C191.186 64.8911 191.544 65.2617 191.999 65.5228C192.454 65.7839 192.972 65.9145 193.553 65.9145C194.336 65.9145 194.972 65.6955 195.461 65.2575C195.949 64.8195 196.248 64.2257 196.358 63.4761H193.06V62.3264H197.899V63.4508C197.807 64.1331 197.562 64.7606 197.166 65.3333C196.779 65.9061 196.269 66.3651 195.638 66.7105C195.014 67.0474 194.32 67.2158 193.553 67.2158C192.728 67.2158 191.974 67.0263 191.292 66.6473C190.609 66.2598 190.066 65.725 189.662 65.0427C189.266 64.3605 189.068 63.5898 189.068 62.7307C189.068 61.8715 189.266 61.1008 189.662 60.4186C190.066 59.7363 190.609 59.2057 191.292 58.8267C191.982 58.4392 192.736 58.2455 193.553 58.2455C194.488 58.2455 195.318 58.4771 196.042 58.9404C196.775 59.3952 197.305 60.0438 197.634 60.8861H195.903ZM209.386 67.14L208.3 66.0535C207.879 66.4746 207.42 66.7905 206.923 67.001C206.426 67.2032 205.87 67.3043 205.255 67.3043C204.632 67.3043 204.08 67.1948 203.6 66.9758C203.12 66.7568 202.749 66.4451 202.488 66.0408C202.227 65.6281 202.096 65.1522 202.096 64.6132C202.096 64.0067 202.269 63.4677 202.614 62.996C202.96 62.5159 203.474 62.1369 204.156 61.8589C203.912 61.5641 203.739 61.2904 203.638 61.0377C203.537 60.7766 203.486 60.4902 203.486 60.1785C203.486 59.7911 203.583 59.4458 203.777 59.1425C203.979 58.8393 204.265 58.5993 204.636 58.4224C205.006 58.2455 205.436 58.1571 205.925 58.1571C206.422 58.1571 206.843 58.2539 207.188 58.4476C207.542 58.633 207.803 58.8898 207.971 59.2183C208.148 59.5468 208.22 59.9132 208.186 60.3175H206.746C206.754 60.0059 206.678 59.7658 206.518 59.5974C206.358 59.4205 206.139 59.332 205.861 59.332C205.583 59.332 205.356 59.4163 205.179 59.5847C205.011 59.7448 204.926 59.9427 204.926 60.1785C204.926 60.406 204.99 60.6334 205.116 60.8608C205.251 61.0798 205.482 61.3662 205.811 61.7199L208.136 64.032L209.033 62.5538H210.587L209.45 64.4995L209.134 65.0175L211.269 67.14H209.386ZM205.255 66.0787C206.047 66.0787 206.746 65.7545 207.352 65.1059L205.028 62.7686C204.034 63.1644 203.537 63.7625 203.537 64.5626C203.537 64.9922 203.697 65.3544 204.017 65.6492C204.337 65.9355 204.75 66.0787 205.255 66.0787ZM220.789 65.346H217.112L216.481 67.14H214.977L218.123 58.3466H219.791L222.937 67.14H221.421L220.789 65.346ZM220.385 64.171L218.957 60.0901L217.517 64.171H220.385ZM227.173 58.3592C228.107 58.3592 228.924 58.5403 229.624 58.9025C230.331 59.2562 230.874 59.77 231.253 60.4439C231.641 61.1093 231.835 61.8884 231.835 62.7812C231.835 63.674 231.641 64.4489 231.253 65.1059C230.874 65.7629 230.331 66.2683 229.624 66.622C228.924 66.9673 228.107 67.14 227.173 67.14H224.305V58.3592H227.173ZM227.173 65.965C228.2 65.965 228.988 65.6871 229.535 65.1312C230.083 64.5753 230.356 63.7919 230.356 62.7812C230.356 61.762 230.083 60.9661 229.535 60.3933C228.988 59.8206 228.2 59.5342 227.173 59.5342H225.745V65.965H227.173ZM240.83 58.3592L237.532 67.14H235.865L232.555 58.3592H234.096L236.699 65.6618L239.314 58.3592H240.83ZM243.475 58.3592V67.14H242.034V58.3592H243.475ZM248.259 67.2285C247.669 67.2285 247.139 67.1274 246.667 66.9252C246.195 66.7147 245.825 66.4199 245.555 66.0408C245.286 65.6618 245.151 65.2196 245.151 64.7142H246.692C246.726 65.0933 246.873 65.4049 247.135 65.6492C247.404 65.8934 247.779 66.0156 248.259 66.0156C248.756 66.0156 249.143 65.8976 249.421 65.6618C249.699 65.4175 249.838 65.1059 249.838 64.7269C249.838 64.4321 249.75 64.192 249.573 64.0067C249.404 63.8214 249.19 63.6782 248.929 63.5772C248.676 63.4761 248.322 63.3666 247.867 63.2487C247.295 63.0971 246.827 62.9454 246.465 62.7938C246.111 62.6338 245.808 62.3895 245.555 62.061C245.303 61.7326 245.176 61.2946 245.176 60.7471C245.176 60.2417 245.303 59.7995 245.555 59.4205C245.808 59.0415 246.162 58.7509 246.617 58.5487C247.071 58.3466 247.598 58.2455 248.196 58.2455C249.047 58.2455 249.741 58.4603 250.28 58.8898C250.828 59.311 251.131 59.8922 251.19 60.6334H249.598C249.573 60.3133 249.421 60.0396 249.143 59.8121C248.865 59.5847 248.499 59.471 248.044 59.471C247.631 59.471 247.295 59.5763 247.033 59.7869C246.772 59.9975 246.642 60.3007 246.642 60.6965C246.642 60.9661 246.722 61.1893 246.882 61.3662C247.05 61.5346 247.261 61.6694 247.514 61.7705C247.766 61.8715 248.112 61.981 248.55 62.0989C249.131 62.259 249.602 62.419 249.965 62.579C250.335 62.7391 250.647 62.9876 250.9 63.3245C251.161 63.653 251.291 64.0952 251.291 64.6511C251.291 65.0975 251.169 65.5186 250.925 65.9145C250.689 66.3104 250.339 66.6304 249.876 66.8747C249.421 67.1105 248.882 67.2285 248.259 67.2285ZM254.431 58.3592V67.14H252.991V58.3592H254.431ZM263.536 67.14H262.096L257.762 60.5828V67.14H256.322V58.3466H257.762L262.096 64.8911V58.3466H263.536V67.14ZM271.783 60.8861C271.555 60.4481 271.239 60.1196 270.835 59.9006C270.431 59.6732 269.963 59.5595 269.433 59.5595C268.851 59.5595 268.333 59.69 267.879 59.9511C267.424 60.2122 267.066 60.5828 266.805 61.0629C266.552 61.543 266.426 62.0989 266.426 62.7307C266.426 63.3624 266.552 63.9225 266.805 64.411C267.066 64.8911 267.424 65.2617 267.879 65.5228C268.333 65.7839 268.851 65.9145 269.433 65.9145C270.216 65.9145 270.852 65.6955 271.34 65.2575C271.829 64.8195 272.128 64.2257 272.237 63.4761H268.94V62.3264H273.779V63.4508C273.686 64.1331 273.442 64.7606 273.046 65.3333C272.659 65.9061 272.149 66.3651 271.517 66.7105C270.894 67.0474 270.199 67.2158 269.433 67.2158C268.607 67.2158 267.853 67.0263 267.171 66.6473C266.489 66.2598 265.946 65.725 265.541 65.0427C265.145 64.3605 264.947 63.5898 264.947 62.7307C264.947 61.8715 265.145 61.1008 265.541 60.4186C265.946 59.7363 266.489 59.2057 267.171 58.8267C267.862 58.4392 268.616 58.2455 269.433 58.2455C270.368 58.2455 271.197 58.4771 271.922 58.9404C272.654 59.3952 273.185 60.0438 273.513 60.8861H271.783Z" fill="#5109C9"/>
<path d="M172.165 134.79C172.165 133.931 172.363 133.161 172.759 132.478C173.163 131.796 173.706 131.266 174.389 130.886C175.079 130.499 175.833 130.305 176.65 130.305C177.585 130.305 178.415 130.537 179.139 131C179.872 131.455 180.403 132.104 180.731 132.946H179C178.773 132.483 178.457 132.137 178.053 131.91C177.648 131.682 177.181 131.569 176.65 131.569C176.069 131.569 175.551 131.699 175.096 131.96C174.641 132.222 174.283 132.596 174.022 133.085C173.77 133.573 173.643 134.142 173.643 134.79C173.643 135.439 173.77 136.008 174.022 136.496C174.283 136.985 174.641 137.364 175.096 137.633C175.551 137.894 176.069 138.025 176.65 138.025C177.181 138.025 177.648 137.911 178.053 137.684C178.457 137.456 178.773 137.111 179 136.648H180.731C180.403 137.49 179.872 138.139 179.139 138.593C178.415 139.048 177.585 139.276 176.65 139.276C175.825 139.276 175.071 139.086 174.389 138.707C173.706 138.32 173.163 137.785 172.759 137.103C172.363 136.42 172.165 135.65 172.165 134.79ZM183.857 138.037H186.826V139.2H182.417V130.419H183.857V138.037ZM189.471 130.419V139.2H188.031V130.419H189.471ZM192.802 131.581V134.159H195.835V135.334H192.802V138.025H196.214V139.2H191.362V130.406H196.214V131.581H192.802ZM205.202 139.2H203.761L199.428 132.643V139.2H197.988V130.406H199.428L203.761 136.951V130.406H205.202V139.2ZM212.766 130.419V131.594H210.429V139.2H208.988V131.594H206.638V130.419H212.766ZM217.118 139.288C216.528 139.288 215.998 139.187 215.526 138.985C215.054 138.774 214.684 138.48 214.414 138.101C214.145 137.722 214.01 137.279 214.01 136.774H215.551C215.585 137.153 215.732 137.465 215.993 137.709C216.263 137.953 216.638 138.075 217.118 138.075C217.615 138.075 218.002 137.957 218.28 137.722C218.558 137.477 218.697 137.166 218.697 136.787C218.697 136.492 218.609 136.252 218.432 136.067C218.263 135.881 218.049 135.738 217.787 135.637C217.535 135.536 217.181 135.426 216.726 135.308C216.153 135.157 215.686 135.005 215.324 134.854C214.97 134.694 214.667 134.449 214.414 134.121C214.161 133.792 214.035 133.354 214.035 132.807C214.035 132.302 214.161 131.859 214.414 131.48C214.667 131.101 215.021 130.811 215.475 130.609C215.93 130.406 216.457 130.305 217.055 130.305C217.905 130.305 218.6 130.52 219.139 130.95C219.687 131.371 219.99 131.952 220.049 132.693H218.457C218.432 132.373 218.28 132.099 218.002 131.872C217.724 131.645 217.358 131.531 216.903 131.531C216.49 131.531 216.153 131.636 215.892 131.847C215.631 132.057 215.501 132.36 215.501 132.756C215.501 133.026 215.581 133.249 215.741 133.426C215.909 133.594 216.12 133.729 216.372 133.83C216.625 133.931 216.97 134.041 217.408 134.159C217.99 134.319 218.461 134.479 218.823 134.639C219.194 134.799 219.506 135.047 219.758 135.384C220.02 135.713 220.15 136.155 220.15 136.711C220.15 137.157 220.028 137.578 219.784 137.974C219.548 138.37 219.198 138.69 218.735 138.935C218.28 139.17 217.741 139.288 217.118 139.288Z" fill="#262626"/>
<path d="M222.513 237.205C222.513 236.655 222.639 236.162 222.893 235.725C223.152 235.289 223.499 234.949 223.936 234.706C224.378 234.458 224.861 234.334 225.384 234.334C225.982 234.334 226.513 234.482 226.977 234.779C227.446 235.07 227.786 235.485 227.996 236.025H226.888C226.742 235.728 226.54 235.507 226.281 235.361C226.023 235.216 225.723 235.143 225.384 235.143C225.012 235.143 224.68 235.227 224.389 235.394C224.098 235.561 223.869 235.801 223.701 236.113C223.54 236.426 223.459 236.79 223.459 237.205C223.459 237.62 223.54 237.984 223.701 238.297C223.869 238.61 224.098 238.852 224.389 239.025C224.68 239.192 225.012 239.276 225.384 239.276C225.723 239.276 226.023 239.203 226.281 239.057C226.54 238.912 226.742 238.691 226.888 238.394H227.996C227.786 238.933 227.446 239.349 226.977 239.64C226.513 239.931 225.982 240.076 225.384 240.076C224.855 240.076 224.373 239.955 223.936 239.712C223.499 239.464 223.152 239.122 222.893 238.685C222.639 238.249 222.513 237.755 222.513 237.205ZM231.008 240.101C230.588 240.101 230.207 240.006 229.868 239.818C229.528 239.623 229.261 239.354 229.067 239.009C228.873 238.658 228.776 238.254 228.776 237.796C228.776 237.343 228.876 236.941 229.075 236.591C229.275 236.24 229.547 235.971 229.892 235.782C230.237 235.593 230.623 235.499 231.049 235.499C231.475 235.499 231.86 235.593 232.205 235.782C232.55 235.971 232.822 236.24 233.022 236.591C233.221 236.941 233.321 237.343 233.321 237.796C233.321 238.249 233.219 238.65 233.014 239.001C232.809 239.351 232.529 239.623 232.173 239.818C231.822 240.006 231.434 240.101 231.008 240.101ZM231.008 239.3C231.245 239.3 231.466 239.243 231.671 239.13C231.882 239.017 232.051 238.847 232.181 238.621C232.31 238.394 232.375 238.119 232.375 237.796C232.375 237.472 232.313 237.2 232.189 236.979C232.065 236.752 231.9 236.583 231.696 236.469C231.491 236.356 231.27 236.299 231.032 236.299C230.795 236.299 230.574 236.356 230.369 236.469C230.17 236.583 230.011 236.752 229.892 236.979C229.773 237.2 229.714 237.472 229.714 237.796C229.714 238.276 229.835 238.648 230.078 238.912C230.326 239.171 230.636 239.3 231.008 239.3ZM235.155 236.219C235.289 235.992 235.467 235.817 235.688 235.693C235.915 235.564 236.182 235.499 236.489 235.499V236.453H236.254C235.893 236.453 235.618 236.545 235.43 236.728C235.246 236.911 235.155 237.23 235.155 237.682V240.028H234.233V235.572H235.155V236.219ZM238.259 236.227C238.415 236.022 238.628 235.849 238.897 235.709C239.167 235.569 239.472 235.499 239.811 235.499C240.2 235.499 240.553 235.596 240.871 235.79C241.194 235.979 241.448 236.246 241.631 236.591C241.814 236.936 241.906 237.332 241.906 237.78C241.906 238.227 241.814 238.629 241.631 238.985C241.448 239.335 241.194 239.61 240.871 239.809C240.553 240.004 240.2 240.101 239.811 240.101C239.472 240.101 239.17 240.033 238.906 239.898C238.641 239.758 238.426 239.586 238.259 239.381V242.147H237.337V235.572H238.259V236.227ZM240.968 237.78C240.968 237.472 240.903 237.208 240.774 236.987C240.65 236.76 240.483 236.591 240.272 236.477C240.067 236.359 239.846 236.299 239.609 236.299C239.377 236.299 239.156 236.359 238.946 236.477C238.741 236.596 238.574 236.769 238.445 236.995C238.321 237.221 238.259 237.488 238.259 237.796C238.259 238.103 238.321 238.373 238.445 238.604C238.574 238.831 238.741 239.003 238.946 239.122C239.156 239.241 239.377 239.3 239.609 239.3C239.846 239.3 240.067 239.241 240.272 239.122C240.483 238.998 240.65 238.82 240.774 238.588C240.903 238.356 240.968 238.087 240.968 237.78ZM244.751 240.101C244.33 240.101 243.95 240.006 243.61 239.818C243.271 239.623 243.004 239.354 242.81 239.009C242.616 238.658 242.519 238.254 242.519 237.796C242.519 237.343 242.618 236.941 242.818 236.591C243.017 236.24 243.29 235.971 243.635 235.782C243.98 235.593 244.365 235.499 244.791 235.499C245.217 235.499 245.603 235.593 245.948 235.782C246.293 235.971 246.565 236.24 246.764 236.591C246.964 236.941 247.064 237.343 247.064 237.796C247.064 238.249 246.961 238.65 246.756 239.001C246.552 239.351 246.271 239.623 245.915 239.818C245.565 240.006 245.177 240.101 244.751 240.101ZM244.751 239.3C244.988 239.3 245.209 239.243 245.414 239.13C245.624 239.017 245.794 238.847 245.923 238.621C246.053 238.394 246.117 238.119 246.117 237.796C246.117 237.472 246.055 237.2 245.931 236.979C245.807 236.752 245.643 236.583 245.438 236.469C245.233 236.356 245.012 236.299 244.775 236.299C244.538 236.299 244.317 236.356 244.112 236.469C243.912 236.583 243.753 236.752 243.635 236.979C243.516 237.2 243.457 237.472 243.457 237.796C243.457 238.276 243.578 238.648 243.821 238.912C244.069 239.171 244.379 239.3 244.751 239.3ZM248.897 236.219C249.032 235.992 249.21 235.817 249.431 235.693C249.657 235.564 249.924 235.499 250.232 235.499V236.453H249.997C249.636 236.453 249.361 236.545 249.172 236.728C248.989 236.911 248.897 237.23 248.897 237.682V240.028H247.975V235.572H248.897V236.219ZM250.772 237.78C250.772 237.332 250.863 236.936 251.047 236.591C251.235 236.246 251.489 235.979 251.807 235.79C252.13 235.596 252.486 235.499 252.875 235.499C253.225 235.499 253.53 235.569 253.788 235.709C254.053 235.844 254.263 236.014 254.419 236.219V235.572H255.349V240.028H254.419V239.365C254.263 239.575 254.05 239.75 253.78 239.89C253.511 240.031 253.203 240.101 252.858 240.101C252.476 240.101 252.125 240.004 251.807 239.809C251.489 239.61 251.235 239.335 251.047 238.985C250.863 238.629 250.772 238.227 250.772 237.78ZM254.419 237.796C254.419 237.488 254.355 237.221 254.225 236.995C254.101 236.769 253.937 236.596 253.732 236.477C253.527 236.359 253.306 236.299 253.069 236.299C252.831 236.299 252.61 236.359 252.405 236.477C252.201 236.591 252.033 236.76 251.904 236.987C251.78 237.208 251.718 237.472 251.718 237.78C251.718 238.087 251.78 238.356 251.904 238.588C252.033 238.82 252.201 238.998 252.405 239.122C252.616 239.241 252.837 239.3 253.069 239.3C253.306 239.3 253.527 239.241 253.732 239.122C253.937 239.003 254.101 238.831 254.225 238.604C254.355 238.373 254.419 238.103 254.419 237.796ZM257.636 236.324V238.79C257.636 238.958 257.674 239.079 257.749 239.154C257.83 239.224 257.965 239.26 258.154 239.26H258.72V240.028H257.992C257.577 240.028 257.259 239.931 257.037 239.737C256.816 239.543 256.706 239.227 256.706 238.79V236.324H256.18V235.572H256.706V234.464H257.636V235.572H258.72V236.324H257.636ZM263.654 237.691C263.654 237.858 263.643 238.009 263.621 238.143H260.216C260.243 238.499 260.376 238.785 260.613 239.001C260.85 239.216 261.141 239.324 261.486 239.324C261.982 239.324 262.333 239.117 262.538 238.701H263.532C263.398 239.111 263.152 239.448 262.796 239.712C262.446 239.971 262.009 240.101 261.486 240.101C261.06 240.101 260.677 240.006 260.338 239.818C260.004 239.623 259.739 239.354 259.545 239.009C259.356 238.658 259.262 238.254 259.262 237.796C259.262 237.337 259.354 236.936 259.537 236.591C259.726 236.24 259.987 235.971 260.322 235.782C260.661 235.593 261.049 235.499 261.486 235.499C261.907 235.499 262.282 235.59 262.61 235.774C262.939 235.957 263.195 236.216 263.379 236.55C263.562 236.879 263.654 237.259 263.654 237.691ZM262.691 237.399C262.686 237.06 262.565 236.787 262.327 236.583C262.09 236.378 261.796 236.275 261.446 236.275C261.128 236.275 260.855 236.378 260.629 236.583C260.402 236.782 260.268 237.054 260.225 237.399H262.691Z" fill="#262626"/>
<path d="M229.628 249.79C229.251 249.79 228.911 249.725 228.609 249.595C228.307 249.461 228.07 249.272 227.898 249.029C227.725 248.787 227.639 248.504 227.639 248.18H228.625C228.647 248.423 228.741 248.622 228.909 248.779C229.081 248.935 229.321 249.013 229.628 249.013C229.946 249.013 230.194 248.938 230.372 248.787C230.55 248.63 230.639 248.431 230.639 248.188C230.639 248 230.583 247.846 230.469 247.727C230.362 247.609 230.224 247.517 230.057 247.452C229.895 247.388 229.669 247.317 229.378 247.242C229.011 247.145 228.712 247.048 228.48 246.951C228.253 246.848 228.059 246.692 227.898 246.482C227.736 246.271 227.655 245.991 227.655 245.641C227.655 245.317 227.736 245.034 227.898 244.791C228.059 244.549 228.286 244.363 228.577 244.233C228.868 244.104 229.205 244.039 229.588 244.039C230.132 244.039 230.577 244.177 230.922 244.452C231.273 244.721 231.467 245.093 231.505 245.568H230.486C230.469 245.363 230.372 245.188 230.194 245.042C230.017 244.897 229.782 244.824 229.491 244.824C229.227 244.824 229.011 244.891 228.844 245.026C228.677 245.161 228.593 245.355 228.593 245.608C228.593 245.781 228.644 245.924 228.747 246.037C228.855 246.145 228.989 246.231 229.151 246.296C229.313 246.36 229.534 246.431 229.814 246.506C230.186 246.608 230.488 246.711 230.72 246.813C230.957 246.916 231.157 247.075 231.319 247.29C231.486 247.501 231.569 247.784 231.569 248.14C231.569 248.425 231.491 248.695 231.335 248.948C231.184 249.202 230.96 249.407 230.664 249.563C230.372 249.714 230.027 249.79 229.628 249.79ZM236.741 247.396C236.741 247.563 236.731 247.714 236.709 247.849H233.304C233.331 248.204 233.463 248.49 233.701 248.706C233.938 248.921 234.229 249.029 234.574 249.029C235.07 249.029 235.42 248.822 235.625 248.407H236.62C236.485 248.816 236.24 249.153 235.884 249.418C235.534 249.676 235.097 249.806 234.574 249.806C234.148 249.806 233.765 249.711 233.426 249.523C233.091 249.329 232.827 249.059 232.633 248.714C232.444 248.363 232.35 247.959 232.35 247.501C232.35 247.042 232.442 246.641 232.625 246.296C232.814 245.945 233.075 245.676 233.409 245.487C233.749 245.298 234.137 245.204 234.574 245.204C234.995 245.204 235.369 245.296 235.698 245.479C236.027 245.662 236.283 245.921 236.466 246.255C236.65 246.584 236.741 246.964 236.741 247.396ZM235.779 247.104C235.774 246.765 235.652 246.493 235.415 246.288C235.178 246.083 234.884 245.98 234.534 245.98C234.215 245.98 233.943 246.083 233.717 246.288C233.49 246.487 233.355 246.759 233.312 247.104H235.779ZM238.571 245.924C238.706 245.697 238.883 245.522 239.105 245.398C239.331 245.269 239.598 245.204 239.905 245.204V246.158H239.671C239.309 246.158 239.034 246.25 238.846 246.433C238.662 246.617 238.571 246.935 238.571 247.388V249.733H237.649V245.277H238.571V245.924ZM242.475 248.908L243.737 245.277H244.716L243.017 249.733H241.917L240.227 245.277H241.214L242.475 248.908ZM245.882 244.686C245.714 244.686 245.574 244.63 245.461 244.516C245.348 244.403 245.291 244.263 245.291 244.096C245.291 243.929 245.348 243.789 245.461 243.675C245.574 243.562 245.714 243.506 245.882 243.506C246.043 243.506 246.181 243.562 246.294 243.675C246.407 243.789 246.464 243.929 246.464 244.096C246.464 244.263 246.407 244.403 246.294 244.516C246.181 244.63 246.043 244.686 245.882 244.686ZM246.335 245.277V249.733H245.413V245.277H246.335ZM247.238 247.501C247.238 247.042 247.329 246.641 247.513 246.296C247.701 245.945 247.96 245.676 248.289 245.487C248.618 245.298 248.995 245.204 249.421 245.204C249.96 245.204 250.405 245.333 250.756 245.592C251.112 245.846 251.352 246.209 251.476 246.684H250.481C250.4 246.463 250.271 246.29 250.093 246.166C249.915 246.042 249.691 245.98 249.421 245.98C249.044 245.98 248.742 246.115 248.516 246.385C248.294 246.649 248.184 247.021 248.184 247.501C248.184 247.981 248.294 248.355 248.516 248.625C248.742 248.895 249.044 249.029 249.421 249.029C249.955 249.029 250.308 248.795 250.481 248.326H251.476C251.346 248.779 251.104 249.14 250.748 249.409C250.392 249.674 249.95 249.806 249.421 249.806C248.995 249.806 248.618 249.711 248.289 249.523C247.96 249.329 247.701 249.059 247.513 248.714C247.329 248.363 247.238 247.959 247.238 247.501ZM256.479 247.396C256.479 247.563 256.468 247.714 256.446 247.849H253.041C253.068 248.204 253.2 248.49 253.438 248.706C253.675 248.921 253.966 249.029 254.311 249.029C254.807 249.029 255.158 248.822 255.363 248.407H256.357C256.223 248.816 255.977 249.153 255.621 249.418C255.271 249.676 254.834 249.806 254.311 249.806C253.885 249.806 253.502 249.711 253.163 249.523C252.828 249.329 252.564 249.059 252.37 248.714C252.181 248.363 252.087 247.959 252.087 247.501C252.087 247.042 252.179 246.641 252.362 246.296C252.551 245.945 252.812 245.676 253.147 245.487C253.486 245.298 253.874 245.204 254.311 245.204C254.732 245.204 255.106 245.296 255.435 245.479C255.764 245.662 256.02 245.921 256.204 246.255C256.387 246.584 256.479 246.964 256.479 247.396ZM255.516 247.104C255.511 246.765 255.389 246.493 255.152 246.288C254.915 246.083 254.621 245.98 254.271 245.98C253.953 245.98 253.68 246.083 253.454 246.288C253.227 246.487 253.093 246.759 253.049 247.104H255.516ZM259.003 249.806C258.653 249.806 258.338 249.744 258.057 249.62C257.782 249.49 257.564 249.318 257.402 249.102C257.24 248.881 257.154 248.636 257.143 248.366H258.098C258.114 248.555 258.203 248.714 258.365 248.843C258.532 248.967 258.739 249.029 258.987 249.029C259.246 249.029 259.446 248.981 259.586 248.884C259.731 248.781 259.804 248.652 259.804 248.496C259.804 248.328 259.723 248.204 259.562 248.124C259.405 248.043 259.154 247.954 258.809 247.857C258.475 247.765 258.203 247.676 257.993 247.59C257.782 247.503 257.599 247.371 257.443 247.193C257.292 247.016 257.216 246.781 257.216 246.49C257.216 246.253 257.286 246.037 257.426 245.843C257.567 245.643 257.766 245.487 258.025 245.374C258.289 245.261 258.591 245.204 258.931 245.204C259.437 245.204 259.845 245.333 260.152 245.592C260.465 245.846 260.632 246.193 260.653 246.635H259.731C259.715 246.436 259.634 246.277 259.489 246.158C259.343 246.04 259.146 245.98 258.898 245.98C258.656 245.98 258.47 246.026 258.34 246.118C258.211 246.209 258.146 246.331 258.146 246.482C258.146 246.6 258.189 246.7 258.276 246.781C258.362 246.862 258.467 246.927 258.591 246.975C258.715 247.018 258.898 247.075 259.141 247.145C259.464 247.231 259.729 247.32 259.934 247.412C260.144 247.498 260.324 247.627 260.475 247.8C260.626 247.973 260.705 248.202 260.71 248.487C260.71 248.741 260.64 248.967 260.5 249.167C260.359 249.366 260.16 249.523 259.901 249.636C259.648 249.749 259.349 249.806 259.003 249.806Z" fill="#262626"/>
<path d="M317.794 235.628V236.38H316.298V241.249H315.376V236.38H313.872V235.628H317.794ZM322.812 238.911C322.812 239.079 322.801 239.23 322.78 239.364H319.375C319.402 239.72 319.534 240.006 319.771 240.222C320.008 240.437 320.299 240.545 320.645 240.545C321.141 240.545 321.491 240.338 321.696 239.922H322.691C322.556 240.332 322.311 240.669 321.955 240.933C321.604 241.192 321.168 241.322 320.645 241.322C320.219 241.322 319.836 241.227 319.496 241.039C319.162 240.844 318.898 240.575 318.704 240.23C318.515 239.879 318.42 239.475 318.42 239.017C318.42 238.558 318.512 238.157 318.695 237.812C318.884 237.461 319.146 237.192 319.48 237.003C319.82 236.814 320.208 236.72 320.645 236.72C321.065 236.72 321.44 236.811 321.769 236.995C322.098 237.178 322.354 237.437 322.537 237.771C322.72 238.1 322.812 238.48 322.812 238.911ZM321.85 238.62C321.844 238.281 321.723 238.008 321.486 237.804C321.248 237.599 320.955 237.496 320.604 237.496C320.286 237.496 320.014 237.599 319.787 237.804C319.561 238.003 319.426 238.275 319.383 238.62H321.85ZM323.412 239.017C323.412 238.558 323.504 238.157 323.687 237.812C323.876 237.461 324.134 237.192 324.463 237.003C324.792 236.814 325.17 236.72 325.596 236.72C326.135 236.72 326.58 236.849 326.93 237.108C327.286 237.361 327.526 237.725 327.65 238.2H326.655C326.574 237.979 326.445 237.806 326.267 237.682C326.089 237.558 325.865 237.496 325.596 237.496C325.218 237.496 324.916 237.631 324.69 237.901C324.469 238.165 324.358 238.537 324.358 239.017C324.358 239.497 324.469 239.871 324.69 240.141C324.916 240.41 325.218 240.545 325.596 240.545C326.129 240.545 326.483 240.311 326.655 239.842H327.65C327.52 240.294 327.278 240.656 326.922 240.925C326.566 241.19 326.124 241.322 325.596 241.322C325.17 241.322 324.792 241.227 324.463 241.039C324.134 240.844 323.876 240.575 323.687 240.23C323.504 239.879 323.412 239.475 323.412 239.017ZM330.874 236.72C331.213 236.72 331.515 236.793 331.779 236.938C332.049 237.084 332.259 237.299 332.41 237.585C332.567 237.871 332.645 238.216 332.645 238.62V241.249H331.731V238.758C331.731 238.359 331.631 238.054 331.432 237.844C331.232 237.628 330.96 237.52 330.615 237.52C330.27 237.52 329.995 237.628 329.79 237.844C329.59 238.054 329.491 238.359 329.491 238.758V241.249H328.569V235.264H329.491V237.31C329.647 237.121 329.844 236.976 330.081 236.873C330.324 236.771 330.588 236.72 330.874 236.72ZM336.069 236.72C336.42 236.72 336.732 236.793 337.007 236.938C337.288 237.084 337.506 237.299 337.663 237.585C337.819 237.871 337.897 238.216 337.897 238.62V241.249H336.983V238.758C336.983 238.359 336.883 238.054 336.684 237.844C336.484 237.628 336.212 237.52 335.867 237.52C335.522 237.52 335.247 237.628 335.042 237.844C334.843 238.054 334.743 238.359 334.743 238.758V241.249H333.821V236.793H334.743V237.302C334.894 237.119 335.085 236.976 335.317 236.873C335.554 236.771 335.805 236.72 336.069 236.72ZM341.006 241.322C340.585 241.322 340.205 241.227 339.866 241.039C339.526 240.844 339.259 240.575 339.065 240.23C338.871 239.879 338.774 239.475 338.774 239.017C338.774 238.564 338.874 238.162 339.073 237.812C339.273 237.461 339.545 237.192 339.89 237.003C340.235 236.814 340.621 236.72 341.046 236.72C341.472 236.72 341.858 236.814 342.203 237.003C342.548 237.192 342.82 237.461 343.02 237.812C343.219 238.162 343.319 238.564 343.319 239.017C343.319 239.47 343.217 239.871 343.012 240.222C342.807 240.572 342.526 240.844 342.171 241.039C341.82 241.227 341.432 241.322 341.006 241.322ZM341.006 240.521C341.243 240.521 341.464 240.464 341.669 240.351C341.879 240.238 342.049 240.068 342.179 239.842C342.308 239.615 342.373 239.34 342.373 239.017C342.373 238.693 342.311 238.421 342.187 238.2C342.063 237.973 341.898 237.804 341.693 237.69C341.489 237.577 341.268 237.52 341.03 237.52C340.793 237.52 340.572 237.577 340.367 237.69C340.168 237.804 340.009 237.973 339.89 238.2C339.771 238.421 339.712 238.693 339.712 239.017C339.712 239.497 339.833 239.869 340.076 240.133C340.324 240.392 340.634 240.521 341.006 240.521ZM345.152 235.264V241.249H344.231V235.264H345.152ZM348.296 241.322C347.875 241.322 347.495 241.227 347.156 241.039C346.816 240.844 346.549 240.575 346.355 240.23C346.161 239.879 346.064 239.475 346.064 239.017C346.064 238.564 346.163 238.162 346.363 237.812C346.562 237.461 346.835 237.192 347.18 237.003C347.525 236.814 347.91 236.72 348.336 236.72C348.762 236.72 349.148 236.814 349.493 237.003C349.838 237.192 350.11 237.461 350.31 237.812C350.509 238.162 350.609 238.564 350.609 239.017C350.609 239.47 350.507 239.871 350.302 240.222C350.097 240.572 349.816 240.844 349.461 241.039C349.11 241.227 348.722 241.322 348.296 241.322ZM348.296 240.521C348.533 240.521 348.754 240.464 348.959 240.351C349.169 240.238 349.339 240.068 349.469 239.842C349.598 239.615 349.663 239.34 349.663 239.017C349.663 238.693 349.601 238.421 349.477 238.2C349.353 237.973 349.188 237.804 348.983 237.69C348.778 237.577 348.557 237.52 348.32 237.52C348.083 237.52 347.862 237.577 347.657 237.69C347.457 237.804 347.298 237.973 347.18 238.2C347.061 238.421 347.002 238.693 347.002 239.017C347.002 239.497 347.123 239.869 347.366 240.133C347.614 240.392 347.924 240.521 348.296 240.521ZM353.316 236.72C353.661 236.72 353.966 236.79 354.23 236.93C354.499 237.065 354.71 237.235 354.861 237.44V236.793H355.791V241.322C355.791 241.731 355.704 242.095 355.532 242.413C355.359 242.737 355.109 242.99 354.78 243.174C354.456 243.357 354.068 243.449 353.615 243.449C353.011 243.449 352.51 243.306 352.111 243.02C351.712 242.74 351.485 242.357 351.431 241.872H352.345C352.415 242.103 352.564 242.289 352.79 242.43C353.022 242.575 353.297 242.648 353.615 242.648C353.987 242.648 354.286 242.535 354.513 242.308C354.745 242.082 354.861 241.753 354.861 241.322V240.578C354.704 240.788 354.491 240.966 354.222 241.111C353.957 241.252 353.656 241.322 353.316 241.322C352.928 241.322 352.572 241.225 352.248 241.03C351.93 240.831 351.677 240.556 351.488 240.206C351.305 239.85 351.213 239.448 351.213 239C351.213 238.553 351.305 238.157 351.488 237.812C351.677 237.467 351.93 237.2 352.248 237.011C352.572 236.817 352.928 236.72 353.316 236.72ZM354.861 239.017C354.861 238.709 354.796 238.442 354.666 238.216C354.542 237.99 354.378 237.817 354.173 237.698C353.968 237.58 353.747 237.52 353.51 237.52C353.273 237.52 353.052 237.58 352.847 237.698C352.642 237.812 352.475 237.981 352.345 238.208C352.221 238.429 352.159 238.693 352.159 239C352.159 239.308 352.221 239.577 352.345 239.809C352.475 240.041 352.642 240.219 352.847 240.343C353.057 240.462 353.278 240.521 353.51 240.521C353.747 240.521 353.968 240.462 354.173 240.343C354.378 240.224 354.542 240.052 354.666 239.825C354.796 239.594 354.861 239.324 354.861 239.017ZM361.013 236.793L358.279 243.343H357.325L358.231 241.176L356.476 236.793H357.503L358.757 240.189L360.059 236.793H361.013Z" fill="#262626"/>
<path d="M179.002 193.123C179.002 199.678 176.946 205.757 173.442 210.747C173.221 211.066 172.991 211.379 172.752 211.69C172.169 212.463 171.547 213.207 170.888 213.92C170.632 214.202 170.367 214.477 170.098 214.749C164.532 220.358 156.818 223.835 148.29 223.835C131.329 223.835 117.58 210.083 117.58 193.123C117.58 176.162 131.329 162.41 148.29 162.41C165.25 162.41 179.002 176.162 179.002 193.123Z" fill="white" stroke="#010101" stroke-width="1.03687" stroke-miterlimit="10"/>
<path d="M241.017 223.835C257.979 223.835 271.729 210.084 271.729 193.123C271.729 176.161 257.979 162.41 241.017 162.41C224.055 162.41 210.305 176.161 210.305 193.123C210.305 210.084 224.055 223.835 241.017 223.835Z" fill="white" stroke="#262626" stroke-width="1.03687" stroke-miterlimit="10"/>
<path d="M333.747 223.835C350.709 223.835 364.459 210.084 364.459 193.123C364.459 176.161 350.709 162.41 333.747 162.41C316.785 162.41 303.035 176.161 303.035 193.123C303.035 210.084 316.785 223.835 333.747 223.835Z" fill="#5109C9"/>
<path d="M161.25 190.779C159.786 189.317 157.751 188.405 155.517 188.405C153.282 188.405 151.268 189.317 149.785 190.779C148.331 192.244 147.429 194.268 147.429 196.503C147.429 198.737 148.331 200.772 149.785 202.234C151.268 203.699 153.282 204.611 155.517 204.611C157.751 204.611 159.786 203.699 161.25 202.234C162.702 200.772 163.614 198.737 163.614 196.503C163.614 194.268 162.702 192.244 161.25 190.779ZM152.818 202.903C152.735 202.869 152.655 202.83 152.574 202.791C152.473 202.745 152.372 202.693 152.274 202.638C151.659 202.312 151.102 201.892 150.617 201.402C149.355 200.15 148.582 198.416 148.582 196.503C148.582 194.59 149.355 192.845 150.617 191.583C151.869 190.328 153.604 189.558 155.517 189.558C157.225 189.558 158.788 190.162 159.993 191.178C160.068 191.241 160.144 191.303 160.216 191.37C160.291 191.44 160.366 191.51 160.439 191.583C161.691 192.845 162.461 194.579 162.461 196.503C162.461 198.426 161.691 200.15 160.439 201.402C159.184 202.667 157.443 203.457 155.517 203.457C154.679 203.457 153.876 203.307 153.132 203.03C153.025 202.991 152.922 202.947 152.818 202.903Z" fill="#5109C9" stroke="#5109C9" stroke-width="0.0648043" stroke-miterlimit="10"/>
<path d="M165.317 201.954C166.492 199.86 166.943 197.485 166.642 195.16C166.37 192.754 165.307 190.419 163.443 188.576C163.415 188.545 163.373 188.516 163.345 188.475C162.974 188.112 162.596 187.793 162.194 187.492C160.221 186.03 157.875 185.289 155.519 185.289C152.665 185.289 149.788 186.391 147.592 188.576C145.409 190.761 144.305 193.636 144.305 196.503C144.305 199.37 145.409 202.255 147.592 204.44C149.448 206.273 151.781 207.346 154.197 207.636C156.501 207.906 158.886 207.465 160.97 206.314L161.732 207.066C161.872 207.206 162.023 207.315 162.194 207.395C162.463 207.545 162.764 207.615 163.065 207.615C163.166 207.615 163.254 207.605 163.345 207.587C163.505 207.576 163.653 207.527 163.793 207.465H163.796C164.016 207.377 164.226 207.234 164.397 207.066L164.716 206.755V206.744L165.779 205.702L166.1 205.381C166.271 205.202 166.401 204.989 166.481 204.779C166.58 204.538 166.632 204.29 166.632 204.038C166.632 203.559 166.46 203.076 166.1 202.716L165.317 201.954ZM163.583 206.254C163.544 206.283 163.505 206.324 163.464 206.343H163.454C163.334 206.423 163.205 206.464 163.062 206.464C162.883 206.464 162.691 206.394 162.551 206.254L161.159 204.849L160.758 205.091C158.803 206.293 156.53 206.755 154.314 206.503C152.159 206.244 150.065 205.282 148.411 203.608C146.449 201.643 145.477 199.087 145.477 196.503C145.477 193.918 146.449 191.362 148.411 189.387C150.376 187.422 152.953 186.44 155.516 186.44C158.08 186.44 160.677 187.422 162.642 189.387C164.286 191.051 165.247 193.135 165.509 195.3C165.768 197.506 165.307 199.79 164.115 201.754L163.876 202.135L165.268 203.527C165.408 203.678 165.478 203.849 165.478 204.038C165.478 204.227 165.408 204.419 165.268 204.559L164.426 205.412L163.583 206.254Z" fill="#5109C9" stroke="#5109C9" stroke-width="0.0648043" stroke-miterlimit="10"/>
<path d="M168.524 208.066C168.895 208.066 169.276 208.199 169.558 208.499L172.752 211.69C172.99 211.379 173.221 211.066 173.441 210.747L170.359 207.667C169.877 207.185 169.237 206.934 168.604 206.915H168.534C167.954 206.915 167.373 207.105 166.911 207.475L166.702 207.667C166.632 207.737 166.572 207.807 166.52 207.867C166.121 208.349 165.919 208.919 165.919 209.51V209.591C165.939 210.231 166.201 210.874 166.702 211.353L170.097 214.749C170.367 214.477 170.631 214.202 170.888 213.92L167.503 210.542C167.233 210.252 167.072 209.891 167.072 209.51C167.072 209.129 167.233 208.769 167.503 208.499C167.782 208.199 168.153 208.066 168.524 208.066Z" fill="#5109C9" stroke="#5109C9" stroke-width="0.0648043" stroke-miterlimit="10"/>
<path d="M168.604 206.915L166.481 204.779L165.719 204.017L165.307 204.538C165.016 204.831 164.716 205.122 164.425 205.412C164.135 205.692 163.834 205.982 163.544 206.273L163.464 206.343H163.453L163.033 206.705L165.919 209.591L166.52 210.202L166.872 209.409C166.942 209.248 167.023 209.098 167.132 208.93C167.251 208.769 167.373 208.629 167.502 208.499V208.479C167.642 208.339 167.793 208.217 167.953 208.118C168.104 208.017 168.264 207.926 168.436 207.856L169.205 207.517L168.604 206.915ZM166.701 207.667C166.631 207.737 166.572 207.807 166.52 207.867C166.401 207.996 166.3 208.118 166.219 208.237L164.716 206.755V206.744L165.768 205.692L165.779 205.702L167.261 207.185C167.142 207.276 167.023 207.366 166.911 207.475L166.701 207.667Z" fill="#5109C9" stroke="#5109C9" stroke-width="0.0648043" stroke-miterlimit="10"/>
<path d="M163.342 207.017V211.885C163.342 212.4 163.135 212.849 162.808 213.191C162.463 213.518 162.017 213.725 161.502 213.725H133.843C133.345 213.725 132.879 213.518 132.537 213.191C132.21 212.846 132.003 212.4 132.003 211.885V174.835C132.003 174.319 132.21 173.855 132.537 173.528C132.881 173.183 133.345 172.979 133.843 172.979H161.502C162.017 172.979 162.466 173.186 162.808 173.528C163.135 173.855 163.342 174.319 163.342 174.835V188.731H162.189V174.835C162.189 174.645 162.119 174.456 161.981 174.337C161.862 174.218 161.688 174.13 161.499 174.13H133.841C133.651 174.13 133.48 174.215 133.358 174.337H133.34C133.221 174.456 133.151 174.63 133.151 174.835V211.885C133.151 212.074 133.221 212.245 133.34 212.382H133.358C133.478 212.502 133.651 212.572 133.841 212.572H161.499C161.688 212.572 161.859 212.502 161.981 212.364C162.119 212.245 162.189 212.071 162.189 211.882V207.014H163.342V207.017Z" fill="#5109C9" stroke="#5109C9" stroke-width="0.0648043" stroke-miterlimit="10"/>
<path d="M136.889 179.752C136.562 179.752 136.303 179.493 136.303 179.166C136.303 178.858 136.562 178.599 136.889 178.599H158.459C158.785 178.599 159.044 178.858 159.044 179.166C159.044 179.493 158.785 179.752 158.459 179.752H136.889Z" fill="#5109C9" stroke="#5109C9" stroke-width="0.0648043" stroke-miterlimit="10"/>
<path d="M136.889 183.796C136.562 183.796 136.303 183.537 136.303 183.228C136.303 182.902 136.562 182.642 136.889 182.642H158.459C158.785 182.642 159.044 182.902 159.044 183.228C159.044 183.537 158.785 183.796 158.459 183.796H136.889Z" fill="#5109C9" stroke="#5109C9" stroke-width="0.0648043" stroke-miterlimit="10"/>
<path d="M136.889 187.855C136.562 187.855 136.303 187.596 136.303 187.269C136.303 186.961 136.562 186.702 136.889 186.702H145.282C145.609 186.702 145.868 186.961 145.868 187.269C145.868 187.596 145.609 187.855 145.282 187.855H136.889Z" fill="#5109C9" stroke="#5109C9" stroke-width="0.0648043" stroke-miterlimit="10"/>
<path d="M136.889 191.915C136.562 191.915 136.303 191.655 136.303 191.329C136.303 191.02 136.562 190.743 136.889 190.743H142.755C143.064 190.743 143.323 191.018 143.323 191.329C143.323 191.655 143.064 191.915 142.755 191.915H136.889Z" fill="#5109C9" stroke="#5109C9" stroke-width="0.0648043" stroke-miterlimit="10"/>
<path d="M136.889 195.956C136.562 195.956 136.303 195.696 136.303 195.388C136.303 195.061 136.562 194.802 136.889 194.802H141.791C142.117 194.802 142.377 195.061 142.377 195.388C142.377 195.696 142.117 195.956 141.791 195.956H136.889Z" fill="#5109C9" stroke="#5109C9" stroke-width="0.0648043" stroke-miterlimit="10"/>
<path d="M136.889 200.015C136.562 200.015 136.303 199.756 136.303 199.429C136.303 199.121 136.562 198.862 136.889 198.862H142.066C142.374 198.862 142.633 199.121 142.633 199.429C142.633 199.756 142.374 200.015 142.066 200.015H136.889Z" fill="#5109C9" stroke="#5109C9" stroke-width="0.0648043" stroke-miterlimit="10"/>
<path d="M136.889 204.056C136.562 204.056 136.303 203.797 136.303 203.489C136.303 203.162 136.562 202.903 136.889 202.903H143.649C143.958 202.903 144.217 203.162 144.217 203.489C144.217 203.797 143.958 204.056 143.649 204.056H136.889Z" fill="#5109C9" stroke="#5109C9" stroke-width="0.0648043" stroke-miterlimit="10"/>
<path d="M136.889 208.116C136.562 208.116 136.303 207.856 136.303 207.53C136.303 207.221 136.562 206.962 136.889 206.962H147.26C147.587 206.962 147.846 207.221 147.846 207.53C147.846 207.856 147.587 208.116 147.26 208.116H136.889Z" fill="#5109C9" stroke="#5109C9" stroke-width="0.0648043" stroke-miterlimit="10"/>
<path d="M155.547 203.476C159.398 203.476 162.52 200.355 162.52 196.505C162.52 192.656 159.398 189.535 155.547 189.535C151.696 189.535 148.574 192.656 148.574 196.505C148.574 200.355 151.696 203.476 155.547 203.476Z" fill="#67DC7A"/>
<path fill-rule="evenodd" clip-rule="evenodd" d="M343.833 181.053C341.624 181.053 339.839 182.842 339.839 185.051C339.839 187.259 341.624 189.05 343.833 189.05C346.042 189.05 347.835 187.259 347.835 185.051C347.835 182.842 346.042 181.053 343.833 181.053ZM343.833 179.838C346.716 179.838 349.051 182.171 349.051 185.051C349.051 187.93 346.716 190.266 343.833 190.266C340.951 190.266 338.623 187.93 338.623 185.051C338.623 182.171 340.956 179.838 343.833 179.838ZM345.209 177.131L344.738 175.903H342.931L342.457 177.131C342.384 177.318 342.226 177.458 342.029 177.505C341.23 177.694 340.471 178.01 339.771 178.44C339.6 178.547 339.387 178.56 339.206 178.479L338.003 177.945L336.725 179.221L337.262 180.423C337.345 180.608 337.329 180.82 337.223 180.991C336.793 181.691 336.476 182.453 336.285 183.254C336.238 183.449 336.098 183.609 335.911 183.679L334.685 184.151V185.955L335.911 186.427C336.098 186.5 336.238 186.658 336.285 186.852C336.474 187.65 336.793 188.415 337.223 189.112C337.327 189.284 337.342 189.496 337.262 189.68L336.725 190.883L338.003 192.158L339.206 191.624C339.387 191.544 339.6 191.557 339.771 191.661C340.471 192.088 341.23 192.407 342.034 192.599C342.231 192.646 342.389 192.786 342.462 192.972L342.934 194.198H344.74L345.212 192.972C345.282 192.786 345.443 192.646 345.637 192.599C346.436 192.41 347.2 192.093 347.895 191.663C348.066 191.557 348.279 191.544 348.463 191.624L349.665 192.158L350.943 190.883L350.412 189.68C350.329 189.496 350.342 189.286 350.446 189.115C350.876 188.415 351.192 187.653 351.384 186.855C351.431 186.66 351.571 186.5 351.757 186.427L352.983 185.955V184.151L351.757 183.679C351.571 183.607 351.431 183.446 351.384 183.252C351.195 182.451 350.881 181.688 350.448 180.991C350.339 180.82 350.329 180.608 350.409 180.426L350.941 179.223L349.663 177.948L348.46 178.482C348.276 178.562 348.066 178.549 347.895 178.443C347.195 178.013 346.43 177.697 345.632 177.507C345.438 177.461 345.277 177.321 345.207 177.134L345.209 177.131ZM346.233 176.403C346.936 176.597 347.618 176.88 348.255 177.24L349.551 176.662C349.782 176.561 350.052 176.61 350.231 176.789L352.097 178.656C352.273 178.834 352.325 179.101 352.224 179.332L351.651 180.631C352.011 181.269 352.294 181.948 352.488 182.655L353.813 183.166C354.046 183.257 354.202 183.482 354.202 183.734V186.373C354.202 186.624 354.046 186.849 353.813 186.94L352.488 187.451C352.291 188.156 352.009 188.835 351.651 189.473L352.224 190.771C352.325 191.002 352.276 191.269 352.097 191.448L350.231 193.314C350.054 193.493 349.785 193.542 349.557 193.441L348.258 192.866C347.62 193.229 346.941 193.509 346.236 193.703L345.725 195.028C345.635 195.264 345.409 195.417 345.158 195.417H342.516C342.265 195.417 342.042 195.261 341.949 195.028L341.438 193.703C340.73 193.506 340.054 193.224 339.413 192.863L338.115 193.439C337.887 193.54 337.617 193.491 337.441 193.312L335.574 191.445C335.393 191.267 335.346 190.997 335.447 190.769C335.447 190.769 336.023 189.47 336.023 189.473C335.663 188.835 335.38 188.156 335.183 187.451L333.858 186.94C333.625 186.849 333.47 186.624 333.47 186.373V183.734C333.47 183.482 333.625 183.257 333.858 183.166L335.183 182.655C335.38 181.948 335.663 181.269 336.023 180.631L335.447 179.332C335.346 179.101 335.393 178.832 335.574 178.656L337.441 176.789C337.617 176.61 337.887 176.561 338.115 176.662L339.413 177.24C340.051 176.877 340.73 176.597 341.438 176.403L341.949 175.076C342.039 174.84 342.265 174.687 342.516 174.687H345.158C345.409 174.687 345.632 174.843 345.725 175.076L346.236 176.403H346.233ZM343.805 202.644H347.304V197.747C347.304 197.41 347.576 197.138 347.913 197.138C348.25 197.138 348.522 197.41 348.522 197.747V203.253C348.522 203.59 348.25 203.862 347.913 203.862H343.805L344.294 204.536C344.491 204.808 344.432 205.189 344.157 205.386C343.885 205.583 343.504 205.523 343.307 205.251L342.114 203.613C341.959 203.401 341.959 203.11 342.114 202.898L343.307 201.259C343.504 200.987 343.882 200.928 344.157 201.125C344.429 201.322 344.489 201.703 344.294 201.975L343.805 202.649V202.644ZM323.801 184.711V180.963C323.801 180.626 324.073 180.353 324.41 180.353H329.729C330.066 180.353 330.338 180.626 330.338 180.963C330.338 181.3 330.066 181.572 329.729 181.572H325.019V184.714L325.693 184.224C325.963 184.027 326.346 184.086 326.543 184.358C326.74 184.631 326.681 185.012 326.406 185.209L324.768 186.398C324.555 186.554 324.267 186.554 324.052 186.398L322.414 185.209C322.142 185.012 322.082 184.631 322.277 184.358C322.476 184.086 322.857 184.027 323.129 184.224L323.801 184.714V184.711ZM322.292 208.971C322.629 208.971 322.901 209.243 322.901 209.58C322.901 209.917 322.629 210.189 322.292 210.189H319.998C319.661 210.189 319.389 209.917 319.389 209.58C319.389 209.243 319.661 208.971 319.998 208.971H322.292ZM331.163 208.624C331.691 208.624 332.119 209.051 332.119 209.58C332.119 210.109 331.691 210.537 331.163 210.537C330.634 210.537 330.206 210.109 330.206 209.58C330.206 209.051 330.634 208.624 331.163 208.624ZM328.775 208.971C329.112 208.971 329.384 209.243 329.384 209.58C329.384 209.917 329.112 210.189 328.775 210.189H324.2C323.863 210.189 323.591 209.917 323.591 209.58C323.591 209.243 323.863 208.971 324.2 208.971H328.775ZM331.163 200.782C331.691 200.782 332.119 201.21 332.119 201.739C332.119 202.268 331.691 202.695 331.163 202.695C330.634 202.695 330.206 202.268 330.206 201.739C330.206 201.21 330.634 200.782 331.163 200.782ZM328.775 201.13C329.112 201.13 329.384 201.402 329.384 201.739C329.384 202.076 329.112 202.348 328.775 202.348H324.2C323.863 202.348 323.591 202.076 323.591 201.739C323.591 201.402 323.863 201.13 324.2 201.13H328.775ZM322.292 201.13C322.629 201.13 322.901 201.402 322.901 201.739C322.901 202.076 322.629 202.348 322.292 202.348H319.998C319.661 202.348 319.389 202.076 319.389 201.739C319.389 201.402 319.661 201.13 319.998 201.13H322.292ZM328.775 193.288C329.112 193.288 329.384 193.561 329.384 193.898C329.384 194.235 329.112 194.507 328.775 194.507H324.2C323.863 194.507 323.591 194.235 323.591 193.898C323.591 193.561 323.863 193.288 324.2 193.288H328.775ZM322.292 193.288C322.629 193.288 322.901 193.561 322.901 193.898C322.901 194.235 322.629 194.507 322.292 194.507H319.998C319.661 194.507 319.389 194.235 319.389 193.898C319.389 193.561 319.661 193.288 319.998 193.288H322.292ZM331.163 192.941C331.691 192.941 332.119 193.369 332.119 193.898C332.119 194.426 331.691 194.854 331.163 194.854C330.634 194.854 330.206 194.426 330.206 193.898C330.206 193.369 330.634 192.941 331.163 192.941ZM333.28 207.981H317.893C317.841 207.981 317.795 208.002 317.761 208.038C317.722 208.074 317.704 208.123 317.704 208.173V210.993C317.704 211.045 317.722 211.091 317.761 211.128C317.795 211.164 317.844 211.185 317.893 211.185H333.28C333.332 211.185 333.379 211.164 333.412 211.128C333.446 211.091 333.47 211.042 333.47 210.993V208.173C333.47 208.121 333.446 208.074 333.412 208.038C333.379 208.002 333.33 207.981 333.28 207.981ZM319.855 206.763H331.313V204.554H319.855V206.763ZM317.893 203.338H333.28C333.332 203.338 333.379 203.318 333.412 203.281C333.446 203.245 333.47 203.196 333.47 203.146V200.326C333.47 200.274 333.446 200.228 333.412 200.191C333.379 200.155 333.33 200.134 333.28 200.134H317.893C317.841 200.134 317.795 200.155 317.761 200.191C317.722 200.228 317.704 200.277 317.704 200.326V203.146C317.704 203.198 317.722 203.245 317.761 203.281C317.795 203.318 317.844 203.338 317.893 203.338ZM319.855 198.921H331.313V196.715H319.855V198.921ZM317.893 195.497H333.28C333.332 195.497 333.379 195.476 333.412 195.44C333.446 195.404 333.47 195.354 333.47 195.305V192.485C333.47 192.433 333.446 192.386 333.412 192.35C333.379 192.314 333.33 192.293 333.28 192.293H317.893C317.841 192.293 317.795 192.314 317.761 192.35C317.722 192.386 317.704 192.436 317.704 192.485V195.305C317.704 195.357 317.722 195.404 317.761 195.44C317.795 195.476 317.844 195.497 317.893 195.497ZM318.64 196.715H317.893C317.522 196.715 317.165 196.568 316.898 196.303C316.636 196.039 316.486 195.681 316.486 195.308V192.487C316.486 192.114 316.633 191.756 316.898 191.492C317.165 191.228 317.522 191.08 317.893 191.08H333.28C333.651 191.08 334.009 191.228 334.276 191.492C334.537 191.756 334.688 192.114 334.688 192.487V195.308C334.688 195.681 334.54 196.039 334.276 196.303C334.009 196.568 333.651 196.715 333.28 196.715H332.534V198.921H333.28C333.651 198.921 334.009 199.069 334.276 199.333C334.537 199.598 334.688 199.956 334.688 200.329V203.149C334.688 203.522 334.54 203.88 334.276 204.144C334.009 204.409 333.651 204.557 333.28 204.557H332.534V206.765H333.28C333.651 206.765 334.009 206.913 334.276 207.177C334.537 207.442 334.688 207.799 334.688 208.173V210.993C334.688 211.366 334.54 211.724 334.276 211.988C334.009 212.253 333.651 212.401 333.28 212.401H317.893C317.522 212.401 317.165 212.253 316.898 211.988C316.636 211.724 316.486 211.366 316.486 210.993V208.173C316.486 207.799 316.633 207.442 316.898 207.177C317.165 206.913 317.522 206.765 317.893 206.765H318.64V204.557H317.893C317.522 204.557 317.165 204.409 316.898 204.144C316.636 203.88 316.486 203.522 316.486 203.149V200.329C316.486 199.956 316.633 199.598 316.898 199.333C317.165 199.069 317.522 198.921 317.893 198.921H318.64V196.715Z" fill="white"/>
<path d="M85.2091 192.379C85.2091 197.744 83.8586 202.797 81.4764 207.214C76.1832 217.035 65.7989 223.71 53.8542 223.71C41.9095 223.71 30.5428 216.387 25.514 205.796C23.5802 201.729 22.4993 197.179 22.4993 192.379C22.4993 187.578 23.5569 183.122 25.4569 179.088C30.4572 168.429 41.2925 161.05 53.8542 161.05C66.4159 161.05 77.8525 168.847 82.6558 179.985C84.2993 183.786 85.2091 187.977 85.2091 192.379Z" fill="white"/>
<path d="M69.3528 195.121C61.7318 200.238 56.0446 191.808 56.0446 191.808C53.3513 188.125 51.4227 191.933 51.4227 191.933C50.0048 195.378 47.9622 195.064 46.7568 194.473C46.1502 194.175 45.8625 193.465 46.0517 192.814L46.9616 189.693C47.3608 188.324 48.3432 187.202 49.6497 186.627L53.0869 185.113C54.3182 184.571 55.451 184.695 56.9674 185.004L65.9311 187.127L69.3502 195.121H69.3528Z" stroke="#262626" stroke-width="0.777652" stroke-miterlimit="10"/>
<path d="M71.245 199.546L65.3426 201.423L61.6436 196.269C61.6436 196.269 65.9621 198.058 69.3527 195.121L71.245 199.546Z" stroke="#262626" stroke-width="0.777652" stroke-miterlimit="10"/>
<path d="M34.125 182.86L40.818 185.678L34.8845 199.546L28.3367 196.998" stroke="#262626" stroke-width="0.777652" stroke-miterlimit="10"/>
<path d="M72.6242 184.309L65.9338 187.127L71.8647 200.995L78.4152 198.447" stroke="#262626" stroke-width="0.777652" stroke-miterlimit="10"/>
<path d="M61.2055 196.236L66.2939 202.618C66.6827 203.105 66.7942 203.761 66.5868 204.349C66.0736 205.811 64.1917 206.21 63.1289 205.083L56.1404 197.669" stroke="#262626" stroke-width="0.777652" stroke-miterlimit="10" stroke-linecap="round"/>
<path d="M53.0527 201.153L58.9344 207.304C60.5182 208.961 63.3307 208.357 64.0332 206.174C64.0435 206.14 64.0539 206.107 64.0643 206.07" stroke="#262626" stroke-width="0.777652" stroke-miterlimit="10" stroke-linecap="round"/>
<path d="M50.2354 204.046L55.0983 209.448C55.64 210.049 56.384 210.462 57.1902 210.506C58.1078 210.555 59.2691 210.208 60.2463 208.608" stroke="#262626" stroke-width="0.777652" stroke-miterlimit="10" stroke-linecap="round"/>
<path d="M50.5392 186.235C46.1713 185.235 40.8159 185.678 40.8159 185.678" stroke="#262626" stroke-width="0.777652" stroke-miterlimit="10"/>
<path d="M35.9241 197.117C35.9241 197.117 42.6456 201.77 49.9633 208.94L52.2418 211.128C53.385 212.224 55.3394 211.631 55.5883 210.068C55.5909 210.047 55.5935 210.026 55.5987 210.003" stroke="#262626" stroke-width="0.777652" stroke-miterlimit="10"/>
<path d="M39.7838 200.013L39.185 200.681C38.5992 201.335 38.6796 202.345 39.3587 202.903C40.0716 203.486 41.1162 203.403 41.7254 202.714L42.3112 202.053" stroke="#262626" stroke-width="0.777652" stroke-miterlimit="10"/>
<path d="M45.4064 204.702L44.0922 206.135C43.3923 206.9 42.2102 206.967 41.4274 206.288C40.6264 205.596 40.5409 204.383 41.233 203.585L42.4565 202.174" stroke="#262626" stroke-width="0.777652" stroke-miterlimit="10"/>
<path d="M45.4061 204.702L44.5559 205.63C43.8508 206.4 43.8975 207.595 44.6622 208.305C45.4269 209.018 46.6245 208.979 47.3425 208.217L48.2316 207.273" stroke="#262626" stroke-width="0.777652" stroke-miterlimit="10"/>
<path d="M50.8318 209.775L50.3652 210.254C49.6783 210.959 48.5507 210.977 47.8378 210.298C47.1224 209.616 47.0939 208.484 47.7704 207.766L48.1074 207.408" stroke="#262626" stroke-width="0.777652" stroke-miterlimit="10"/>
<path d="M85.2093 191.381C85.2093 196.746 83.8588 201.798 81.4766 206.216L81.2615 206.301L71.8674 183.363L82.6561 178.987C84.2995 182.787 85.2093 186.979 85.2093 191.381Z" fill="#67DC7A"/>
<path d="M34.8873 181.911L25.514 204.798C23.5802 200.731 22.4993 196.181 22.4993 191.381C22.4993 186.58 23.5569 182.124 25.4569 178.091L34.8873 181.911Z" fill="#5109C9"/>
<path d="M85.1261 192.43C85.1261 197.796 83.7756 202.848 81.3934 207.265C76.1002 217.087 65.7159 223.762 53.7712 223.762C41.8264 223.762 30.4598 216.439 25.431 205.847C23.4972 201.78 22.4163 197.231 22.4163 192.43C22.4163 187.63 23.4739 183.174 25.3739 179.14C30.3742 168.481 41.2095 161.101 53.7712 161.101C66.3329 161.101 77.7695 168.899 82.5728 180.037C84.2163 183.837 85.1261 188.029 85.1261 192.43Z" stroke="#010101" stroke-width="1.03687" stroke-miterlimit="10"/>
<g opacity="0.4">
<path d="M151.537 194.004C152.11 193.322 152.831 192.796 153.653 192.464C153.78 192.412 153.925 192.48 153.969 192.612C154.008 192.734 153.948 192.861 153.832 192.907C153.085 193.211 152.429 193.693 151.913 194.318C151.833 194.413 151.693 194.432 151.589 194.359L151.576 194.351C151.465 194.271 151.444 194.113 151.535 194.006L151.537 194.004Z" fill="white"/>
</g>
<g opacity="0.8">
<path d="M159.458 194.318C158.942 193.693 158.286 193.213 157.539 192.907C157.425 192.861 157.366 192.731 157.402 192.614C157.443 192.482 157.589 192.412 157.718 192.464C158.54 192.796 159.263 193.322 159.833 194.004C159.922 194.11 159.903 194.268 159.792 194.349L159.779 194.356C159.678 194.429 159.535 194.413 159.455 194.315L159.458 194.318Z" fill="white"/>
</g>
<g opacity="0.6">
<path d="M154.21 192.534C154.168 192.402 154.244 192.262 154.378 192.231C154.804 192.125 155.244 192.073 155.687 192.073C156.131 192.073 156.569 192.127 156.996 192.231C157.131 192.265 157.206 192.405 157.165 192.534C157.126 192.653 157.004 192.721 156.882 192.692C156.494 192.594 156.094 192.545 155.687 192.545C155.28 192.545 154.881 192.594 154.492 192.692C154.371 192.723 154.249 192.653 154.21 192.534Z" fill="white"/>
</g>
<path d="M160.574 197.14C160.525 196.337 160.281 195.564 159.861 194.883C159.796 194.776 159.822 194.639 159.923 194.566L159.939 194.553C160.05 194.473 160.209 194.502 160.281 194.618C160.75 195.37 161.028 196.22 161.09 197.107C161.1 197.244 160.991 197.361 160.851 197.361H160.81C160.685 197.361 160.579 197.265 160.574 197.138V197.14Z" fill="white"/>
<g opacity="0.2">
<path d="M150.283 197.107C150.345 196.22 150.62 195.37 151.092 194.618C151.164 194.502 151.323 194.471 151.434 194.553L151.45 194.566C151.551 194.639 151.577 194.776 151.512 194.883C151.092 195.567 150.848 196.337 150.799 197.14C150.791 197.265 150.687 197.363 150.563 197.363H150.522C150.384 197.363 150.275 197.247 150.283 197.109V197.107Z" fill="white"/>
</g>
<path d="M155.667 197.91C155.229 197.903 154.869 198.25 154.859 198.688C154.851 199.126 155.198 199.486 155.636 199.497C156.074 199.504 156.435 199.157 156.445 198.719C156.453 198.281 156.105 197.921 155.667 197.91ZM155.644 199.04C155.457 199.038 155.31 198.882 155.312 198.696C155.315 198.509 155.47 198.361 155.657 198.364C155.844 198.367 155.991 198.522 155.989 198.709C155.986 198.895 155.831 199.043 155.644 199.04Z" fill="white"/>
<path d="M156.022 198.177L155.299 198.162L155.595 194.535C155.6 194.463 155.662 194.406 155.735 194.408C155.807 194.408 155.867 194.468 155.869 194.54L156.02 198.177H156.022Z" fill="white"/>
<path d="M226.073 215.35C225.446 215.35 224.893 214.894 224.792 214.257L222.669 200.979C222.615 200.637 222.698 200.295 222.9 200.013C223.105 199.73 223.406 199.546 223.745 199.492L227.597 198.875C227.939 198.82 228.281 198.903 228.564 199.105C228.847 199.31 229.031 199.608 229.085 199.95L231.208 213.227C231.322 213.935 230.837 214.601 230.132 214.715L226.28 215.332C226.21 215.343 226.143 215.348 226.076 215.348L226.073 215.35ZM227.802 199.53C227.768 199.53 227.737 199.533 227.703 199.538L223.851 200.155C223.688 200.181 223.543 200.272 223.442 200.407C223.341 200.541 223.302 200.71 223.33 200.873L225.453 214.15C225.508 214.492 225.832 214.726 226.171 214.671L230.023 214.054C230.366 214 230.599 213.676 230.544 213.336L228.421 200.059C228.372 199.751 228.105 199.53 227.802 199.53Z" fill="#5109C9"/>
<path d="M230.075 214.386H230.078M226.073 215.35C225.446 215.35 224.893 214.894 224.792 214.257L222.669 200.979C222.615 200.637 222.698 200.295 222.9 200.013C223.105 199.73 223.406 199.546 223.745 199.492L227.597 198.875C227.939 198.82 228.281 198.903 228.564 199.105C228.847 199.31 229.031 199.608 229.085 199.95L231.208 213.227C231.322 213.935 230.837 214.601 230.132 214.715L226.28 215.332C226.21 215.343 226.143 215.348 226.076 215.348L226.073 215.35ZM227.802 199.53C227.768 199.53 227.737 199.533 227.703 199.538L223.851 200.155C223.688 200.181 223.543 200.272 223.442 200.407C223.341 200.541 223.302 200.71 223.33 200.873L225.453 214.15C225.508 214.492 225.832 214.726 226.171 214.671L230.023 214.054C230.366 214 230.599 213.676 230.544 213.336L228.421 200.059C228.372 199.751 228.105 199.53 227.802 199.53Z" stroke="#5109C9" stroke-width="0.518435" stroke-miterlimit="10"/>
<path d="M246.45 210.081C246.123 210.081 245.791 210.018 245.475 209.886L241.286 208.149C241.115 208.079 241.035 207.882 241.105 207.711C241.175 207.54 241.372 207.46 241.543 207.53L245.732 209.267C246.608 209.629 247.624 209.282 248.093 208.458C248.358 207.994 248.415 207.457 248.251 206.949C248.088 206.441 247.73 206.037 247.246 205.814L239.137 202.073C237.038 201.104 234.648 201.14 232.579 202.167C231.978 202.465 231.423 202.667 230.879 202.784L229.575 203.061C229.393 203.1 229.214 202.983 229.178 202.802C229.139 202.62 229.256 202.441 229.437 202.405L230.741 202.128C231.229 202.024 231.731 201.84 232.284 201.568C234.536 200.448 237.139 200.412 239.422 201.464L247.528 205.205C248.176 205.503 248.674 206.065 248.892 206.744C249.109 207.424 249.032 208.17 248.679 208.79C248.212 209.609 247.349 210.081 246.452 210.081H246.45Z" fill="#5109C9" stroke="#5109C9" stroke-width="0.518435" stroke-miterlimit="10"/>
<path d="M244.822 214.594C243.643 214.594 242.455 214.355 241.325 213.876L232.494 210.109L230.218 209.801C230.034 209.775 229.907 209.606 229.93 209.422C229.956 209.238 230.124 209.111 230.308 209.134L232.628 209.448C232.657 209.453 232.688 209.461 232.714 209.471L241.587 213.256C244.221 214.378 247.189 214.067 249.529 212.419L257.941 206.503C258.345 206.221 258.602 205.796 258.669 205.306C258.737 204.816 258.599 204.339 258.288 203.958C257.684 203.222 256.619 203.1 255.865 203.683L252.79 206.052C252.645 206.166 252.433 206.138 252.321 205.993C252.207 205.845 252.236 205.635 252.381 205.524L255.455 203.154C256.5 202.351 257.972 202.517 258.807 203.535C259.232 204.054 259.426 204.733 259.336 205.399C259.245 206.065 258.877 206.669 258.327 207.056L249.916 212.971C248.389 214.044 246.613 214.594 244.819 214.594H244.822Z" fill="#5109C9" stroke="#5109C9" stroke-width="0.518435" stroke-miterlimit="10"/>
<path fill-rule="evenodd" clip-rule="evenodd" d="M236.19 188.226C235.804 188.226 235.49 187.912 235.49 187.526C235.49 187.14 235.804 186.826 236.19 186.826H247.453C247.837 186.826 248.153 187.14 248.153 187.526C248.153 187.912 247.837 188.226 247.453 188.226H236.19ZM236.19 184.908C235.804 184.908 235.49 184.594 235.49 184.208C235.49 183.822 235.804 183.508 236.19 183.508H247.453C247.837 183.508 248.153 183.822 248.153 184.208C248.153 184.594 247.837 184.908 247.453 184.908H236.19ZM236.19 181.593C235.804 181.593 235.49 181.279 235.49 180.893C235.49 180.506 235.804 180.193 236.19 180.193H247.453C247.837 180.193 248.153 180.506 248.153 180.893C248.153 181.279 247.837 181.593 247.453 181.593H236.19ZM236.19 178.272C235.804 178.272 235.49 177.958 235.49 177.572C235.49 177.186 235.804 176.872 236.19 176.872H244.275C244.659 176.872 244.975 177.186 244.975 177.572C244.975 177.958 244.659 178.272 244.275 178.272H236.19ZM236.19 194.864C235.804 194.864 235.49 194.551 235.49 194.165C235.49 193.778 235.804 193.465 236.19 193.465H247.453C247.837 193.465 248.153 193.778 248.153 194.165C248.153 194.551 247.837 194.864 247.453 194.864H236.19ZM236.19 191.547C235.804 191.547 235.49 191.233 235.49 190.847C235.49 190.46 235.804 190.147 236.19 190.147H247.453C247.837 190.147 248.153 190.46 248.153 190.847C248.153 191.233 247.837 191.547 247.453 191.547H236.19ZM249.646 175.644L248.951 174.949V175.644H249.646ZM252.63 172.663L251.935 171.968V172.663H252.63ZM247.552 173.961H233.007V197.221H250.634V177.043H248.252C247.865 177.043 247.552 176.73 247.552 176.343V173.961ZM235.991 172.561H248.252C248.433 172.561 248.612 172.634 248.747 172.766L251.829 175.848C251.961 175.981 252.033 176.159 252.033 176.343V194.237H253.623V174.06H251.238C250.851 174.06 250.538 173.746 250.538 173.36V170.975H235.996V172.561H235.991ZM252.031 195.634V197.918C252.031 198.304 251.717 198.618 251.331 198.618H232.307C231.921 198.618 231.607 198.304 231.607 197.918V173.261C231.607 172.875 231.921 172.561 232.307 172.561H234.593V170.275C234.593 169.889 234.907 169.575 235.293 169.575H251.235C251.422 169.575 251.598 169.648 251.73 169.78L254.812 172.865C254.947 172.997 255.02 173.176 255.02 173.36V194.934C255.02 195.321 254.706 195.634 254.32 195.634H252.033H252.031Z" fill="#5109C9"/>
</svg>
