<svg width="305" height="286" viewBox="0 0 305 286" fill="none" xmlns="http://www.w3.org/2000/svg">
<path d="M251.464 37.0067C252.405 37.7477 252.955 38.8799 252.955 40.0783V211.689C252.955 213.847 251.205 215.597 249.047 215.597H107.202C105.043 215.597 103.293 213.847 103.293 211.689V19.4954C103.293 17.3368 105.043 15.5869 107.202 15.5869H222.888C223.765 15.5869 224.616 15.8817 225.305 16.4238L251.464 37.0067Z" fill="white" stroke="#5109C9" stroke-width="1.56338" stroke-miterlimit="10"/>
<path d="M253.179 38.4913C253.179 38.5052 253.103 38.5192 252.954 38.5308C251.039 38.6903 237.372 38.6634 229.565 38.6341C226.555 38.6229 224.132 36.1784 224.132 33.1684V15.5869H224.241L252.954 38.1803L253.177 38.3567V38.4936L253.179 38.4913Z" fill="#5109C9"/>
<path d="M142.101 73.5384C151.715 73.5384 159.509 65.7443 159.509 56.1297C159.509 46.5152 151.715 38.7211 142.101 38.7211C132.486 38.7211 124.692 46.5152 124.692 56.1297C124.692 65.7443 132.486 73.5384 142.101 73.5384Z" fill="white"/>
<path d="M138.015 57.109H132.106C131.913 57.109 131.756 56.952 131.756 56.7589V55.5648C131.756 54.7174 132.443 54.0304 133.291 54.0304H134.171V53.6737C133.611 53.291 133.258 52.5647 133.258 51.7664C133.258 50.5591 134.066 49.5743 135.057 49.5743C136.049 49.5743 136.857 50.5558 136.857 51.7664C136.857 52.5647 136.507 53.2877 135.944 53.6737V54.0304H136.824C137.671 54.0304 138.358 54.7174 138.358 55.5648V56.7589C138.358 56.952 138.201 57.109 138.008 57.109H138.015ZM132.453 56.4121H137.665V55.568C137.665 55.1067 137.289 54.7305 136.827 54.7305H135.597C135.404 54.7305 135.247 54.5735 135.247 54.3804V53.4774C135.247 53.3466 135.319 53.2255 135.437 53.1666C135.869 52.9474 136.156 52.3847 136.156 51.7664C136.156 50.9419 135.662 50.2712 135.057 50.2712C134.452 50.2712 133.958 50.9419 133.958 51.7664C133.958 52.3847 134.249 52.9474 134.678 53.1666C134.795 53.2255 134.867 53.3466 134.867 53.4774V54.3804C134.867 54.5735 134.71 54.7305 134.517 54.7305H133.287C132.826 54.7305 132.45 55.1067 132.45 55.568V56.4121H132.453Z" fill="#5109C9"/>
<path d="M138.015 65.4354H132.106C131.913 65.4354 131.756 65.2784 131.756 65.0853V63.8912C131.756 63.0438 132.443 62.3568 133.291 62.3568H134.171V62.0002C133.611 61.6174 133.258 60.8911 133.258 60.0928C133.258 58.8855 134.066 57.9008 135.057 57.9008C136.049 57.9008 136.857 58.8823 136.857 60.0928C136.857 60.8911 136.507 61.6141 135.944 62.0002V62.3568H136.824C137.671 62.3568 138.358 63.0438 138.358 63.8912V65.0853C138.358 65.2784 138.201 65.4354 138.008 65.4354H138.015ZM132.453 64.7386H137.665V63.8945C137.665 63.4331 137.289 63.0569 136.827 63.0569H135.597C135.404 63.0569 135.247 62.8999 135.247 62.7068V61.8039C135.247 61.673 135.319 61.5519 135.437 61.493C135.869 61.2738 136.156 60.7111 136.156 60.0928C136.156 59.2683 135.662 58.5976 135.057 58.5976C134.452 58.5976 133.958 59.2683 133.958 60.0928C133.958 60.7111 134.249 61.2738 134.678 61.493C134.795 61.5519 134.867 61.673 134.867 61.8039V62.7068C134.867 62.8999 134.71 63.0569 134.517 63.0569H133.287C132.826 63.0569 132.45 63.4331 132.45 63.8945V64.7386H132.453Z" fill="#5109C9"/>
<path d="M132.25 46.3189C132.204 46.3189 132.158 46.3091 132.116 46.2927C132.073 46.2731 132.034 46.2502 132.001 46.2175C131.936 46.1521 131.9 46.0637 131.9 45.9721C131.9 45.8805 131.936 45.7922 132.001 45.7267C132.017 45.7104 132.037 45.6973 132.053 45.6842C132.073 45.6711 132.093 45.6613 132.112 45.6515C132.132 45.6417 132.158 45.6351 132.178 45.6319C132.224 45.6221 132.269 45.6221 132.315 45.6319C132.335 45.6351 132.358 45.645 132.381 45.6515C132.4 45.6613 132.423 45.6711 132.443 45.6842C132.462 45.6973 132.479 45.7104 132.495 45.7267C132.561 45.7922 132.597 45.8838 132.597 45.9721C132.597 46.0605 132.561 46.1521 132.495 46.2175C132.462 46.2535 132.426 46.2764 132.384 46.2927C132.341 46.3091 132.296 46.3189 132.25 46.3189Z" fill="#5109C9"/>
<path d="M135.126 45.9688C135.126 45.7758 135.283 45.6188 135.476 45.6188C135.666 45.6188 135.826 45.7758 135.826 45.9688C135.826 46.1619 135.669 46.3189 135.476 46.3189C135.283 46.3189 135.126 46.1619 135.126 45.9688Z" fill="#5109C9"/>
<path d="M138.698 46.3188C138.652 46.3188 138.606 46.309 138.564 46.2927C138.521 46.273 138.482 46.2501 138.449 46.2174C138.384 46.152 138.348 46.0636 138.348 45.972C138.348 45.9524 138.348 45.9295 138.354 45.9033C138.357 45.8804 138.367 45.8608 138.374 45.8379C138.384 45.8183 138.393 45.7954 138.407 45.7757C138.42 45.7561 138.436 45.7398 138.452 45.7234C138.583 45.5925 138.816 45.5925 138.946 45.7234C138.963 45.7398 138.976 45.7594 138.992 45.7757C139.005 45.7954 139.015 45.815 139.025 45.8379C139.031 45.8575 139.038 45.8804 139.045 45.9033C139.048 45.9262 139.051 45.9491 139.051 45.972C139.051 46.0636 139.015 46.152 138.95 46.2174C138.917 46.2534 138.881 46.2763 138.835 46.2927C138.793 46.309 138.75 46.3188 138.701 46.3188H138.698Z" fill="#5109C9"/>
<path d="M153.402 48.21H129.79C129.597 48.21 129.44 48.0529 129.44 47.8599V44.0779C129.44 43.8848 129.597 43.7278 129.79 43.7278H153.402C153.595 43.7278 153.752 43.8848 153.752 44.0779V47.8599C153.752 48.0529 153.595 48.21 153.402 48.21ZM130.14 47.5131H153.052V44.4279H130.14V47.5131Z" fill="#5109C9"/>
<path d="M153.402 68.0757H129.79C129.597 68.0757 129.44 67.9187 129.44 67.7257V47.8601C129.44 47.6671 129.597 47.51 129.79 47.51H153.402C153.595 47.51 153.752 47.6671 153.752 47.8601V67.7257C153.752 67.9187 153.595 68.0757 153.402 68.0757ZM130.14 67.3789H153.052V48.2101H130.14V67.3789Z" fill="#5109C9"/>
<path d="M151.225 52.3095H139.133C138.94 52.3095 138.783 52.1525 138.783 51.9594V50.3269C138.783 50.1338 138.94 49.9768 139.133 49.9768H151.225C151.418 49.9768 151.575 50.1338 151.575 50.3269V51.9594C151.575 52.1525 151.418 52.3095 151.225 52.3095ZM139.483 51.6126H150.878V50.6802H139.483V51.6126Z" fill="#5109C9"/>
<path d="M151.225 61.5225H139.133C138.94 61.5225 138.783 61.3655 138.783 61.1725V59.5399C138.783 59.3469 138.94 59.1898 139.133 59.1898H151.225C151.418 59.1898 151.575 59.3469 151.575 59.5399V61.1725C151.575 61.3655 151.418 61.5225 151.225 61.5225ZM139.483 60.8257H150.878V59.8932H139.483V60.8257Z" fill="#5109C9"/>
<path d="M151.225 54.0925H139.133C138.94 54.0925 138.783 53.9354 138.783 53.7424C138.783 53.5494 138.94 53.3923 139.133 53.3923H151.225C151.418 53.3923 151.575 53.5494 151.575 53.7424C151.575 53.9354 151.418 54.0925 151.225 54.0925Z" fill="#5109C9"/>
<path d="M151.225 55.9246H139.133C138.94 55.9246 138.783 55.7676 138.783 55.5746C138.783 55.3815 138.94 55.2245 139.133 55.2245H151.225C151.418 55.2245 151.575 55.3815 151.575 55.5746C151.575 55.7676 151.418 55.9246 151.225 55.9246Z" fill="#5109C9"/>
<path d="M151.225 63.3088H139.133C138.94 63.3088 138.783 63.1517 138.783 62.9587C138.783 62.7657 138.94 62.6086 139.133 62.6086H151.225C151.418 62.6086 151.575 62.7657 151.575 62.9587C151.575 63.1517 151.418 63.3088 151.225 63.3088Z" fill="#5109C9"/>
<path d="M151.225 65.1376H139.133C138.94 65.1376 138.783 64.9806 138.783 64.7876C138.783 64.5945 138.94 64.4375 139.133 64.4375H151.225C151.418 64.4375 151.575 64.5945 151.575 64.7876C151.575 64.9806 151.418 65.1376 151.225 65.1376Z" fill="#5109C9"/>
<path d="M206.167 45.4004H169.447C167.632 45.4004 166.161 46.8712 166.161 48.6855C166.161 50.4999 167.632 51.9707 169.447 51.9707H206.167C207.981 51.9707 209.452 50.4999 209.452 48.6855C209.452 46.8712 207.981 45.4004 206.167 45.4004Z" fill="#67DC7A"/>
<path opacity="0.6" d="M207.008 55.0645H168.605C167.256 55.0645 166.161 56.1586 166.161 57.5083C166.161 58.858 167.256 59.9521 168.605 59.9521H207.008C208.358 59.9521 209.452 58.858 209.452 57.5083C209.452 56.1586 208.358 55.0645 207.008 55.0645Z" fill="#E5E5E5"/>
<path opacity="0.6" d="M222.758 63.3151H168.541C167.191 63.3151 166.097 64.4092 166.097 65.7589C166.097 67.1086 167.191 68.2028 168.541 68.2028H222.758C224.108 68.2028 225.202 67.1086 225.202 65.7589C225.202 64.4092 224.108 63.3151 222.758 63.3151Z" fill="#E5E5E5"/>
<path opacity="0.6" d="M236.049 82.441H128.789C127.44 82.441 126.345 83.5352 126.345 84.8849C126.345 86.2346 127.44 87.3287 128.789 87.3287H236.049C237.399 87.3287 238.493 86.2346 238.493 84.8849C238.493 83.5352 237.399 82.441 236.049 82.441Z" fill="#E5E5E5"/>
<path opacity="0.6" d="M169.688 95.7883H129.346C127.619 95.7883 126.219 97.1882 126.219 98.9151V193.423C126.219 195.15 127.619 196.55 129.346 196.55H169.688C171.414 196.55 172.814 195.15 172.814 193.423V98.9151C172.814 97.1882 171.414 95.7883 169.688 95.7883Z" fill="#E5E5E5"/>
<path d="M130.222 101.573H143.511" stroke="#1E1E1E" stroke-opacity="0.1" stroke-width="1.56338" stroke-miterlimit="10" stroke-linecap="round"/>
<path d="M130.222 104.7H149.764" stroke="#1E1E1E" stroke-opacity="0.1" stroke-width="1.56338" stroke-miterlimit="10" stroke-linecap="round"/>
<path opacity="0.6" d="M231.325 95.7883H179.068C177.341 95.7883 175.941 97.1882 175.941 98.9151V193.423C175.941 195.15 177.341 196.55 179.068 196.55H231.325C233.052 196.55 234.452 195.15 234.452 193.423V98.9151C234.452 97.1882 233.052 95.7883 231.325 95.7883Z" fill="#E5E5E5"/>
<path opacity="0.6" d="M222.716 55.0645H213.813C212.464 55.0645 211.37 56.1586 211.37 57.5083C211.37 58.858 212.464 59.9521 213.813 59.9521H222.716C224.066 59.9521 225.16 58.858 225.16 57.5083C225.16 56.1586 224.066 55.0645 222.716 55.0645Z" fill="#E5E5E5"/>
<path d="M113.296 155.123H89.9387V164.71H113.296V155.123Z" fill="white"/>
<path d="M101.083 269.87C128.594 269.87 150.896 247.885 150.896 220.766C150.896 193.646 128.594 171.661 101.083 171.661C73.5727 171.661 51.271 193.646 51.271 220.766C51.271 247.885 73.5727 269.87 101.083 269.87Z" fill="white"/>
<path d="M101.265 262.195C78.4978 262.195 59.9751 243.673 59.9751 220.905C59.9751 198.138 78.4978 179.615 101.265 179.615C124.033 179.615 142.555 198.138 142.555 220.905C142.555 243.673 124.033 262.195 101.265 262.195ZM101.265 183.287C80.5239 183.287 63.6467 200.161 63.6467 220.905C63.6467 241.649 80.5215 258.524 101.265 258.524C122.009 258.524 138.884 241.649 138.884 220.905C138.884 200.161 122.009 183.287 101.265 183.287Z" fill="#5109C9"/>
<path d="M101.265 270.805C73.7488 270.805 51.3643 248.421 51.3643 220.905C51.3643 193.389 73.7488 171.005 101.265 171.005C128.781 171.005 151.165 193.389 151.165 220.905C151.165 248.421 128.781 270.805 101.265 270.805ZM101.265 174.676C75.7749 174.676 55.0382 195.415 55.0382 220.905C55.0382 246.395 75.7772 267.134 101.265 267.134C126.752 267.134 147.494 246.395 147.494 220.905C147.494 195.415 126.755 174.676 101.265 174.676Z" fill="#5109C9"/>
<path d="M112.226 166.549H90.3028C89.2886 166.549 88.467 165.727 88.467 164.713V155.501C88.467 154.487 89.2886 153.666 90.3028 153.666H112.226C113.24 153.666 114.061 154.487 114.061 155.501V164.713C114.061 165.727 113.24 166.549 112.226 166.549ZM92.1386 162.877H110.39V157.337H92.1386V162.877Z" fill="#5109C9"/>
<path d="M105.897 174.676H96.6341C95.6199 174.676 94.7983 173.855 94.7983 172.84V164.713C94.7983 163.699 95.6199 162.877 96.6341 162.877H105.897C106.911 162.877 107.732 163.699 107.732 164.713V172.84C107.732 173.855 106.911 174.676 105.897 174.676ZM98.4699 171.002H104.061V166.549H98.4699V171.002Z" fill="#5109C9"/>
<path d="M66.6378 189.406C66.1667 189.406 65.6979 189.228 65.3382 188.868L57.9788 181.509C57.2616 180.792 57.2616 179.629 57.9788 178.912C58.6959 178.194 59.8587 178.194 60.5758 178.912L67.9352 186.271C68.6523 186.988 68.6523 188.151 67.9352 188.868C67.5778 189.228 67.1067 189.406 66.6378 189.406Z" fill="#5109C9"/>
<path d="M55.604 185.733C55.1352 185.733 54.6641 185.554 54.3067 185.194C53.5895 184.477 53.5895 183.314 54.3067 182.597L61.666 175.238C62.3832 174.521 63.5459 174.521 64.2631 175.238C64.9802 175.955 64.9802 177.118 64.2631 177.835L56.9037 185.194C56.5463 185.552 56.0751 185.733 55.604 185.733Z" fill="#5109C9"/>
<path d="M135.94 189.407C135.469 189.407 135 189.228 134.641 188.868C133.923 188.151 133.923 186.988 134.641 186.271L142 178.912C142.717 178.195 143.88 178.195 144.597 178.912C145.314 179.629 145.314 180.792 144.597 181.509L137.238 188.868C136.878 189.228 136.409 189.407 135.94 189.407Z" fill="#5109C9"/>
<path d="M146.972 185.733C146.503 185.733 146.032 185.554 145.675 185.194L138.315 177.835C137.598 177.118 137.598 175.955 138.315 175.238C139.033 174.521 140.195 174.521 140.912 175.238L148.272 182.597C148.989 183.314 148.989 184.477 148.272 185.194C147.912 185.552 147.443 185.733 146.972 185.733Z" fill="#5109C9"/>
<path d="M77.3721 215.773H75.0973L74.7065 216.883H73.7763L75.7227 211.442H76.7545L78.7009 216.883H77.7629L77.3721 215.773ZM77.1219 215.046L76.2386 212.521L75.3475 215.046H77.1219ZM83.4479 212.576V216.883H82.5567V216.375C82.416 216.552 82.231 216.693 82.0017 216.797C81.7777 216.896 81.5379 216.945 81.2826 216.945C80.9438 216.945 80.639 216.875 80.368 216.734C80.1022 216.594 79.8912 216.385 79.7348 216.109C79.5837 215.833 79.5081 215.499 79.5081 215.108V212.576H80.3915V214.976C80.3915 215.361 80.4879 215.658 80.6807 215.867C80.8735 216.07 81.1367 216.172 81.4702 216.172C81.8037 216.172 82.0669 216.07 82.2597 215.867C82.4577 215.658 82.5567 215.361 82.5567 214.976V212.576H83.4479ZM85.6633 213.303V215.687C85.6633 215.848 85.6998 215.966 85.7727 216.039C85.8509 216.106 85.9812 216.14 86.1636 216.14H86.7108V216.883H86.0072C85.606 216.883 85.2985 216.789 85.0848 216.602C84.8712 216.414 84.7643 216.109 84.7643 215.687V213.303H84.2562V212.576H84.7643V211.505H85.6633V212.576H86.7108V213.303H85.6633ZM89.4003 216.953C88.9938 216.953 88.6264 216.862 88.2981 216.68C87.9698 216.492 87.7119 216.232 87.5243 215.898C87.3367 215.559 87.2429 215.168 87.2429 214.725C87.2429 214.288 87.3393 213.899 87.5321 213.561C87.7249 213.222 87.9881 212.961 88.3216 212.779C88.6551 212.597 89.0277 212.505 89.4394 212.505C89.8511 212.505 90.2237 212.597 90.5572 212.779C90.8907 212.961 91.1539 213.222 91.3467 213.561C91.5395 213.899 91.636 214.288 91.636 214.725C91.636 215.163 91.5369 215.551 91.3389 215.89C91.1409 216.229 90.8699 216.492 90.526 216.68C90.1872 216.862 89.812 216.953 89.4003 216.953ZM89.4003 216.179C89.6296 216.179 89.8433 216.125 90.0413 216.015C90.2445 215.906 90.4087 215.742 90.5338 215.523C90.6588 215.304 90.7214 215.038 90.7214 214.725C90.7214 214.413 90.6614 214.15 90.5416 213.936C90.4217 213.717 90.2628 213.553 90.0648 213.443C89.8667 213.334 89.6531 213.279 89.4238 213.279C89.1945 213.279 88.9808 213.334 88.7828 213.443C88.59 213.553 88.4362 213.717 88.3216 213.936C88.2069 214.15 88.1496 214.413 88.1496 214.725C88.1496 215.189 88.2669 215.549 88.5014 215.804C88.7411 216.054 89.0407 216.179 89.4003 216.179ZM97.7308 212.505C98.0695 212.505 98.3717 212.576 98.6375 212.717C98.9085 212.857 99.1196 213.066 99.2707 213.342C99.427 213.618 99.5052 213.952 99.5052 214.342V216.883H98.6219V214.475C98.6219 214.09 98.5255 213.795 98.3327 213.592C98.1398 213.384 97.8767 213.279 97.5432 213.279C97.2096 213.279 96.9439 213.384 96.7458 213.592C96.553 213.795 96.4566 214.09 96.4566 214.475V216.883H95.5733V214.475C95.5733 214.09 95.4769 213.795 95.2841 213.592C95.0913 213.384 94.8281 213.279 94.4946 213.279C94.161 213.279 93.8953 213.384 93.6972 213.592C93.5044 213.795 93.408 214.09 93.408 214.475V216.883H92.5169V212.576H93.408V213.068C93.5539 212.891 93.7389 212.753 93.963 212.654C94.1871 212.555 94.4268 212.505 94.6822 212.505C95.0261 212.505 95.3336 212.578 95.6046 212.724C95.8755 212.87 96.084 213.081 96.2299 213.358C96.3602 213.097 96.5634 212.891 96.8396 212.74C97.1158 212.584 97.4129 212.505 97.7308 212.505ZM100.342 214.71C100.342 214.277 100.431 213.894 100.608 213.561C100.79 213.227 101.035 212.969 101.343 212.787C101.655 212.599 101.999 212.505 102.374 212.505C102.713 212.505 103.008 212.573 103.258 212.709C103.513 212.839 103.716 213.003 103.868 213.201V212.576H104.766V216.883H103.868V216.242C103.716 216.445 103.511 216.615 103.25 216.75C102.989 216.886 102.692 216.953 102.359 216.953C101.989 216.953 101.65 216.859 101.343 216.672C101.035 216.479 100.79 216.213 100.608 215.875C100.431 215.531 100.342 215.142 100.342 214.71ZM103.868 214.725C103.868 214.428 103.805 214.17 103.68 213.952C103.56 213.733 103.401 213.566 103.203 213.451C103.005 213.337 102.791 213.279 102.562 213.279C102.333 213.279 102.119 213.337 101.921 213.451C101.723 213.561 101.562 213.725 101.436 213.944C101.317 214.157 101.257 214.413 101.257 214.71C101.257 215.007 101.317 215.267 101.436 215.492C101.562 215.716 101.723 215.888 101.921 216.007C102.124 216.122 102.338 216.179 102.562 216.179C102.791 216.179 103.005 216.122 103.203 216.007C103.401 215.893 103.56 215.726 103.68 215.507C103.805 215.283 103.868 215.023 103.868 214.725ZM106.977 213.303V215.687C106.977 215.848 107.013 215.966 107.086 216.039C107.164 216.106 107.294 216.14 107.477 216.14H108.024V216.883H107.321C106.919 216.883 106.612 216.789 106.398 216.602C106.184 216.414 106.078 216.109 106.078 215.687V213.303H105.57V212.576H106.078V211.505H106.977V212.576H108.024V213.303H106.977ZM109.299 212.005C109.137 212.005 109.002 211.95 108.892 211.841C108.783 211.732 108.728 211.596 108.728 211.435C108.728 211.273 108.783 211.138 108.892 211.028C109.002 210.919 109.137 210.864 109.299 210.864C109.455 210.864 109.588 210.919 109.697 211.028C109.807 211.138 109.862 211.273 109.862 211.435C109.862 211.596 109.807 211.732 109.697 211.841C109.588 211.95 109.455 212.005 109.299 212.005ZM109.736 212.576V216.883H108.845V212.576H109.736ZM112.775 216.953C112.368 216.953 112.001 216.862 111.673 216.68C111.344 216.492 111.086 216.232 110.899 215.898C110.711 215.559 110.617 215.168 110.617 214.725C110.617 214.288 110.714 213.899 110.906 213.561C111.099 213.222 111.362 212.961 111.696 212.779C112.029 212.597 112.402 212.505 112.814 212.505C113.225 212.505 113.598 212.597 113.932 212.779C114.265 212.961 114.528 213.222 114.721 213.561C114.914 213.899 115.01 214.288 115.01 214.725C115.01 215.163 114.911 215.551 114.713 215.89C114.515 216.229 114.244 216.492 113.9 216.68C113.562 216.862 113.186 216.953 112.775 216.953ZM112.775 216.179C113.004 216.179 113.218 216.125 113.416 216.015C113.619 215.906 113.783 215.742 113.908 215.523C114.033 215.304 114.096 215.038 114.096 214.725C114.096 214.413 114.036 214.15 113.916 213.936C113.796 213.717 113.637 213.553 113.439 213.443C113.241 213.334 113.027 213.279 112.798 213.279C112.569 213.279 112.355 213.334 112.157 213.443C111.964 213.553 111.811 213.717 111.696 213.936C111.581 214.15 111.524 214.413 111.524 214.725C111.524 215.189 111.641 215.549 111.876 215.804C112.115 216.054 112.415 216.179 112.775 216.179ZM118.064 212.505C118.403 212.505 118.705 212.576 118.971 212.717C119.242 212.857 119.453 213.066 119.604 213.342C119.755 213.618 119.831 213.952 119.831 214.342V216.883H118.948V214.475C118.948 214.09 118.851 213.795 118.658 213.592C118.466 213.384 118.202 213.279 117.869 213.279C117.535 213.279 117.27 213.384 117.072 213.592C116.879 213.795 116.782 214.09 116.782 214.475V216.883H115.891V212.576H116.782V213.068C116.928 212.891 117.113 212.753 117.337 212.654C117.567 212.555 117.809 212.505 118.064 212.505ZM123.452 212.005C123.29 212.005 123.155 211.95 123.045 211.841C122.936 211.732 122.881 211.596 122.881 211.435C122.881 211.273 122.936 211.138 123.045 211.028C123.155 210.919 123.29 210.864 123.452 210.864C123.608 210.864 123.741 210.919 123.85 211.028C123.96 211.138 124.014 211.273 124.014 211.435C124.014 211.596 123.96 211.732 123.85 211.841C123.741 211.95 123.608 212.005 123.452 212.005ZM123.889 212.576V216.883H122.998V212.576H123.889ZM127.232 212.505C127.571 212.505 127.873 212.576 128.139 212.717C128.41 212.857 128.621 213.066 128.772 213.342C128.924 213.618 128.999 213.952 128.999 214.342V216.883H128.116V214.475C128.116 214.09 128.019 213.795 127.827 213.592C127.634 213.384 127.371 213.279 127.037 213.279C126.704 213.279 126.438 213.384 126.24 213.592C126.047 213.795 125.95 214.09 125.95 214.475V216.883H125.059V212.576H125.95V213.068C126.096 212.891 126.281 212.753 126.505 212.654C126.735 212.555 126.977 212.505 127.232 212.505Z" fill="#1E1E1E"/>
<path d="M80.2158 234.812C79.2892 234.812 78.5232 234.596 77.9176 234.166C77.3194 233.728 76.9947 233.09 76.9436 232.251H79.5263C79.5628 232.696 79.7598 232.918 80.1173 232.918C80.2486 232.918 80.3581 232.889 80.4456 232.831C80.5405 232.765 80.5879 232.667 80.5879 232.535C80.5879 232.353 80.4894 232.207 80.2924 232.098C80.0954 231.981 79.789 231.85 79.3731 231.704C78.877 231.529 78.4648 231.357 78.1365 231.189C77.8155 231.022 77.5382 230.777 77.3048 230.456C77.0713 230.135 76.9582 229.723 76.9655 229.219C76.9655 228.716 77.0932 228.289 77.3485 227.939C77.6112 227.582 77.965 227.312 78.4101 227.129C78.8624 226.947 79.3695 226.856 79.9313 226.856C80.8797 226.856 81.6312 227.075 82.1856 227.512C82.7474 227.95 83.0429 228.567 83.0721 229.362H80.4565C80.4493 229.143 80.3945 228.986 80.2924 228.891C80.1903 228.796 80.0662 228.749 79.9203 228.749C79.8182 228.749 79.7343 228.785 79.6686 228.858C79.6029 228.924 79.5701 229.019 79.5701 229.143C79.5701 229.318 79.665 229.464 79.8546 229.581C80.0516 229.69 80.3617 229.825 80.7849 229.986C81.2737 230.168 81.6749 230.343 81.9887 230.511C82.3097 230.679 82.5869 230.912 82.8204 231.211C83.0538 231.51 83.1706 231.886 83.1706 232.338C83.1706 232.813 83.0538 233.239 82.8204 233.619C82.5869 233.991 82.2477 234.283 81.8026 234.494C81.3576 234.706 80.8286 234.812 80.2158 234.812ZM89.9994 231.594C89.9994 231.762 89.9885 231.923 89.9666 232.076H86.0597C86.0962 232.608 86.3187 232.875 86.7273 232.875C86.9899 232.875 87.1796 232.754 87.2963 232.514H89.8681C89.7806 232.951 89.5945 233.345 89.31 233.695C89.0327 234.038 88.6789 234.312 88.2484 234.516C87.8253 234.713 87.3584 234.812 86.8477 234.812C86.2348 234.812 85.6876 234.684 85.2061 234.429C84.7319 234.173 84.3598 233.809 84.0898 233.334C83.8272 232.853 83.6959 232.291 83.6959 231.649C83.6959 231.007 83.8272 230.449 84.0898 229.975C84.3598 229.493 84.7319 229.125 85.2061 228.869C85.6876 228.614 86.2348 228.486 86.8477 228.486C87.4605 228.486 88.004 228.614 88.4783 228.869C88.9598 229.117 89.3319 229.475 89.5945 229.942C89.8645 230.409 89.9994 230.96 89.9994 231.594ZM87.5371 231.014C87.5371 230.81 87.4714 230.657 87.3401 230.555C87.2088 230.445 87.0446 230.39 86.8477 230.39C86.4172 230.39 86.1655 230.598 86.0925 231.014H87.5371ZM90.4395 231.649C90.4395 231.007 90.5708 230.449 90.8335 229.975C91.1034 229.493 91.4755 229.125 91.9497 228.869C92.4312 228.614 92.9784 228.486 93.5913 228.486C94.3938 228.486 95.0687 228.712 95.6158 229.165C96.1703 229.617 96.5205 230.245 96.6664 231.047H94.0947C93.9998 230.726 93.8138 230.566 93.5365 230.566C93.3396 230.566 93.1827 230.657 93.066 230.839C92.9565 231.022 92.9018 231.291 92.9018 231.649C92.9018 232.006 92.9565 232.276 93.066 232.459C93.1827 232.641 93.3396 232.732 93.5365 232.732C93.8138 232.732 93.9998 232.572 94.0947 232.251H96.6664C96.5205 233.053 96.1703 233.681 95.6158 234.133C95.0687 234.586 94.3938 234.812 93.5913 234.812C92.9784 234.812 92.4312 234.684 91.9497 234.429C91.4755 234.173 91.1034 233.809 90.8335 233.334C90.5708 232.853 90.4395 232.291 90.4395 231.649ZM100.369 234.812C99.7494 234.812 99.1912 234.684 98.6951 234.429C98.199 234.173 97.8087 233.809 97.5241 233.334C97.2469 232.853 97.1083 232.291 97.1083 231.649C97.1083 231.007 97.2469 230.449 97.5241 229.975C97.8087 229.493 98.199 229.125 98.6951 228.869C99.1912 228.614 99.7494 228.486 100.369 228.486C100.99 228.486 101.548 228.614 102.044 228.869C102.54 229.125 102.927 229.493 103.204 229.975C103.488 230.449 103.631 231.007 103.631 231.649C103.631 232.291 103.488 232.853 103.204 233.334C102.927 233.809 102.54 234.173 102.044 234.429C101.548 234.684 100.99 234.812 100.369 234.812ZM100.369 232.711C100.596 232.711 100.785 232.623 100.939 232.448C101.092 232.265 101.168 231.999 101.168 231.649C101.168 231.299 101.092 231.036 100.939 230.861C100.785 230.679 100.596 230.587 100.369 230.587C100.143 230.587 99.9536 230.679 99.8004 230.861C99.6472 231.036 99.5706 231.299 99.5706 231.649C99.5706 231.999 99.6436 232.265 99.7895 232.448C99.9427 232.623 100.136 232.711 100.369 232.711ZM108.717 228.519C109.424 228.519 109.975 228.756 110.369 229.23C110.77 229.705 110.971 230.347 110.971 231.157V234.735H108.553V231.463C108.553 231.171 108.472 230.941 108.312 230.773C108.159 230.598 107.951 230.511 107.688 230.511C107.418 230.511 107.206 230.598 107.053 230.773C106.9 230.941 106.823 231.171 106.823 231.463V234.735H104.394V228.563H106.823V229.504C107.013 229.212 107.265 228.975 107.579 228.793C107.9 228.61 108.279 228.519 108.717 228.519ZM111.696 231.649C111.696 231 111.806 230.438 112.025 229.964C112.251 229.482 112.557 229.117 112.944 228.869C113.331 228.614 113.765 228.486 114.246 228.486C114.647 228.486 114.99 228.57 115.275 228.738C115.567 228.898 115.789 229.121 115.942 229.406V226.637H118.372V234.735H115.942V233.892C115.789 234.177 115.567 234.403 115.275 234.571C114.99 234.731 114.647 234.812 114.246 234.812C113.765 234.812 113.331 234.688 112.944 234.44C112.557 234.184 112.251 233.819 112.025 233.345C111.806 232.864 111.696 232.298 111.696 231.649ZM115.953 231.649C115.953 231.321 115.869 231.065 115.702 230.883C115.534 230.701 115.319 230.609 115.056 230.609C114.793 230.609 114.578 230.701 114.41 230.883C114.243 231.065 114.159 231.321 114.159 231.649C114.159 231.977 114.243 232.233 114.41 232.415C114.578 232.597 114.793 232.689 115.056 232.689C115.319 232.689 115.534 232.597 115.702 232.415C115.869 232.233 115.953 231.977 115.953 231.649ZM122.21 234.812C121.626 234.812 121.108 234.717 120.656 234.527C120.211 234.337 119.857 234.075 119.594 233.739C119.332 233.404 119.182 233.024 119.146 232.601H121.477C121.506 232.783 121.582 232.918 121.706 233.006C121.838 233.094 122.002 233.137 122.199 233.137C122.323 233.137 122.421 233.112 122.494 233.061C122.567 233.002 122.604 232.933 122.604 232.853C122.604 232.714 122.527 232.616 122.374 232.557C122.221 232.499 121.962 232.433 121.597 232.36C121.152 232.273 120.783 232.178 120.492 232.076C120.207 231.974 119.955 231.799 119.736 231.55C119.525 231.302 119.419 230.96 119.419 230.522C119.419 230.142 119.518 229.8 119.715 229.493C119.919 229.179 120.218 228.935 120.612 228.76C121.006 228.577 121.484 228.486 122.046 228.486C122.877 228.486 123.527 228.691 123.994 229.099C124.468 229.508 124.752 230.04 124.847 230.697H122.691C122.655 230.529 122.578 230.401 122.461 230.314C122.345 230.219 122.188 230.172 121.991 230.172C121.867 230.172 121.772 230.197 121.706 230.248C121.641 230.292 121.608 230.361 121.608 230.456C121.608 230.58 121.684 230.675 121.838 230.741C121.991 230.799 122.235 230.861 122.571 230.927C123.016 231.014 123.392 231.113 123.698 231.222C124.004 231.332 124.271 231.521 124.497 231.791C124.723 232.054 124.836 232.419 124.836 232.886C124.836 233.25 124.73 233.579 124.519 233.871C124.307 234.162 124.001 234.392 123.6 234.56C123.206 234.728 122.742 234.812 122.21 234.812Z" fill="#67DC7A"/>
<path d="M181.032 101.573H194.32" stroke="#1E1E1E" stroke-opacity="0.1" stroke-width="1.56338" stroke-miterlimit="10" stroke-linecap="round"/>
<path d="M181.032 104.7H200.574" stroke="#1E1E1E" stroke-opacity="0.1" stroke-width="1.56338" stroke-miterlimit="10" stroke-linecap="round"/>
<path d="M184.158 165.103L226.762 164.89" stroke="#1E1E1E" stroke-opacity="0.1" stroke-width="1.56338" stroke-miterlimit="10" stroke-linecap="round"/>
<path d="M184.158 172.352L226.762 172.139" stroke="#1E1E1E" stroke-opacity="0.1" stroke-width="1.56338" stroke-miterlimit="10" stroke-linecap="round"/>
<path d="M184.158 179.601L226.762 179.387" stroke="#1E1E1E" stroke-opacity="0.1" stroke-width="1.56338" stroke-miterlimit="10" stroke-linecap="round"/>
<path d="M184.158 186.852L226.762 186.636" stroke="#1E1E1E" stroke-opacity="0.1" stroke-width="1.56338" stroke-miterlimit="10" stroke-linecap="round"/>
<path d="M132.567 129.716C150.539 129.628 150.552 132.145 168.525 132.057" stroke="#1E1E1E" stroke-opacity="0.1" stroke-width="1.56338" stroke-miterlimit="10" stroke-linecap="round"/>
<path d="M132.567 137.533C150.539 137.445 150.552 139.961 168.525 139.873" stroke="#1E1E1E" stroke-opacity="0.1" stroke-width="1.56338" stroke-miterlimit="10" stroke-linecap="round"/>
<path d="M132.567 145.35C150.539 145.262 150.552 147.778 168.525 147.69" stroke="#1E1E1E" stroke-opacity="0.1" stroke-width="1.56338" stroke-miterlimit="10" stroke-linecap="round"/>
<path d="M132.567 153.167C150.539 153.079 150.552 155.595 168.525 155.507" stroke="#1E1E1E" stroke-opacity="0.1" stroke-width="1.56338" stroke-miterlimit="10" stroke-linecap="round"/>
<path d="M132.567 160.984C150.539 160.867 150.552 164.222 168.525 164.105" stroke="#1E1E1E" stroke-opacity="0.1" stroke-width="1.56338" stroke-miterlimit="10" stroke-linecap="round"/>
</svg>
